G04*
G04 #@! TF.GenerationSoftware,Altium Limited,Altium Designer,22.5.1 (42)*
G04*
G04 Layer_Color=2752767*
%FSLAX44Y44*%
%MOMM*%
G71*
G04*
G04 #@! TF.SameCoordinates,CACD2641-2831-44B8-A32A-C0E418E96BB6*
G04*
G04*
G04 #@! TF.FilePolarity,Positive*
G04*
G01*
G75*
%ADD70C,0.0508*%
%ADD71C,0.0677*%
D70*
X602488Y773168D02*
Y777232D01*
X606552D01*
Y773168D01*
X602488D01*
Y747518D02*
Y751582D01*
X606552D01*
Y747518D01*
X602488D01*
Y721868D02*
Y725932D01*
X606552D01*
Y721868D01*
X602488D01*
X559308Y772918D02*
Y776982D01*
X563372D01*
Y772918D01*
X559308D01*
Y721618D02*
Y725682D01*
X563372D01*
Y721618D01*
X559308D01*
Y747268D02*
Y751332D01*
X563372D01*
Y747268D01*
X559308D01*
X522478Y772918D02*
Y776982D01*
X526542D01*
Y772918D01*
X522478D01*
Y721618D02*
Y725682D01*
X526542D01*
Y721618D01*
X522478D01*
Y747268D02*
Y751332D01*
X526542D01*
Y747268D01*
X522478D01*
X686308Y827028D02*
Y831092D01*
X690372D01*
Y827028D01*
X686308D01*
Y878328D02*
Y882392D01*
X690372D01*
Y878328D01*
X686308D01*
Y852678D02*
Y856742D01*
X690372D01*
Y852678D01*
X686308D01*
X1198880Y897128D02*
X1196848Y901192D01*
X1200912D01*
X1198880Y897128D01*
X1173480D02*
X1171448Y901192D01*
X1175512D01*
X1173480Y897128D01*
X741680D02*
X739648Y901192D01*
X743712D01*
X741680Y897128D01*
X1148080D02*
X1146048Y901192D01*
X1150112D01*
X1148080Y897128D01*
X1122680D02*
X1120648Y901192D01*
X1124712D01*
X1122680Y897128D01*
X1097280D02*
X1095248Y901192D01*
X1099312D01*
X1097280Y897128D01*
X1071880D02*
X1069848Y901192D01*
X1073912D01*
X1071880Y897128D01*
X1046480D02*
X1044448Y901192D01*
X1048512D01*
X1046480Y897128D01*
X1021080D02*
X1019048Y901192D01*
X1023112D01*
X1021080Y897128D01*
X995680D02*
X993648Y901192D01*
X997712D01*
X995680Y897128D01*
X970280D02*
X968248Y901192D01*
X972312D01*
X970280Y897128D01*
X944880D02*
X942848Y901192D01*
X946912D01*
X944880Y897128D01*
X919480D02*
X917448Y901192D01*
X921512D01*
X919480Y897128D01*
X894080D02*
X892048Y901192D01*
X896112D01*
X894080Y897128D01*
X868680D02*
X866648Y901192D01*
X870712D01*
X868680Y897128D01*
X843280D02*
X841248Y901192D01*
X845312D01*
X843280Y897128D01*
X817880D02*
X815848Y901192D01*
X819912D01*
X817880Y897128D01*
X792480D02*
X790448Y901192D01*
X794512D01*
X792480Y897128D01*
X767080D02*
X765048Y901192D01*
X769112D01*
X767080Y897128D01*
X1198880Y643128D02*
X1196848Y647192D01*
X1200912D01*
X1198880Y643128D01*
X1173480D02*
X1171448Y647192D01*
X1175512D01*
X1173480Y643128D01*
X1148080D02*
X1146048Y647192D01*
X1150112D01*
X1148080Y643128D01*
X1122680D02*
X1120648Y647192D01*
X1124712D01*
X1122680Y643128D01*
X1097280D02*
X1095248Y647192D01*
X1099312D01*
X1097280Y643128D01*
X1071880D02*
X1069848Y647192D01*
X1073912D01*
X1071880Y643128D01*
X1046480D02*
X1044448Y647192D01*
X1048512D01*
X1046480Y643128D01*
X1021080D02*
X1019048Y647192D01*
X1023112D01*
X1021080Y643128D01*
X995680D02*
X993648Y647192D01*
X997712D01*
X995680Y643128D01*
X970280D02*
X968248Y647192D01*
X972312D01*
X970280Y643128D01*
X944880D02*
X942848Y647192D01*
X946912D01*
X944880Y643128D01*
X919480D02*
X917448Y647192D01*
X921512D01*
X919480Y643128D01*
X894080D02*
X892048Y647192D01*
X896112D01*
X894080Y643128D01*
X868680D02*
X866648Y647192D01*
X870712D01*
X868680Y643128D01*
X843280D02*
X841248Y647192D01*
X845312D01*
X843280Y643128D01*
X817880D02*
X815848Y647192D01*
X819912D01*
X817880Y643128D01*
X792480D02*
X790448Y647192D01*
X794512D01*
X792480Y643128D01*
X767080D02*
X765048Y647192D01*
X769112D01*
X767080Y643128D01*
X741680D02*
X739648Y647192D01*
X743712D01*
X741680Y643128D01*
X687578Y771898D02*
Y775962D01*
X691642D01*
Y771898D01*
X687578D01*
Y746248D02*
Y750312D01*
X691642D01*
Y746248D01*
X687578D01*
Y720598D02*
Y724662D01*
X691642D01*
Y720598D01*
X687578D01*
X645668Y771478D02*
Y775542D01*
X649732D01*
Y771478D01*
X645668D01*
Y745828D02*
Y749892D01*
X649732D01*
Y745828D01*
X645668D01*
Y720178D02*
Y724242D01*
X649732D01*
Y720178D01*
X645668D01*
Y826008D02*
Y830072D01*
X649732D01*
Y826008D01*
X645668D01*
Y877308D02*
Y881372D01*
X649732D01*
Y877308D01*
X645668D01*
Y851658D02*
Y855722D01*
X649732D01*
Y851658D01*
X645668D01*
X603758Y826008D02*
Y830072D01*
X607822D01*
Y826008D01*
X603758D01*
Y851658D02*
Y855722D01*
X607822D01*
Y851658D01*
X603758D01*
Y877308D02*
Y881372D01*
X607822D01*
Y877308D01*
X603758D01*
X560578Y826008D02*
Y830072D01*
X564642D01*
Y826008D01*
X560578D01*
Y851658D02*
Y855722D01*
X564642D01*
Y851658D01*
X560578D01*
Y877308D02*
Y881372D01*
X564642D01*
Y877308D01*
X560578D01*
X777748Y657098D02*
X778764Y659130D01*
X777748Y661162D01*
X779780Y660146D01*
X781812Y661162D01*
X780796Y659130D01*
X781812Y657098D01*
X779780Y658114D01*
X777748Y657098D01*
X1107186Y836168D02*
X1108202Y838200D01*
X1107186Y840232D01*
X1109218Y839216D01*
X1111250Y840232D01*
X1110234Y838200D01*
X1111250Y836168D01*
X1109218Y837184D01*
X1107186Y836168D01*
X1128903Y855218D02*
X1129919Y857250D01*
X1128903Y859282D01*
X1130935Y858266D01*
X1132967Y859282D01*
X1131951Y857250D01*
X1132967Y855218D01*
X1130935Y856234D01*
X1128903Y855218D01*
X1150620Y836168D02*
X1151636Y838200D01*
X1150620Y840232D01*
X1152652Y839216D01*
X1154684Y840232D01*
X1153668Y838200D01*
X1154684Y836168D01*
X1152652Y837184D01*
X1150620Y836168D01*
X1172337Y855218D02*
X1173353Y857250D01*
X1172337Y859282D01*
X1174369Y858266D01*
X1176401Y859282D01*
X1175385Y857250D01*
X1176401Y855218D01*
X1174369Y856234D01*
X1172337Y855218D01*
X1194054Y836168D02*
X1195070Y838200D01*
X1194054Y840232D01*
X1196086Y839216D01*
X1198118Y840232D01*
X1197102Y838200D01*
X1198118Y836168D01*
X1196086Y837184D01*
X1194054Y836168D01*
X1215771Y855218D02*
X1216787Y857250D01*
X1215771Y859282D01*
X1217803Y858266D01*
X1219835Y859282D01*
X1218819Y857250D01*
X1219835Y855218D01*
X1217803Y856234D01*
X1215771Y855218D01*
X1237488Y836168D02*
X1238504Y838200D01*
X1237488Y840232D01*
X1239520Y839216D01*
X1241552Y840232D01*
X1240536Y838200D01*
X1241552Y836168D01*
X1239520Y837184D01*
X1237488Y836168D01*
X775716Y593598D02*
X776732Y595630D01*
X775716Y597662D01*
X777748Y596646D01*
X779780Y597662D01*
X778764Y595630D01*
X779780Y593598D01*
X777748Y594614D01*
X775716Y593598D01*
X753999Y612648D02*
X755015Y614680D01*
X753999Y616712D01*
X756031Y615696D01*
X758063Y616712D01*
X757047Y614680D01*
X758063Y612648D01*
X756031Y613664D01*
X753999Y612648D01*
X732282Y593598D02*
X733298Y595630D01*
X732282Y597662D01*
X734314Y596646D01*
X736346Y597662D01*
X735330Y595630D01*
X736346Y593598D01*
X734314Y594614D01*
X732282Y593598D01*
X710565Y612648D02*
X711581Y614680D01*
X710565Y616712D01*
X712597Y615696D01*
X714629Y616712D01*
X713613Y614680D01*
X714629Y612648D01*
X712597Y613664D01*
X710565Y612648D01*
X688848Y593598D02*
X689864Y595630D01*
X688848Y597662D01*
X690880Y596646D01*
X692912Y597662D01*
X691896Y595630D01*
X692912Y593598D01*
X690880Y594614D01*
X688848Y593598D01*
X518668Y847598D02*
X519684Y849630D01*
X518668Y851662D01*
X520700Y850646D01*
X522732Y851662D01*
X521716Y849630D01*
X522732Y847598D01*
X520700Y848614D01*
X518668Y847598D01*
X505968Y860298D02*
X506984Y862330D01*
X505968Y864362D01*
X508000Y863346D01*
X510032Y864362D01*
X509016Y862330D01*
X510032Y860298D01*
X508000Y861314D01*
X505968Y860298D01*
X493268Y847598D02*
X494284Y849630D01*
X493268Y851662D01*
X495300Y850646D01*
X497332Y851662D01*
X496316Y849630D01*
X497332Y847598D01*
X495300Y848614D01*
X493268Y847598D01*
X1053338Y608838D02*
X1054354Y610870D01*
X1053338Y612902D01*
X1055370Y611886D01*
X1057402Y612902D01*
X1056386Y610870D01*
X1057402Y608838D01*
X1055370Y609854D01*
X1053338Y608838D01*
X493268Y643128D02*
X494284Y645160D01*
X493268Y647192D01*
X495300Y646176D01*
X497332Y647192D01*
X496316Y645160D01*
X497332Y643128D01*
X495300Y644144D01*
X493268Y643128D01*
X895350Y579628D02*
X896366Y580644D01*
X897382D01*
X896366Y581660D01*
X897382Y582676D01*
X896366D01*
X895350Y583692D01*
X894334Y582676D01*
X893318D01*
X894334Y581660D01*
X893318Y580644D01*
X894334D01*
X895350Y579628D01*
X1010920D02*
X1011936Y580644D01*
X1012952D01*
X1011936Y581660D01*
X1012952Y582676D01*
X1011936D01*
X1010920Y583692D01*
X1009904Y582676D01*
X1008888D01*
X1009904Y581660D01*
X1008888Y580644D01*
X1009904D01*
X1010920Y579628D01*
X981710D02*
X982726Y580644D01*
X983742D01*
X982726Y581660D01*
X983742Y582676D01*
X982726D01*
X981710Y583692D01*
X980694Y582676D01*
X979678D01*
X980694Y581660D01*
X979678Y580644D01*
X980694D01*
X981710Y579628D01*
X952500D02*
X953516Y580644D01*
X954532D01*
X953516Y581660D01*
X954532Y582676D01*
X953516D01*
X952500Y583692D01*
X951484Y582676D01*
X950468D01*
X951484Y581660D01*
X950468Y580644D01*
X951484D01*
X952500Y579628D01*
X923290D02*
X924306Y580644D01*
X925322D01*
X924306Y581660D01*
X925322Y582676D01*
X924306D01*
X923290Y583692D01*
X922274Y582676D01*
X921258D01*
X922274Y581660D01*
X921258Y580644D01*
X922274D01*
X923290Y579628D01*
D71*
X1395222Y897890D02*
G03*
X1395222Y897890I-2032J0D01*
G01*
X515112D02*
G03*
X515112Y897890I-2032J0D01*
G01*
M02*
