G04*
G04 #@! TF.GenerationSoftware,Altium Limited,Altium Designer,22.5.1 (42)*
G04*
G04 Layer_Color=65535*
%FSLAX44Y44*%
%MOMM*%
G71*
G04*
G04 #@! TF.SameCoordinates,CACD2641-2831-44B8-A32A-C0E418E96BB6*
G04*
G04*
G04 #@! TF.FilePolarity,Positive*
G04*
G01*
G75*
%ADD10C,0.0716*%
%ADD11C,0.2000*%
%ADD12C,0.1270*%
%ADD13C,0.1500*%
%ADD14C,0.2540*%
G36*
X1298146Y858409D02*
X1299759Y857764D01*
X1303306Y856151D01*
X1304919Y855506D01*
X1317012Y855667D01*
X1349424Y855506D01*
X1350391Y855829D01*
X1373127Y855667D01*
X1373934Y855829D01*
X1374901Y855506D01*
X1377159Y855829D01*
X1378932Y857280D01*
X1380384Y859054D01*
X1381351Y859376D01*
X1382641Y859054D01*
X1383609Y858086D01*
X1385221Y857119D01*
X1385866Y856474D01*
X1387479Y855506D01*
X1389736Y854216D01*
X1390865Y852442D01*
X1391510Y850830D01*
X1390059Y849056D01*
X1388607Y848250D01*
X1388285Y846960D01*
X1388446Y808099D01*
X1388124Y806809D01*
X1386834Y805519D01*
X1385221Y804551D01*
X1382964Y803584D01*
X1381674Y803261D01*
X1380706Y802294D01*
X1379416Y802616D01*
X1377965Y804068D01*
X1377643Y805358D01*
X1377320Y807937D01*
X1376836Y808421D01*
X1346844Y808099D01*
X1346682Y794070D01*
X1347489Y792941D01*
X1376191Y793264D01*
X1376836Y793909D01*
X1377481Y794231D01*
X1377965Y794715D01*
X1378288Y795360D01*
X1379416Y796166D01*
X1380061Y797134D01*
X1380706Y797456D01*
X1383609Y800359D01*
X1383770Y800520D01*
X1384254Y801004D01*
X1385866Y800681D01*
X1387479Y799069D01*
X1388124Y798746D01*
X1389091Y797779D01*
X1391349Y796489D01*
X1391994Y795844D01*
X1392639Y795521D01*
X1393606Y794554D01*
X1394251Y794231D01*
X1396348Y792135D01*
X1396025Y788587D01*
X1393929Y787781D01*
X1392639Y787459D01*
X1389414Y787781D01*
X1388446Y787459D01*
X1354745Y787620D01*
X1348779Y787459D01*
X1347811Y787781D01*
X1346682Y786653D01*
X1347005Y773108D01*
X1347489Y772624D01*
X1389414Y772946D01*
X1397154Y780686D01*
X1398444Y781009D01*
X1400701Y779719D01*
X1401346Y779074D01*
X1401991Y778751D01*
X1403281Y777461D01*
X1405539Y776171D01*
X1407312Y774720D01*
X1407796Y774236D01*
X1408441Y773914D01*
X1409086Y773269D01*
X1409731Y772946D01*
X1411505Y771172D01*
X1411828Y768915D01*
X1409731Y766819D01*
X1408441Y766496D01*
X1393123Y766657D01*
X1387479Y766496D01*
X1386511Y766819D01*
X1383286Y766496D01*
X1382964Y766819D01*
X1381996Y766496D01*
X1372160Y766657D01*
X1357486Y766496D01*
X1356519Y766819D01*
X1353294Y766496D01*
X1340555Y766657D01*
X1314271Y766496D01*
X1313626Y766819D01*
X1312659Y766496D01*
X1305080Y766657D01*
X1302016Y766496D01*
X1301049Y766819D01*
X1299759Y766496D01*
X1276700Y766657D01*
X1275249Y766496D01*
X1274443Y766980D01*
X1274120Y768270D01*
X1274443Y769560D01*
X1274281Y771656D01*
X1274926Y772624D01*
X1335556Y772946D01*
X1336040Y773430D01*
X1335717Y786975D01*
X1334266Y787459D01*
X1294760Y787620D01*
X1288794Y787459D01*
X1287343Y788587D01*
X1287665Y792458D01*
X1288149Y792941D01*
X1335234Y793264D01*
X1335717Y793747D01*
X1336040Y795038D01*
X1335717Y807937D01*
X1335234Y808421D01*
X1305241Y808099D01*
X1304758Y806325D01*
X1305080Y805358D01*
X1304758Y802132D01*
X1303629Y801004D01*
X1301371Y799714D01*
X1299759Y799069D01*
X1298469Y798746D01*
X1297824Y798101D01*
X1296534Y797779D01*
X1294760Y799230D01*
X1294115Y800843D01*
X1294438Y801810D01*
X1294760Y859538D01*
X1295889Y859699D01*
X1298146Y858409D01*
D02*
G37*
G36*
X1379094Y763271D02*
X1380384Y761981D01*
X1381029D01*
X1382641Y761659D01*
X1383609Y760691D01*
X1384899Y760369D01*
X1385544Y760046D01*
X1386189Y759401D01*
X1387801Y758756D01*
X1388769Y758434D01*
X1389414Y757789D01*
X1390059Y757466D01*
X1391671Y756499D01*
X1392316Y755854D01*
X1393929Y754886D01*
X1394574Y754241D01*
X1396025Y753435D01*
X1396186Y752951D01*
X1396831Y752629D01*
X1398927Y750533D01*
X1400217Y748275D01*
X1400862Y747630D01*
X1401185Y745050D01*
X1401830Y743760D01*
X1401508Y742793D01*
X1401669Y740696D01*
X1401024Y738116D01*
X1400379Y736504D01*
X1396831Y734891D01*
X1394574Y735214D01*
X1392155Y736342D01*
X1391026Y738761D01*
X1390542Y738923D01*
X1389897Y741503D01*
X1388930Y742470D01*
X1388446Y744566D01*
X1387640Y745372D01*
X1386995Y746985D01*
X1386673Y747630D01*
X1385705Y748597D01*
X1384415Y750855D01*
X1383286Y752629D01*
X1382641Y752951D01*
X1381835Y754080D01*
X1380867Y755048D01*
X1380545Y755693D01*
X1378610Y757305D01*
X1377481Y758111D01*
X1377159Y758756D01*
X1376514Y759079D01*
X1375708Y760208D01*
X1375063Y760853D01*
X1374740Y762142D01*
X1375063Y763110D01*
X1375546Y763594D01*
X1379094Y763271D01*
D02*
G37*
G36*
X1347489Y761659D02*
X1347973Y761175D01*
X1348134Y760691D01*
X1349746Y759724D01*
X1351036Y758434D01*
X1351520Y758272D01*
X1351842Y757627D01*
X1352971Y756821D01*
X1353939Y755854D01*
X1355551Y754886D01*
X1358938Y751500D01*
X1359905Y749887D01*
X1360550Y749242D01*
X1360872Y748597D01*
X1362162Y747308D01*
X1362646Y745534D01*
X1363775Y744405D01*
X1363936Y739729D01*
X1363614Y736181D01*
X1363130Y735052D01*
X1361034Y732956D01*
X1359744Y732634D01*
X1356196Y732956D01*
X1355551Y733924D01*
X1355390Y734085D01*
X1354422Y735052D01*
X1354100Y736988D01*
X1353455Y737633D01*
X1353132Y739890D01*
X1352810Y741503D01*
X1351842Y742470D01*
X1351520Y743760D01*
X1351198Y745695D01*
X1349908Y746985D01*
X1349585Y748920D01*
X1348295Y750210D01*
X1347973Y751500D01*
X1347328Y752145D01*
X1345715Y755048D01*
X1344586Y757144D01*
X1344102Y757305D01*
X1343780Y758595D01*
X1343457Y760853D01*
X1344264Y761981D01*
X1347489Y761659D01*
D02*
G37*
G36*
X1298952Y762465D02*
X1298630Y748597D01*
X1297340Y745695D01*
X1297018Y743115D01*
X1295728Y741180D01*
X1295405Y739245D01*
X1294438Y738278D01*
X1293470Y736665D01*
X1292825Y736020D01*
X1292502Y735375D01*
X1291696Y734569D01*
X1290567Y734085D01*
X1290406Y733924D01*
X1289116Y732634D01*
X1282021Y732311D01*
X1280409Y733279D01*
X1279280Y735052D01*
X1278958Y736020D01*
X1279280Y738278D01*
X1279925Y738923D01*
X1281215Y741180D01*
X1283634Y743599D01*
X1284279Y743921D01*
X1285569Y745211D01*
X1286214Y745534D01*
X1287826Y747469D01*
X1289116Y749404D01*
X1289600Y749887D01*
X1290567Y751500D01*
X1291212Y752145D01*
X1291535Y754080D01*
X1292502Y755048D01*
X1292825Y757305D01*
X1294115Y760208D01*
X1294599Y762304D01*
X1295244Y763271D01*
X1297501Y763594D01*
X1298952Y762465D01*
D02*
G37*
G36*
X1319431Y762304D02*
X1321689Y761014D01*
X1322334Y759401D01*
X1323463Y758272D01*
X1323785Y757627D01*
X1324591Y756821D01*
X1324753Y756660D01*
X1325559Y754564D01*
X1326365Y753757D01*
X1327010Y751178D01*
X1327977Y750210D01*
X1328622Y745695D01*
X1328945Y744727D01*
X1329590Y743115D01*
X1329267Y736988D01*
X1328622Y735375D01*
X1328300Y734085D01*
X1327977Y733118D01*
X1325881Y731021D01*
X1323785Y730537D01*
X1321366Y730376D01*
X1319754Y731021D01*
X1319109Y731344D01*
X1317657Y732795D01*
X1317335Y735052D01*
X1317657Y743760D01*
X1318625Y746018D01*
X1318947Y748275D01*
X1318625Y752790D01*
X1317657Y755048D01*
X1317335Y758272D01*
X1316045Y760208D01*
X1316367Y761820D01*
X1316851Y762304D01*
X1318141Y762626D01*
X1319431Y762304D01*
D02*
G37*
G36*
X1355160Y711013D02*
X1356422Y710592D01*
X1357544Y710312D01*
X1361471Y710031D01*
X1362313Y709190D01*
X1363715Y708348D01*
X1363996Y707226D01*
X1364136Y705964D01*
X1363435Y704983D01*
X1362032Y704702D01*
X1361611Y704281D01*
X1361331Y703159D01*
X1361611Y690537D01*
X1362032Y690117D01*
X1383910Y690397D01*
X1384752Y692080D01*
X1385453Y692781D01*
X1385734Y693903D01*
X1386575Y694744D01*
X1387276Y696007D01*
X1388398Y695726D01*
X1390081Y694043D01*
X1390642Y693763D01*
X1391484Y692921D01*
X1392886Y692080D01*
X1393447Y691519D01*
X1394289Y691238D01*
X1395410Y690117D01*
X1395972Y689836D01*
X1397094Y688714D01*
X1397935Y688434D01*
X1398777Y687592D01*
X1400039Y686891D01*
X1400319Y686330D01*
X1401441Y685208D01*
X1401722Y683805D01*
X1402142Y682824D01*
X1400740Y681141D01*
X1399618Y680860D01*
X1393447Y680580D01*
X1392606Y679738D01*
X1390782Y679037D01*
X1389801Y678055D01*
X1389240Y677775D01*
X1387697Y676513D01*
X1381105Y669921D01*
X1379563Y669500D01*
X1379142Y669080D01*
X1378301Y668799D01*
X1377599Y669500D01*
X1377319Y670622D01*
X1377599Y672866D01*
X1378441Y673708D01*
X1379142Y675531D01*
X1379843Y676232D01*
X1380404Y677635D01*
X1381246Y678476D01*
Y678757D01*
X1381526Y679598D01*
X1381807Y680159D01*
X1382648Y681001D01*
X1383069Y682543D01*
X1384331Y683805D01*
X1383910Y684787D01*
X1361471Y684507D01*
X1361050Y683244D01*
X1361331Y682403D01*
X1361191Y658701D01*
X1361471Y657299D01*
X1362032Y656738D01*
X1363154Y656458D01*
X1376618Y656738D01*
X1377319Y657439D01*
X1377599Y658561D01*
X1378721Y659683D01*
X1380404Y662769D01*
X1381386Y662909D01*
X1381807Y662488D01*
X1382087Y661927D01*
X1383209Y661647D01*
X1383770Y661366D01*
X1384051Y660805D01*
X1385593Y659823D01*
X1386154Y659262D01*
X1387276Y658982D01*
X1387837Y658701D01*
X1388679Y657860D01*
X1390081Y657019D01*
X1392045Y655616D01*
X1392746Y654634D01*
X1393307Y653512D01*
X1392606Y652531D01*
X1392045Y652250D01*
X1390362Y651128D01*
X1388679Y650848D01*
X1388258Y650427D01*
X1387977Y649305D01*
X1387417Y648744D01*
X1387136Y648183D01*
X1386856Y647342D01*
X1386295Y645939D01*
X1385734Y645378D01*
X1385453Y644256D01*
X1384612Y642854D01*
X1384051Y642293D01*
X1383770Y640890D01*
X1382929Y640049D01*
X1382368Y638646D01*
X1381526Y637805D01*
X1381246Y636683D01*
X1380124Y635561D01*
X1379843Y634439D01*
X1379002Y633597D01*
X1378160Y632195D01*
X1377319Y631354D01*
X1377038Y630512D01*
X1375075Y627988D01*
X1373813Y626445D01*
X1372270Y624902D01*
X1371429Y623500D01*
X1369185Y621256D01*
X1369465Y619854D01*
X1370447Y619152D01*
X1372270Y618171D01*
X1372551Y617610D01*
X1373672Y617329D01*
X1374654Y616628D01*
X1375215Y616067D01*
X1376618Y615786D01*
X1377319Y615366D01*
X1377459Y614945D01*
X1378581Y614664D01*
X1379984Y613823D01*
X1381386Y613262D01*
X1382508Y612981D01*
X1383349Y612140D01*
X1385453Y611719D01*
X1387276Y610737D01*
X1389520Y610457D01*
X1390081Y609896D01*
X1391484Y609335D01*
X1394569Y609055D01*
X1396532Y608213D01*
X1398496Y607933D01*
X1401862Y607652D01*
X1402283Y607231D01*
X1401020Y605689D01*
X1400039Y604707D01*
X1399898Y604286D01*
X1399337Y604006D01*
X1398917Y603585D01*
X1398636Y603024D01*
X1397514Y601902D01*
X1397234Y601341D01*
X1396392Y600500D01*
X1395972Y598957D01*
X1394990Y597975D01*
X1394709Y597414D01*
X1393728Y597274D01*
X1392606Y598396D01*
X1389941Y598817D01*
X1389520Y599237D01*
X1388959Y599518D01*
X1388118Y599798D01*
X1386996Y600079D01*
X1383910Y601481D01*
X1383349Y601762D01*
X1382789Y602323D01*
X1381667Y602603D01*
X1380264Y603445D01*
X1378862Y604006D01*
X1377459Y604847D01*
X1375496Y605969D01*
X1374935Y606530D01*
X1373813Y606811D01*
X1372691Y607933D01*
X1371569Y608213D01*
X1370727Y609055D01*
X1369325Y609896D01*
X1368764Y610457D01*
X1366801Y611579D01*
X1365258Y612841D01*
X1364837Y613262D01*
X1364276Y613543D01*
X1363715Y614103D01*
X1363014Y614244D01*
X1360630Y612701D01*
X1360069Y612140D01*
X1358666Y611298D01*
X1358105Y610737D01*
X1357544Y610457D01*
X1356703Y609616D01*
X1352776Y607372D01*
X1352215Y606811D01*
X1351093Y606530D01*
X1349971Y605408D01*
X1348428Y604987D01*
X1347447Y604006D01*
X1345764Y603725D01*
X1345343Y603304D01*
X1345203Y602884D01*
X1342959Y602323D01*
X1342678Y601762D01*
X1341276Y601201D01*
X1340154Y600920D01*
X1339593Y600359D01*
X1337630Y599798D01*
X1336508Y599518D01*
X1335947Y598957D01*
X1334825Y598676D01*
X1333142Y598396D01*
X1332581Y597835D01*
X1331178Y597274D01*
X1329215Y596993D01*
X1327812Y596152D01*
X1326690Y595872D01*
X1324446Y595591D01*
X1323885Y595030D01*
X1322483Y594469D01*
X1319397Y594189D01*
X1318556Y593908D01*
X1316032Y594189D01*
X1315611Y594609D01*
X1315891Y596853D01*
X1318135Y598256D01*
X1320379Y598817D01*
X1321080Y599518D01*
X1323324Y600079D01*
X1324166Y600920D01*
X1325288Y601201D01*
X1326690Y601481D01*
X1328373Y602603D01*
X1329776Y602884D01*
X1330617Y603725D01*
X1331739Y604006D01*
X1332581Y604286D01*
X1333142Y604847D01*
X1335385Y605689D01*
X1335947Y606250D01*
X1337068Y606530D01*
X1338471Y607372D01*
X1340995Y608774D01*
X1341556Y609335D01*
X1342959Y609616D01*
X1343800Y610457D01*
X1345203Y611018D01*
X1346044Y611860D01*
X1347166Y612140D01*
X1348288Y613262D01*
X1350251Y614384D01*
X1351654Y615225D01*
X1352496Y616067D01*
X1353056Y616347D01*
X1354178Y617469D01*
X1354739Y617750D01*
X1355300Y618311D01*
X1356843Y619012D01*
X1357124Y619854D01*
X1355721Y621817D01*
X1355441Y622378D01*
X1354319Y623500D01*
X1354178Y623921D01*
X1353617Y624201D01*
X1352776Y625603D01*
X1352215Y625884D01*
X1351093Y627567D01*
X1350672Y627988D01*
X1350392Y628829D01*
X1349270Y629951D01*
X1348428Y631354D01*
X1347306Y633317D01*
X1346745Y633878D01*
X1345623Y635841D01*
X1344221Y638366D01*
X1343940Y639207D01*
X1343099Y640610D01*
X1342538Y642012D01*
X1341697Y643415D01*
X1341136Y644817D01*
X1340855Y646220D01*
X1340014Y647061D01*
X1339733Y648183D01*
X1339453Y649585D01*
X1338892Y650146D01*
X1338611Y650707D01*
X1338190Y651409D01*
X1335947Y651970D01*
X1333142Y651689D01*
X1332440Y650988D01*
X1332160Y649866D01*
X1332440Y647342D01*
X1332160Y646500D01*
X1332300Y644397D01*
X1332160Y642573D01*
X1332440Y641732D01*
X1332160Y640610D01*
X1331879Y637805D01*
X1331599Y633317D01*
X1331318Y631634D01*
X1330477Y629671D01*
X1330056Y626726D01*
X1329635Y625744D01*
X1329075Y624341D01*
X1328794Y622658D01*
X1327672Y620975D01*
X1327392Y619292D01*
X1326550Y618451D01*
X1326270Y617329D01*
X1325428Y615927D01*
X1324026Y613402D01*
X1322904Y611439D01*
X1322343Y610878D01*
X1322062Y610036D01*
X1320940Y608914D01*
X1320660Y608353D01*
X1319818Y607512D01*
X1318696Y605549D01*
X1317013Y603866D01*
X1316733Y603304D01*
X1312105Y598676D01*
X1309440Y598536D01*
X1308879Y598817D01*
X1308599Y599939D01*
X1309160Y602183D01*
X1310282Y603304D01*
X1311123Y604707D01*
X1312245Y606670D01*
X1312806Y607231D01*
X1313367Y608634D01*
X1314209Y609475D01*
X1314489Y610878D01*
X1315330Y611719D01*
X1315611Y612841D01*
X1315891Y613402D01*
X1316733Y614805D01*
X1317434Y616628D01*
X1318135Y617329D01*
X1318416Y619573D01*
X1319538Y620695D01*
X1319818Y623219D01*
X1320660Y624622D01*
X1320940Y625744D01*
X1321221Y628268D01*
X1321782Y628829D01*
X1322062Y629951D01*
X1322623Y635561D01*
X1322904Y636403D01*
X1323324Y638226D01*
X1323605Y681982D01*
X1323745Y683525D01*
X1323044Y684507D01*
X1322483Y684226D01*
X1321642Y682543D01*
X1321221Y682122D01*
X1320940Y681001D01*
X1320660Y678757D01*
X1319818Y677354D01*
X1319538Y676232D01*
X1319257Y674549D01*
X1318416Y673147D01*
X1318135Y672025D01*
X1317855Y670061D01*
X1317294Y669500D01*
X1317013Y668378D01*
X1316593Y666275D01*
X1316172Y665854D01*
X1315611Y664452D01*
X1315330Y661927D01*
X1314489Y661086D01*
X1314209Y659964D01*
X1313928Y657720D01*
X1313087Y656878D01*
X1312806Y654915D01*
X1312525Y653232D01*
X1311684Y652390D01*
X1311263Y649726D01*
X1310282Y647903D01*
X1309721Y644537D01*
X1309160Y643976D01*
X1308318Y640610D01*
X1307477Y638646D01*
X1307196Y636683D01*
X1306355Y635280D01*
X1306074Y634159D01*
X1305654Y632616D01*
X1305233Y632195D01*
X1304672Y628268D01*
X1304952Y614805D01*
X1305233Y613963D01*
X1305513Y612280D01*
X1306074Y611719D01*
X1306355Y599658D01*
X1305934Y597274D01*
X1304672Y596012D01*
X1304391Y595451D01*
X1303690Y594750D01*
X1301727Y594469D01*
X1297239Y594750D01*
X1296117Y595872D01*
X1295696Y596012D01*
X1295135Y597414D01*
X1294855Y597975D01*
X1294013Y599939D01*
X1294294Y601061D01*
X1294574Y605549D01*
X1295416Y607512D01*
X1295696Y612000D01*
X1296257Y613402D01*
X1296537Y617049D01*
X1296257Y622939D01*
X1295416Y624902D01*
X1295135Y625463D01*
X1293592Y627006D01*
X1291068Y628128D01*
X1288263Y628409D01*
X1287702Y628969D01*
X1286159Y629671D01*
X1285879Y630793D01*
X1286300Y632335D01*
X1286861Y632896D01*
X1289245Y632756D01*
X1297379Y633037D01*
X1298221Y633878D01*
X1299342Y636403D01*
X1299763Y638226D01*
X1300745Y640049D01*
X1301025Y642012D01*
X1301586Y642573D01*
X1302147Y643976D01*
X1302428Y645659D01*
X1302989Y646220D01*
X1303550Y647622D01*
X1303830Y649585D01*
X1304391Y650146D01*
X1304952Y652110D01*
X1305233Y653232D01*
X1306074Y654073D01*
X1306355Y656598D01*
X1307196Y657439D01*
X1307477Y658561D01*
X1307757Y660244D01*
X1308599Y661086D01*
X1308879Y663049D01*
X1310282Y666134D01*
X1310562Y667817D01*
X1311123Y668378D01*
X1311684Y670622D01*
X1312806Y673147D01*
X1313087Y674830D01*
X1314209Y676513D01*
X1314489Y678757D01*
X1315050Y679317D01*
X1315611Y680720D01*
X1315891Y682403D01*
X1317013Y684086D01*
X1317294Y686330D01*
X1318276Y687311D01*
X1318837Y687592D01*
X1319678Y688434D01*
X1320379Y688574D01*
X1321361Y688153D01*
X1322763Y687592D01*
X1323324Y687872D01*
X1323605Y693763D01*
X1324166Y694324D01*
X1325568Y693763D01*
X1326129Y693202D01*
X1328373Y692360D01*
X1328934Y691799D01*
X1331459Y690397D01*
X1332300Y690117D01*
X1351654Y690397D01*
X1352075Y690818D01*
X1352215Y711434D01*
X1353337Y711714D01*
X1355160Y711013D01*
D02*
G37*
G36*
X1298641Y705824D02*
X1299202Y705263D01*
X1300324Y704983D01*
X1301867Y704562D01*
X1302568Y703860D01*
X1303690Y703580D01*
X1305092Y702738D01*
X1306495Y702178D01*
X1307336Y701897D01*
X1307757Y701476D01*
X1307897Y701056D01*
X1309300Y700495D01*
X1310141Y699653D01*
X1311404Y698952D01*
X1311684Y698391D01*
X1312105Y697970D01*
X1312666Y697690D01*
X1313647Y696147D01*
X1314209Y694744D01*
X1315330Y692220D01*
X1315611Y691098D01*
X1315330Y690257D01*
X1315050Y688854D01*
X1314489Y688293D01*
X1314209Y687732D01*
X1313227Y686470D01*
X1312105Y686190D01*
X1309019Y686470D01*
X1307897Y687592D01*
X1307336Y687872D01*
X1306355Y688854D01*
X1305233Y690818D01*
X1304952Y691659D01*
X1304391Y693062D01*
X1303830Y693623D01*
X1303550Y694744D01*
X1303269Y695305D01*
X1302428Y696147D01*
X1301586Y697550D01*
X1300745Y698391D01*
X1300464Y698952D01*
X1298361Y701056D01*
X1297800Y701336D01*
X1296678Y702458D01*
X1296117Y702738D01*
X1295696Y703159D01*
X1295416Y704281D01*
X1295275Y704421D01*
X1294855Y705403D01*
X1295556Y706104D01*
X1298641Y705824D01*
D02*
G37*
G36*
X1289385Y676933D02*
X1290507Y676653D01*
X1292470Y676372D01*
X1292751Y676092D01*
X1292891Y675952D01*
X1293312Y675531D01*
X1294434Y675250D01*
X1295416Y674830D01*
X1295696Y674269D01*
X1297800Y673287D01*
X1298641Y672446D01*
X1299202Y672165D01*
X1302147Y669220D01*
X1302428Y668659D01*
X1303550Y667537D01*
X1304391Y666134D01*
X1304672Y665293D01*
X1305373Y663470D01*
X1305513Y661366D01*
X1305233Y660525D01*
X1304952Y659122D01*
X1303970Y657860D01*
X1302007Y657579D01*
X1298641Y657860D01*
X1296818Y659683D01*
X1295416Y662769D01*
X1295135Y664171D01*
X1294294Y665013D01*
X1293873Y666555D01*
X1292891Y667537D01*
X1292611Y668098D01*
X1291489Y669220D01*
X1291208Y669781D01*
X1290086Y670903D01*
X1289806Y671464D01*
X1289245Y671744D01*
X1288964Y672305D01*
X1287562Y673147D01*
X1287281Y673708D01*
X1286861Y674128D01*
X1286300Y674409D01*
X1285879Y675671D01*
X1286720Y677074D01*
X1288544Y677214D01*
X1289385Y676933D01*
D02*
G37*
%LPC*%
G36*
X1375869Y850024D02*
X1347166Y849701D01*
X1346682Y849218D01*
Y836318D01*
Y835995D01*
X1347005Y835350D01*
X1347489Y834866D01*
X1377159Y835189D01*
X1377643Y836640D01*
X1377320Y849540D01*
X1375869Y850024D01*
D02*
G37*
G36*
X1334266D02*
X1305241Y849701D01*
X1305080Y835350D01*
X1305564Y834866D01*
X1318464D01*
X1335556Y835189D01*
X1336040Y836640D01*
X1335717Y849540D01*
X1334266Y850024D01*
D02*
G37*
G36*
X1333944Y829384D02*
X1305564Y829061D01*
X1305080Y828577D01*
X1304758Y826643D01*
X1305080Y825675D01*
X1304919Y815194D01*
X1305886Y814226D01*
X1310079Y814549D01*
X1335072Y814388D01*
X1336040Y815033D01*
Y822128D01*
Y822450D01*
X1335717Y828577D01*
X1335234Y829061D01*
X1333944Y829384D01*
D02*
G37*
G36*
X1375546D02*
X1347166Y829061D01*
X1346682Y827610D01*
X1347005Y814710D01*
X1348456Y814226D01*
X1350714Y814549D01*
X1371192Y814388D01*
X1373611Y814549D01*
X1373772Y814388D01*
X1376191Y814226D01*
X1377804Y815194D01*
X1377965Y816645D01*
X1377643Y817613D01*
X1377804Y821966D01*
X1377643Y826320D01*
X1377965Y827288D01*
X1376998Y828900D01*
X1375546Y829384D01*
D02*
G37*
G36*
X1351373Y684787D02*
X1332581Y684507D01*
X1332160Y683244D01*
X1332440Y682122D01*
X1332300Y680860D01*
X1332440Y679317D01*
X1332160Y678476D01*
X1332440Y673708D01*
X1332160Y672866D01*
X1332440Y669220D01*
X1332300Y662067D01*
X1332440Y659683D01*
X1332160Y658842D01*
X1333282Y656878D01*
X1334544Y656458D01*
X1335806Y656598D01*
X1337068Y656458D01*
X1337910Y656738D01*
X1338751Y656458D01*
X1342398Y656738D01*
X1348849Y656458D01*
X1349691Y656738D01*
X1350532Y656458D01*
X1351654Y656738D01*
X1351794Y657159D01*
Y657439D01*
X1352075Y658281D01*
X1351794Y684366D01*
X1351373Y684787D01*
D02*
G37*
G36*
X1365117Y651970D02*
X1356422Y651689D01*
X1346465Y651830D01*
X1345343Y651549D01*
X1344221Y650707D01*
X1345063Y648744D01*
X1346184Y646781D01*
X1346745Y645098D01*
X1347306Y644537D01*
X1347867Y643134D01*
X1348148Y642573D01*
X1348709Y642012D01*
X1350111Y639488D01*
X1350532Y638506D01*
X1350672Y638366D01*
X1350953Y637805D01*
X1351794Y636963D01*
X1352075Y636122D01*
X1353477Y634159D01*
X1353617Y633738D01*
X1354178Y633457D01*
X1354880Y632476D01*
X1355721Y631634D01*
X1356002Y631073D01*
X1357124Y629951D01*
X1357404Y629390D01*
X1358947Y627848D01*
X1359368Y627707D01*
X1359508Y627286D01*
X1360069Y627006D01*
X1361050Y626305D01*
X1361331Y625744D01*
X1362313Y625603D01*
X1363855Y627146D01*
X1364136Y627707D01*
X1365258Y628829D01*
X1366099Y630232D01*
X1367502Y632195D01*
X1368063Y632756D01*
X1368343Y633317D01*
X1369185Y634159D01*
X1369886Y635982D01*
X1370447Y636262D01*
X1371429Y637805D01*
X1371990Y638366D01*
X1372410Y639909D01*
X1373392Y640890D01*
X1373672Y642293D01*
X1374514Y643134D01*
X1375075Y645378D01*
X1375916Y646220D01*
X1376197Y647342D01*
X1376477Y649025D01*
X1377319Y649866D01*
X1377038Y651268D01*
X1376618Y651689D01*
X1375356Y651830D01*
X1365959Y651689D01*
X1365117Y651970D01*
D02*
G37*
%LPD*%
D10*
X582350Y597860D02*
G03*
X583070Y597860I360J0D01*
G01*
D02*
G03*
X582350Y597860I-360J0D01*
G01*
D11*
X1199880Y918160D02*
G03*
X1199880Y918160I-1000J0D01*
G01*
X573490Y622540D02*
Y652540D01*
X663490Y622540D02*
Y652540D01*
X651720D02*
X663490D01*
X573490D02*
X585260D01*
X651720Y622540D02*
X663490D01*
X573490D02*
X585260D01*
D12*
X728780Y911660D02*
X1272780D01*
Y632660D02*
Y911660D01*
X728780Y632660D02*
X1272780D01*
X728780D02*
Y911660D01*
D13*
X1003300Y603807D02*
Y607617D01*
X1018540Y601267D02*
Y607617D01*
X974408Y603807D02*
Y607617D01*
X989648Y601267D02*
Y607617D01*
X960755Y601267D02*
Y607617D01*
X945515Y603807D02*
Y607617D01*
X931862Y601267D02*
Y607617D01*
X916622Y603807D02*
Y607617D01*
X902970Y601267D02*
Y607617D01*
X887730Y603807D02*
Y607617D01*
X519415Y628830D02*
Y632640D01*
X534655Y626290D02*
Y632640D01*
D14*
X786972Y604402D02*
Y614399D01*
X791970D01*
X793636Y612732D01*
Y609400D01*
X791970Y607734D01*
X786972D01*
X790304D02*
X793636Y604402D01*
X803633D02*
X796968D01*
X803633Y611066D01*
Y612732D01*
X801967Y614399D01*
X798634D01*
X796968Y612732D01*
X604517Y813303D02*
X599438D01*
X601978D01*
Y800607D01*
X599438Y798068D01*
X596899D01*
X594360Y800607D01*
X609595Y813303D02*
X619752D01*
Y810764D01*
X609595Y800607D01*
Y798068D01*
X561337Y813049D02*
X556258D01*
X558797D01*
Y800353D01*
X556258Y797814D01*
X553719D01*
X551180Y800353D01*
X576572Y813049D02*
X571493Y810510D01*
X566415Y805432D01*
Y800353D01*
X568954Y797814D01*
X574033D01*
X576572Y800353D01*
Y802892D01*
X574033Y805432D01*
X566415D01*
X524507Y813049D02*
X519428D01*
X521968D01*
Y800353D01*
X519428Y797814D01*
X516889D01*
X514350Y800353D01*
X539742Y813049D02*
X529585D01*
Y805432D01*
X534663Y807971D01*
X537203D01*
X539742Y805432D01*
Y800353D01*
X537203Y797814D01*
X532124D01*
X529585Y800353D01*
X688337Y917951D02*
X683258D01*
X685798D01*
Y905255D01*
X683258Y902716D01*
X680719D01*
X678180Y905255D01*
X701033Y902716D02*
Y917951D01*
X693415Y910333D01*
X703572D01*
X712156Y876218D02*
Y867888D01*
X713822Y866222D01*
X717154D01*
X718820Y867888D01*
Y876218D01*
X722152Y866222D02*
X725484D01*
X723818D01*
Y876218D01*
X722152Y874552D01*
X570230Y673892D02*
X568564Y675558D01*
X565232D01*
X563565Y673892D01*
Y672226D01*
X565232Y670560D01*
X568564D01*
X570230Y668894D01*
Y667228D01*
X568564Y665562D01*
X565232D01*
X563565Y667228D01*
X573562Y665562D02*
X576894D01*
X575228D01*
Y675558D01*
X573562Y673892D01*
X686674Y798748D02*
X683342D01*
X685008D01*
Y790418D01*
X683342Y788752D01*
X681675D01*
X680009Y790418D01*
X690006D02*
X691672Y788752D01*
X695005D01*
X696671Y790418D01*
Y797082D01*
X695005Y798748D01*
X691672D01*
X690006Y797082D01*
Y795416D01*
X691672Y793750D01*
X696671D01*
X644764Y798748D02*
X641432D01*
X643098D01*
Y790418D01*
X641432Y788752D01*
X639766D01*
X638099Y790418D01*
X648096Y797082D02*
X649762Y798748D01*
X653094D01*
X654761Y797082D01*
Y795416D01*
X653094Y793750D01*
X654761Y792084D01*
Y790418D01*
X653094Y788752D01*
X649762D01*
X648096Y790418D01*
Y792084D01*
X649762Y793750D01*
X648096Y795416D01*
Y797082D01*
X649762Y793750D02*
X653094D01*
X644764Y905428D02*
X641432D01*
X643098D01*
Y897098D01*
X641432Y895432D01*
X639766D01*
X638099Y897098D01*
X648096Y903762D02*
X649762Y905428D01*
X653094D01*
X654761Y903762D01*
Y902096D01*
X653094Y900430D01*
X651428D01*
X653094D01*
X654761Y898764D01*
Y897098D01*
X653094Y895432D01*
X649762D01*
X648096Y897098D01*
X602854Y905428D02*
X599522D01*
X601188D01*
Y897098D01*
X599522Y895432D01*
X597855D01*
X596189Y897098D01*
X612851Y895432D02*
X606186D01*
X612851Y902096D01*
Y903762D01*
X611185Y905428D01*
X607852D01*
X606186Y903762D01*
X561340Y905428D02*
X558008D01*
X559674D01*
Y897098D01*
X558008Y895432D01*
X556342D01*
X554675Y897098D01*
X564672Y895432D02*
X568004D01*
X566338D01*
Y905428D01*
X564672Y903762D01*
X517906Y668619D02*
Y658622D01*
X522904D01*
X524571Y660288D01*
Y666953D01*
X522904Y668619D01*
X517906D01*
X534567D02*
X531235Y666953D01*
X527903Y663620D01*
Y660288D01*
X529569Y658622D01*
X532901D01*
X534567Y660288D01*
Y661954D01*
X532901Y663620D01*
X527903D01*
X1001319Y632378D02*
Y622382D01*
X1006318D01*
X1007984Y624048D01*
Y630712D01*
X1006318Y632378D01*
X1001319D01*
X1017981D02*
X1011316D01*
Y627380D01*
X1014648Y629046D01*
X1016314D01*
X1017981Y627380D01*
Y624048D01*
X1016314Y622382D01*
X1012982D01*
X1011316Y624048D01*
X973379Y632378D02*
Y622382D01*
X978378D01*
X980044Y624048D01*
Y630712D01*
X978378Y632378D01*
X973379D01*
X988374Y622382D02*
Y632378D01*
X983376Y627380D01*
X990041D01*
X944169Y632378D02*
Y622382D01*
X949168D01*
X950834Y624048D01*
Y630712D01*
X949168Y632378D01*
X944169D01*
X954166Y630712D02*
X955832Y632378D01*
X959165D01*
X960831Y630712D01*
Y629046D01*
X959165Y627380D01*
X957498D01*
X959165D01*
X960831Y625714D01*
Y624048D01*
X959165Y622382D01*
X955832D01*
X954166Y624048D01*
X914959Y632378D02*
Y622382D01*
X919958D01*
X921624Y624048D01*
Y630712D01*
X919958Y632378D01*
X914959D01*
X931621Y622382D02*
X924956D01*
X931621Y629046D01*
Y630712D01*
X929955Y632378D01*
X926622D01*
X924956Y630712D01*
X888686Y632378D02*
Y622382D01*
X893684D01*
X895350Y624048D01*
Y630712D01*
X893684Y632378D01*
X888686D01*
X898682Y622382D02*
X902014D01*
X900348D01*
Y632378D01*
X898682Y630712D01*
X849630Y614202D02*
X847964Y615868D01*
X844632D01*
X842965Y614202D01*
Y607538D01*
X844632Y605872D01*
X847964D01*
X849630Y607538D01*
X852962Y605872D02*
X856294D01*
X854628D01*
Y615868D01*
X852962Y614202D01*
M02*
