M48
;Layer_Color=9474304
;FILE_FORMAT=4:4
METRIC,LZ
;TYPE=PLATED
T1F00S00C0.3000
T2F00S00C0.5000
T3F00S00C1.0400
T4F00S00C1.2800
T5F00S00C3.0000
%
T01
X0089535Y0058166
X0092329
X009525
X0098171
X0101092
T02
X00799465Y0061468
X00821182Y0059563
X0082931Y0065913
X0103759Y0061722
X00777748Y0059563
X00756031Y0061468
X00734314Y0059563
X00712597Y0061468
X0069088Y0059563
X004953Y0064516
Y0084963
X005207
X00508Y0086233
X01109218Y008382
X01130935Y0085725
X01152652Y008382
X01174369Y0085725
X01196086Y008382
X01217803Y0085725
X0123952Y008382
T03
X0119888Y0064516
X0117348
X0114808
X0112268
X0109728
X0107188
X0104648
X0102108
X0099568
X0097028
X0094488
X0091948
X0089408
X0086868
X0084328
X0081788
X0079248
X0076708
X0074168
Y0089916
X0076708
X0079248
X0081788
X0084328
X0086868
X0089408
X0091948
X0094488
X0097028
X0099568
X0102108
X0104648
X0107188
X0109728
X0112268
X0114808
X0117348
X0119888
T04
X0051943Y0072238
Y0074803
Y0077368
X0056261Y0077351
Y0074786
Y0072221
X0060579
Y0074786
Y0077351
X006477Y0077351
Y0074786
Y0072221
X0068961Y0072263
Y0074828
Y0077393
Y0082804
Y0085369
Y0087934
X006477
Y0085369
Y0082804
X0060579
Y0085369
Y0087934
X0056261
Y0085369
Y0082804
T05
X0051308Y0089789
X0139319
M30
