G04*
G04 #@! TF.GenerationSoftware,Altium Limited,Altium Designer,22.5.1 (42)*
G04*
G04 Layer_Color=16711935*
%FSLAX44Y44*%
%MOMM*%
G71*
G04*
G04 #@! TF.SameCoordinates,6AFA5DE7-E917-4A20-8E33-DC7232792B34*
G04*
G04*
G04 #@! TF.FilePolarity,Positive*
G04*
G01*
G75*
%ADD11C,0.2000*%
%ADD12C,0.1270*%
%ADD67C,0.1000*%
D11*
X1199880Y918160D02*
G03*
X1199880Y918160I-1000J0D01*
G01*
X573490Y652540D02*
X663490D01*
Y622540D02*
Y652540D01*
X573490Y622540D02*
X663490D01*
X573490D02*
Y652540D01*
D12*
X1272780Y632660D02*
Y911660D01*
X728780Y632660D02*
X1272780D01*
X728780D02*
Y911660D01*
X1272780D01*
D67*
X1308257Y867860D02*
X1357257D01*
Y828860D02*
Y867860D01*
X1308257Y855160D02*
X1320957Y867860D01*
X1308257Y828860D02*
Y867860D01*
Y828860D02*
X1357257D01*
X1380970Y819918D02*
Y841417D01*
X1367470Y819918D02*
Y841417D01*
Y819918D02*
X1380970D01*
X1367470Y841417D02*
X1380970D01*
X1389850Y848050D02*
X1416850D01*
X1389850Y814050D02*
X1416850D01*
X1389850D02*
Y848050D01*
X1416850Y814050D02*
Y848050D01*
X919960Y876980D02*
X1009960D01*
X919960Y771480D02*
X1009960D01*
Y876980D01*
X919960Y771480D02*
Y876980D01*
X1375600Y855450D02*
Y871450D01*
X1367600Y855450D02*
X1375600D01*
X1367600D02*
Y871450D01*
X1375600D01*
X495210Y800200D02*
Y812700D01*
X515710D01*
Y800200D02*
Y812700D01*
X495210Y800200D02*
X515710D01*
X828830Y828720D02*
X842330D01*
X828830Y850220D02*
X842330D01*
Y828720D02*
Y850220D01*
X828830Y828720D02*
Y850220D01*
X851580Y743900D02*
Y757400D01*
X873080Y743900D02*
Y757400D01*
X851580Y743900D02*
X873080D01*
X851580Y757400D02*
X873080D01*
X828930Y697420D02*
X844930D01*
Y689420D02*
Y697420D01*
X828930Y689420D02*
X844930D01*
X828930D02*
Y697420D01*
X888470Y669100D02*
X904470D01*
X888470D02*
Y677100D01*
X904470D01*
Y669100D02*
Y677100D01*
X1004670Y594270D02*
X1017170D01*
X1004670D02*
Y614770D01*
X1017170D01*
Y594270D02*
Y614770D01*
X975460Y594270D02*
X987960D01*
X975460D02*
Y614770D01*
X987960D01*
Y594270D02*
Y614770D01*
X947366Y593154D02*
X959866D01*
X947366D02*
Y613654D01*
X959866D01*
Y593154D02*
Y613654D01*
X918310Y593000D02*
X930810D01*
X918310D02*
Y613500D01*
X930810D01*
Y593000D02*
Y613500D01*
X889100Y594270D02*
X901600D01*
X889100D02*
Y614770D01*
X901600D01*
Y594270D02*
Y614770D01*
X1066610Y658900D02*
X1074610D01*
Y674900D01*
X1066610D02*
X1074610D01*
X1066610Y658900D02*
Y674900D01*
X1259650Y639550D02*
Y655550D01*
X1267650D01*
Y639550D02*
Y655550D01*
X1259650Y639550D02*
X1267650D01*
X1052600Y611950D02*
Y619950D01*
X1068600D01*
Y611950D02*
Y619950D01*
X1052600Y611950D02*
X1068600D01*
X1275550Y658640D02*
X1302550D01*
X1275550Y692640D02*
X1302550D01*
Y658640D02*
Y692640D01*
X1275550Y658640D02*
Y692640D01*
X1311430Y668700D02*
X1324930D01*
X1311430Y690200D02*
X1324930D01*
Y668700D02*
Y690200D01*
X1311430Y668700D02*
Y690200D01*
X1336180Y594140D02*
Y643140D01*
X1297180Y594140D02*
X1336180D01*
X1297180Y606840D02*
X1309880Y594140D01*
X1297180Y643140D02*
X1336180D01*
X1297180Y594140D02*
Y643140D01*
X1049700Y588800D02*
X1071200D01*
X1049700Y602300D02*
X1071200D01*
Y588800D02*
Y602300D01*
X1049700Y588800D02*
Y602300D01*
M02*
