G04*
G04 #@! TF.GenerationSoftware,Altium Limited,Altium Designer,22.5.1 (42)*
G04*
G04 Layer_Color=128*
%FSLAX44Y44*%
%MOMM*%
G71*
G04*
G04 #@! TF.SameCoordinates,6AFA5DE7-E917-4A20-8E33-DC7232792B34*
G04*
G04*
G04 #@! TF.FilePolarity,Positive*
G04*
G01*
G75*
%ADD17R,0.9000X1.0000*%
%ADD18R,1.0000X1.4000*%
%ADD33R,3.1000X2.4000*%
G04:AMPARAMS|DCode=34|XSize=2.15mm|YSize=0.6mm|CornerRadius=0.15mm|HoleSize=0mm|Usage=FLASHONLY|Rotation=270.000|XOffset=0mm|YOffset=0mm|HoleType=Round|Shape=RoundedRectangle|*
%AMROUNDEDRECTD34*
21,1,2.1500,0.3000,0,0,270.0*
21,1,1.8500,0.6000,0,0,270.0*
1,1,0.3000,-0.1500,-0.9250*
1,1,0.3000,-0.1500,0.9250*
1,1,0.3000,0.1500,0.9250*
1,1,0.3000,0.1500,-0.9250*
%
%ADD34ROUNDEDRECTD34*%
%ADD35R,4.0000X4.0000*%
%ADD36R,1.4000X1.0000*%
%ADD37R,2.6000X1.1000*%
%ADD38R,8.5000X10.6500*%
%ADD39R,3.5000X1.4500*%
%ADD40R,1.0000X1.1000*%
%ADD41R,0.9500X1.4500*%
%ADD42O,0.6000X1.4500*%
%ADD43R,1.4500X0.9500*%
%ADD44R,1.0000X0.9000*%
%ADD45R,3.5000X3.5000*%
G04:AMPARAMS|DCode=46|XSize=2.15mm|YSize=0.6mm|CornerRadius=0.15mm|HoleSize=0mm|Usage=FLASHONLY|Rotation=0.000|XOffset=0mm|YOffset=0mm|HoleType=Round|Shape=RoundedRectangle|*
%AMROUNDEDRECTD46*
21,1,2.1500,0.3000,0,0,0.0*
21,1,1.8500,0.6000,0,0,0.0*
1,1,0.3000,0.9250,-0.1500*
1,1,0.3000,-0.9250,-0.1500*
1,1,0.3000,-0.9250,0.1500*
1,1,0.3000,0.9250,0.1500*
%
%ADD46ROUNDEDRECTD46*%
%ADD47R,2.4000X3.1000*%
D17*
X830430Y693420D02*
D03*
X843430D02*
D03*
X902970Y673100D02*
D03*
X889970D02*
D03*
D18*
X853830Y750650D02*
D03*
X870830D02*
D03*
D33*
X1332757Y848360D02*
D03*
D34*
X1351607Y820110D02*
D03*
X1339007D02*
D03*
X1326257D02*
D03*
X1313507D02*
D03*
X1326207Y876610D02*
D03*
X1313507D02*
D03*
X1338907D02*
D03*
X1351607D02*
D03*
D35*
X1398270Y596900D02*
D03*
X1360170Y781050D02*
D03*
X1305560D02*
D03*
X1398270Y647700D02*
D03*
D36*
X1374220Y822168D02*
D03*
Y839167D02*
D03*
X835580Y830970D02*
D03*
Y847970D02*
D03*
X1318180Y670950D02*
D03*
Y687950D02*
D03*
D37*
X1403350Y844550D02*
D03*
Y817550D02*
D03*
X1289050Y662140D02*
D03*
Y689140D02*
D03*
D38*
X988960Y824230D02*
D03*
D39*
X885960Y849630D02*
D03*
Y798830D02*
D03*
D40*
X1371600Y869950D02*
D03*
Y856950D02*
D03*
X1263650Y641050D02*
D03*
Y654050D02*
D03*
D41*
X515460Y806450D02*
D03*
X495460D02*
D03*
D42*
X928370Y694110D02*
D03*
X902970D02*
D03*
X890270D02*
D03*
X928370Y748610D02*
D03*
X915670D02*
D03*
X902970D02*
D03*
X890270D02*
D03*
X915670Y694110D02*
D03*
D43*
X1010920Y614520D02*
D03*
Y594520D02*
D03*
X981710Y614520D02*
D03*
Y594520D02*
D03*
X953616Y613404D02*
D03*
Y593404D02*
D03*
X924560Y613250D02*
D03*
Y593250D02*
D03*
X895350Y614520D02*
D03*
Y594520D02*
D03*
D44*
X1070610Y673400D02*
D03*
Y660400D02*
D03*
D45*
X1104900Y700169D02*
D03*
Y802640D02*
D03*
D46*
X1288430Y637490D02*
D03*
Y624790D02*
D03*
Y599390D02*
D03*
Y612090D02*
D03*
X1344930Y599390D02*
D03*
Y612140D02*
D03*
Y624890D02*
D03*
Y637490D02*
D03*
D47*
X1316680Y618640D02*
D03*
M02*
