G04*
G04 #@! TF.GenerationSoftware,Altium Limited,Altium Designer,22.5.1 (42)*
G04*
G04 Layer_Color=32896*
%FSLAX44Y44*%
%MOMM*%
G71*
G04*
G04 #@! TF.SameCoordinates,6AFA5DE7-E917-4A20-8E33-DC7232792B34*
G04*
G04*
G04 #@! TF.FilePolarity,Positive*
G04*
G01*
G75*
%ADD66C,0.0250*%
D66*
X946330Y593348D02*
X958830D01*
X946330Y597347D02*
X958830D01*
Y593348D02*
Y597347D01*
X946330Y593348D02*
X958830D01*
X946330D02*
Y597347D01*
X888545Y593348D02*
X901045D01*
X888545Y597347D02*
X901045D01*
Y593348D02*
Y597347D01*
X888545Y593348D02*
X901045D01*
X888545D02*
Y597347D01*
X975222Y593348D02*
Y597347D01*
Y593348D02*
X987722D01*
Y597347D01*
X975222D02*
X987722D01*
X975222Y593348D02*
X987722D01*
X1004115D02*
Y597347D01*
Y593348D02*
X1016615D01*
Y597347D01*
X1004115D02*
X1016615D01*
X1004115Y593348D02*
X1016615D01*
X917438D02*
X929938D01*
X917438Y597347D02*
X929938D01*
Y593348D02*
Y597347D01*
X917438Y593348D02*
X929938D01*
X917438D02*
Y597347D01*
X520230Y618370D02*
X532730D01*
X520230Y622370D02*
X532730D01*
Y618370D02*
Y622370D01*
X520230Y618370D02*
X532730D01*
X520230D02*
Y622370D01*
M02*
