G04*
G04 #@! TF.GenerationSoftware,Altium Limited,Altium Designer,22.5.1 (42)*
G04*
G04 Layer_Color=32896*
%FSLAX44Y44*%
%MOMM*%
G71*
G04*
G04 #@! TF.SameCoordinates,6AFA5DE7-E917-4A20-8E33-DC7232792B34*
G04*
G04*
G04 #@! TF.FilePolarity,Positive*
G04*
G01*
G75*
%ADD11C,0.2000*%
%ADD14C,0.2540*%
%ADD63C,0.2500*%
%ADD64C,0.6000*%
G36*
X583386Y706911D02*
X583323Y706849D01*
X583260Y706911D01*
X583323Y706974D01*
X583386Y706911D01*
D02*
G37*
G36*
X615117Y701518D02*
X615054Y701205D01*
X614176Y701079D01*
X613800Y701205D01*
X613048Y701330D01*
X612671Y701205D01*
X611166Y701330D01*
X611104Y701393D01*
X611292Y701581D01*
X611793Y701707D01*
X612734Y701769D01*
X613549Y701707D01*
X613926Y701832D01*
X614803D01*
X615117Y701518D01*
D02*
G37*
G36*
X616058Y701079D02*
X616120Y701017D01*
X616246Y700640D01*
X615556Y700578D01*
X615368Y700766D01*
X615305Y701079D01*
X615681Y701205D01*
X616058Y701079D01*
D02*
G37*
G36*
X610476Y700891D02*
X610414Y700703D01*
X609912Y700578D01*
X608783Y700703D01*
X608721Y700766D01*
X609034Y701079D01*
X609285D01*
X609348Y701142D01*
X609912Y701205D01*
X610476Y700891D01*
D02*
G37*
G36*
X607090Y701142D02*
X607341Y700390D01*
X607153Y700202D01*
X606338Y700264D01*
Y700515D01*
Y700640D01*
X606777Y701205D01*
X607090Y701142D01*
D02*
G37*
G36*
X538987Y700264D02*
X538924Y700076D01*
X538736Y700139D01*
X538924Y700327D01*
X538987Y700264D01*
D02*
G37*
G36*
X540994Y700139D02*
X540931Y699951D01*
X540429Y700076D01*
X540367Y700139D01*
X540241Y700390D01*
X540680Y700452D01*
X540994Y700139D01*
D02*
G37*
G36*
X605710Y699763D02*
X605648Y699575D01*
X605585Y699763D01*
X605648Y699825D01*
X605710Y699763D01*
D02*
G37*
G36*
X617124Y700390D02*
X617500Y699763D01*
X617751Y699512D01*
X617688Y699198D01*
X617375Y699261D01*
X617186Y699825D01*
X616497Y700013D01*
X616371Y700390D01*
X616434Y700452D01*
X616559D01*
X617124Y700390D01*
D02*
G37*
G36*
X622329Y699198D02*
X622391Y698885D01*
X621702Y698822D01*
X621576D01*
X621137Y698885D01*
X621263Y699136D01*
X621827Y699324D01*
X622329Y699198D01*
D02*
G37*
G36*
X538736Y698508D02*
X538674Y698446D01*
X538611Y698508D01*
X538674Y698571D01*
X538736Y698508D01*
D02*
G37*
G36*
X624022D02*
X623834Y698320D01*
X623332D01*
X623269Y698383D01*
X623457Y698571D01*
X624022Y698508D01*
D02*
G37*
G36*
X618441Y698822D02*
X618942Y698571D01*
X619319Y698697D01*
X620322D01*
X620635Y698634D01*
X620510Y698383D01*
X619883Y698258D01*
X618378Y698132D01*
X618190Y698069D01*
X617876Y698258D01*
X617751Y698759D01*
X617813Y698947D01*
X618441Y698822D01*
D02*
G37*
G36*
X541370Y699763D02*
X541433Y699700D01*
X541684Y699575D01*
X541997Y699261D01*
X541935Y698195D01*
X541997Y698007D01*
X541809Y697693D01*
X541370Y697756D01*
X541496Y698258D01*
X541621Y698634D01*
X541496Y699010D01*
X541370Y699512D01*
X541245Y699763D01*
X541307Y699825D01*
X541370Y699763D01*
D02*
G37*
G36*
X539614Y697756D02*
X539426Y697693D01*
X539301Y697819D01*
X539238Y697881D01*
X539552Y697944D01*
X539614Y697756D01*
D02*
G37*
G36*
X626342Y698571D02*
X626907Y698007D01*
X626781Y697630D01*
X626718Y697568D01*
X626405Y697881D01*
X626342Y698069D01*
X625527Y698383D01*
Y698508D01*
X625590Y698697D01*
X626342Y698571D01*
D02*
G37*
G36*
X632049Y695749D02*
X631986Y695686D01*
X631923Y695749D01*
Y695875D01*
X631986Y695937D01*
X632049Y695749D01*
D02*
G37*
G36*
X631672Y695498D02*
X631610Y695436D01*
X631547Y695498D01*
X631610Y695561D01*
X631672Y695498D01*
D02*
G37*
G36*
X631547Y695373D02*
X631359Y695310D01*
X631296Y695373D01*
X631359Y695436D01*
X631547Y695373D01*
D02*
G37*
G36*
X551278Y698007D02*
X551090Y697568D01*
X550714Y697442D01*
X550526Y697254D01*
Y697129D01*
X550463Y697066D01*
X549899Y696627D01*
X549773Y696376D01*
X549585Y696188D01*
X549272Y696125D01*
X549146Y695624D01*
X549021Y695373D01*
X548707Y695185D01*
X548644Y695875D01*
X549146Y696376D01*
X549272Y696752D01*
X549585Y697066D01*
X549773Y697129D01*
X549961Y697568D01*
X550212Y697693D01*
X550588Y698069D01*
X551090Y698195D01*
X551278Y698007D01*
D02*
G37*
G36*
X629540Y695624D02*
X629415Y695373D01*
X628788Y694997D01*
X628662Y694746D01*
X628474Y694558D01*
X627345Y694683D01*
X627095Y694558D01*
X626969D01*
X626530Y694871D01*
X626718Y695059D01*
X627972Y695185D01*
X628851Y695686D01*
X629540Y695624D01*
D02*
G37*
G36*
X629164Y694244D02*
X629289Y694119D01*
X629101Y694056D01*
X629039Y694244D01*
X629101Y694307D01*
X629164Y694244D01*
D02*
G37*
G36*
X629603Y693805D02*
X629666Y693742D01*
X629791Y693366D01*
X629666Y693115D01*
X629603Y693053D01*
X629415Y693241D01*
X629478Y693931D01*
X629603Y693805D01*
D02*
G37*
G36*
X629164Y692363D02*
X629101Y692300D01*
X628976Y692175D01*
X628913Y692363D01*
X629101Y692426D01*
X629164Y692363D01*
D02*
G37*
G36*
X583511Y692614D02*
X583386Y691861D01*
X583323Y691798D01*
X583072Y691673D01*
X582884Y691861D01*
X583009Y692488D01*
X583198Y692676D01*
X583511Y692614D01*
D02*
G37*
G36*
X536792Y691924D02*
X536855Y691610D01*
X535663Y691548D01*
X535601Y691736D01*
X535789Y691924D01*
X535914D01*
X536291Y692049D01*
X536792Y691924D01*
D02*
G37*
G36*
X624147Y690607D02*
X624085Y690544D01*
X624022Y690607D01*
X624085Y690670D01*
X624147Y690607D01*
D02*
G37*
G36*
X535475Y691359D02*
X535350Y690858D01*
X535224Y689980D01*
X535036Y689917D01*
X534848Y690105D01*
Y690231D01*
Y690356D01*
X534974Y691234D01*
X535162Y691422D01*
X535475Y691359D01*
D02*
G37*
G36*
X537733Y691234D02*
X537858Y690356D01*
X537733Y689729D01*
X537419Y689416D01*
X537169Y689290D01*
X537043D01*
X536604Y689353D01*
X537106Y689854D01*
X537169Y690670D01*
X537106Y691359D01*
X537545Y691422D01*
X537733Y691234D01*
D02*
G37*
G36*
X624461Y689541D02*
X624524Y689102D01*
X624461Y689039D01*
X624398Y688977D01*
X624210Y688788D01*
X624022Y688851D01*
X623896Y689478D01*
X624085Y689666D01*
X624461Y689541D01*
D02*
G37*
G36*
X554288Y687722D02*
X554163Y687346D01*
X553410Y686844D01*
X552783Y686468D01*
X552658Y685841D01*
X552470Y685653D01*
X552219Y685778D01*
X551968Y686029D01*
X551529Y686092D01*
X551655Y686343D01*
X551717Y686405D01*
X552595Y686907D01*
X552846Y687158D01*
X553097Y687283D01*
X553473Y687660D01*
X553975Y687785D01*
X554288Y687722D01*
D02*
G37*
G36*
X559744Y685778D02*
X560120Y685653D01*
X560434Y685465D01*
X560371Y685277D01*
X559995Y685151D01*
X559869D01*
X558866Y685277D01*
X558490Y685402D01*
X558239Y685527D01*
X558176Y685716D01*
X558866Y685904D01*
X559744Y685778D01*
D02*
G37*
G36*
X558176Y684712D02*
X557988Y684524D01*
X557486D01*
X556734Y684650D01*
X556044Y684963D01*
X556170Y685214D01*
X556734Y685277D01*
X556985Y685151D01*
X557361Y685277D01*
X558176Y684712D01*
D02*
G37*
G36*
X551592Y685402D02*
X552031Y685339D01*
Y685089D01*
X551968Y685026D01*
X551717Y684900D01*
X551466Y685402D01*
X550714Y685527D01*
X550651Y685590D01*
X550965Y685904D01*
X551466Y686029D01*
X551592Y685402D01*
D02*
G37*
G36*
X629289Y684712D02*
X629415Y684587D01*
X629227Y684399D01*
X628913Y684461D01*
X628976Y684650D01*
X629227Y684775D01*
X629289Y684712D01*
D02*
G37*
G36*
X624398Y687973D02*
X624712Y687409D01*
X625339Y687032D01*
X626029Y685966D01*
X626154Y685590D01*
X626029Y684838D01*
X625778Y684587D01*
X625715Y684399D01*
X625527Y684461D01*
X625652Y685339D01*
X625527Y685966D01*
X625151Y686343D01*
X625025Y686593D01*
X624712Y686907D01*
X624524Y686970D01*
X624398Y687221D01*
X624335Y687283D01*
X623708Y687534D01*
X623646Y687848D01*
X624085Y688287D01*
X624398Y687973D01*
D02*
G37*
G36*
X631108Y684650D02*
X631171Y684587D01*
X631233Y684524D01*
X631422Y684211D01*
X631359Y684148D01*
X630544Y684587D01*
X630606Y684775D01*
X631108Y684650D01*
D02*
G37*
G36*
X627157Y684085D02*
X627095Y683772D01*
X626342Y683897D01*
X626279Y684085D01*
X626718Y684148D01*
X626781Y684211D01*
X626844Y684273D01*
X627157Y684085D01*
D02*
G37*
G36*
X555605Y684524D02*
X556170Y684085D01*
X556107Y683897D01*
X555605Y683772D01*
X555417Y683834D01*
X555292Y684085D01*
X555104Y684273D01*
X554853Y684399D01*
X554790Y684461D01*
X554978Y684650D01*
X555104D01*
X555605Y684524D01*
D02*
G37*
G36*
X550588Y685026D02*
X550777Y684838D01*
X550902Y684587D01*
X551153Y684336D01*
X551216Y683772D01*
X550839Y683646D01*
X550651Y683834D01*
X550526Y684211D01*
X550338Y684399D01*
X549899Y684461D01*
X549836Y684524D01*
X549648Y684587D01*
X549773Y684963D01*
X549961Y685151D01*
X550588Y685026D01*
D02*
G37*
G36*
X632174Y683458D02*
X632111Y683395D01*
X632049Y683458D01*
X632111Y683521D01*
X632174Y683458D01*
D02*
G37*
G36*
X628788Y684211D02*
X628662Y683709D01*
X628474Y683521D01*
X627847Y683270D01*
X627534Y683333D01*
Y683583D01*
X627596Y683646D01*
X627972Y683772D01*
X628474Y684273D01*
X628788Y684211D01*
D02*
G37*
G36*
X633554Y683458D02*
X633679Y683207D01*
X633616Y683145D01*
X633240Y683270D01*
X632989Y683395D01*
X632927Y683458D01*
X633491Y683521D01*
X633554Y683458D01*
D02*
G37*
G36*
X554351Y683897D02*
X554915Y683458D01*
X554853Y683270D01*
X554226Y683145D01*
X553599Y683521D01*
X552721Y683019D01*
X552658Y682956D01*
X552595Y682894D01*
X552094Y682768D01*
X551843Y682894D01*
X551780Y683082D01*
X552344Y683270D01*
X553159Y683583D01*
X553473Y683897D01*
X553975Y684022D01*
X554351Y683897D01*
D02*
G37*
G36*
X549648Y683458D02*
X549711Y683395D01*
X550024Y683082D01*
X549899Y682831D01*
X549209Y682768D01*
X548519Y683082D01*
X548394Y683583D01*
X548833Y684148D01*
X549272Y684211D01*
X549648Y683458D01*
D02*
G37*
G36*
X595301Y682831D02*
X595112Y682643D01*
X594987Y682768D01*
X594862D01*
X594799Y682956D01*
X595112Y683019D01*
X595301Y682831D01*
D02*
G37*
G36*
X547390Y682455D02*
Y682329D01*
X547327Y682141D01*
X547139Y682204D01*
X547265Y682580D01*
X547327Y682643D01*
X547390Y682455D01*
D02*
G37*
G36*
X596053Y682204D02*
X595990Y682016D01*
X595802Y682078D01*
Y682329D01*
X595865Y682392D01*
X596053Y682204D01*
D02*
G37*
G36*
X550275Y681075D02*
X550087Y680887D01*
X549773Y680950D01*
X549836Y681389D01*
X550212D01*
X550275Y681075D01*
D02*
G37*
G36*
X548331Y681389D02*
X548519Y681200D01*
X548394Y680950D01*
X547955Y680887D01*
X547766Y681075D01*
X547829Y681514D01*
X547955D01*
X548331Y681389D01*
D02*
G37*
G36*
X592855Y681765D02*
X593168Y681451D01*
X593043Y680573D01*
X592855Y680511D01*
X592479Y681263D01*
X592228Y681389D01*
X592040Y681577D01*
Y681702D01*
X592102Y681890D01*
X592855Y681765D01*
D02*
G37*
G36*
X551905Y680573D02*
X551717Y680511D01*
X551655Y680573D01*
X551843Y680636D01*
X551905Y680573D01*
D02*
G37*
G36*
X551278Y679946D02*
X551090Y679883D01*
X551027Y679946D01*
X551090Y680009D01*
X551216D01*
X551278Y679946D01*
D02*
G37*
G36*
X549522Y680072D02*
X549334Y679883D01*
X548833Y680009D01*
X548770Y680072D01*
X548895Y680573D01*
X549460Y680636D01*
X549522Y680072D01*
D02*
G37*
G36*
X545509Y680448D02*
X545634Y680072D01*
X545572Y679883D01*
X545133Y679821D01*
X545258Y680322D01*
X545446Y680511D01*
X545509Y680448D01*
D02*
G37*
G36*
X547014Y681827D02*
X546638Y681200D01*
X546512Y680824D01*
X546889Y680573D01*
X547014Y680322D01*
X547202Y680134D01*
X547578Y680009D01*
X547641Y679946D01*
X547766Y679695D01*
X547327Y679257D01*
X547014Y679319D01*
X546889Y679821D01*
X546826Y680009D01*
X546575Y680134D01*
X546387Y680322D01*
X546261Y680573D01*
X545822Y680761D01*
X545760Y680950D01*
X546199Y681389D01*
X546387Y681451D01*
X546512Y681702D01*
X546700Y681890D01*
X547014Y681827D01*
D02*
G37*
G36*
X546011Y679570D02*
X545948Y679257D01*
X545822D01*
X545760Y679695D01*
X545822Y679758D01*
X546011Y679570D01*
D02*
G37*
G36*
X548644Y679695D02*
X548770Y679319D01*
X548582Y679131D01*
X548143Y679194D01*
X547892Y679695D01*
X548080Y679758D01*
X548205D01*
X548644Y679695D01*
D02*
G37*
G36*
X636376Y681263D02*
X636438Y680573D01*
X636313Y680322D01*
X636438Y679946D01*
X636313Y679445D01*
X636062Y679319D01*
X635937Y679068D01*
X635811Y678943D01*
X635749Y678880D01*
X635310Y678943D01*
X635498Y679382D01*
X635749Y679507D01*
X635937Y679695D01*
X636062Y680197D01*
X636188Y680448D01*
X635937Y680699D01*
X635811Y681200D01*
X635874Y681389D01*
X636376Y681263D01*
D02*
G37*
G36*
X593733Y679883D02*
X593921Y679695D01*
X593796Y679194D01*
X592980Y678880D01*
X592604Y678755D01*
X592541Y678818D01*
X593106Y679507D01*
X593168Y679570D01*
X593357Y680009D01*
X593733Y679883D01*
D02*
G37*
G36*
X634996Y678629D02*
X635059Y678567D01*
X634871Y678379D01*
X634620D01*
X634557Y678441D01*
X634432Y678567D01*
X634620Y678755D01*
X634996Y678629D01*
D02*
G37*
G36*
X546763Y678818D02*
X546638Y678316D01*
X546575Y678253D01*
X546450D01*
X546261Y678316D01*
X546387Y678943D01*
X546575Y679006D01*
X546763Y678818D01*
D02*
G37*
G36*
X547892Y677940D02*
X547829Y677877D01*
X547516Y677940D01*
X547641Y678316D01*
X547829Y678379D01*
X547892Y677940D01*
D02*
G37*
G36*
X550651Y679695D02*
X550777Y679319D01*
X550714Y679131D01*
X550212Y679006D01*
X549961Y678504D01*
X549334Y678128D01*
X548958Y677751D01*
X548644Y677814D01*
X548770Y678316D01*
X549021Y678567D01*
X549334Y679131D01*
X549836Y679257D01*
X550024Y679445D01*
X550087Y679633D01*
X550588Y679758D01*
X550651Y679695D01*
D02*
G37*
G36*
X547641Y676936D02*
X547578Y676748D01*
X547139Y676811D01*
Y676936D01*
X547327Y677124D01*
X547641Y676936D01*
D02*
G37*
G36*
X545133Y679695D02*
X545070Y678880D01*
X544819Y678755D01*
X544756Y678441D01*
X545007Y677940D01*
Y677814D01*
X545070Y677626D01*
X545572Y677501D01*
X545760Y677062D01*
X546011Y676811D01*
X546136Y676309D01*
X545822Y676246D01*
X545634Y676434D01*
X545509Y676685D01*
X544882Y676936D01*
X545007Y677438D01*
X544882Y677689D01*
X544443Y678002D01*
X544129Y678316D01*
X544255Y678943D01*
X544506Y679194D01*
X544631Y679445D01*
X544945Y679758D01*
X545133Y679695D01*
D02*
G37*
G36*
X544506Y676811D02*
X544192Y676121D01*
X543941D01*
X543879Y676309D01*
X544318Y676873D01*
X544506Y676811D01*
D02*
G37*
G36*
X631672Y677438D02*
X631798Y677187D01*
X632237Y676873D01*
X632550Y676560D01*
X632613Y676497D01*
X632927Y676184D01*
X632801Y675431D01*
X632738Y675368D01*
X632299Y675807D01*
X632174Y676309D01*
X631986Y676497D01*
X631735Y676623D01*
X631359Y677124D01*
X630857Y677250D01*
X630669Y677438D01*
X630794Y677940D01*
X631108Y678002D01*
X631672Y677438D01*
D02*
G37*
G36*
X538736Y676184D02*
X538862Y675682D01*
X538548Y675118D01*
X538360Y675180D01*
X538235Y675807D01*
X538046Y675995D01*
X537921D01*
X537545Y676121D01*
X537482Y676685D01*
X537921Y676748D01*
X538736Y676184D01*
D02*
G37*
G36*
X545634Y675306D02*
X545760Y675055D01*
X545446Y674992D01*
X545321D01*
X545070Y675118D01*
X544756Y675431D01*
X544882Y675682D01*
X545321Y675745D01*
X545634Y675306D01*
D02*
G37*
G36*
X537106D02*
X536980Y675055D01*
X536918Y674992D01*
X536855Y675055D01*
Y675180D01*
X536918Y675494D01*
X537106Y675306D01*
D02*
G37*
G36*
X543879Y677689D02*
X543816Y677250D01*
X543439Y677124D01*
X543189Y676497D01*
X543063Y676372D01*
X543000Y676309D01*
X542499Y675431D01*
X542185Y674867D01*
X541809Y674741D01*
X541621Y674930D01*
X541746Y675431D01*
X542123Y675807D01*
X542499Y676434D01*
X542938Y677124D01*
X543189Y677250D01*
X543377Y677438D01*
X543502Y677814D01*
X543690Y677877D01*
X543879Y677689D01*
D02*
G37*
G36*
X543816Y674992D02*
X544506Y674428D01*
X544756Y673801D01*
X544443Y673738D01*
X544380Y673801D01*
X544318Y673863D01*
X544067Y674114D01*
X543816Y674240D01*
X543565Y674616D01*
X543377Y674679D01*
X543439Y675118D01*
X543816Y674992D01*
D02*
G37*
G36*
X543189Y674365D02*
X543377Y673801D01*
X543314Y673738D01*
X543189D01*
X542875Y673801D01*
X542750Y674302D01*
X542812Y674491D01*
X543189Y674365D01*
D02*
G37*
G36*
X538109Y673801D02*
X537796Y673738D01*
X537733Y673801D01*
X537482Y674052D01*
X537733Y674679D01*
X537921Y674867D01*
X538235Y674930D01*
X538109Y673801D01*
D02*
G37*
G36*
X537169Y673989D02*
X537231Y673550D01*
X536918Y673236D01*
X536730Y673424D01*
X536855Y674052D01*
X536918Y674114D01*
X537169Y673989D01*
D02*
G37*
G36*
X544192Y673362D02*
X544255Y673299D01*
Y673174D01*
X544067Y672985D01*
X543753Y673299D01*
X543941Y673487D01*
X544192Y673362D01*
D02*
G37*
G36*
X538485Y673174D02*
X538548Y673111D01*
X538611Y672797D01*
X538297Y672735D01*
X538235Y672923D01*
X538423Y673236D01*
X538485Y673174D01*
D02*
G37*
G36*
X536604Y672923D02*
Y672797D01*
X536479Y672421D01*
X536291Y672358D01*
X536102Y672546D01*
X536228Y672923D01*
X536541Y672985D01*
X536604Y672923D01*
D02*
G37*
G36*
X541496Y674428D02*
X541997Y673550D01*
X542185Y673362D01*
X542436D01*
X542875Y673299D01*
X542938Y672609D01*
X542812Y672107D01*
X542687Y671982D01*
X542373Y672296D01*
X542060Y673236D01*
X541558Y673362D01*
X541182Y673487D01*
X540931Y673362D01*
X540806Y672735D01*
X540304Y672609D01*
X540116Y672421D01*
X540053Y671857D01*
X539175Y671982D01*
X538987Y672170D01*
X539050Y672484D01*
X539552Y672609D01*
X539802Y672735D01*
X540116Y673048D01*
X540241Y673299D01*
X540868Y673675D01*
X540994Y674302D01*
X541182Y674491D01*
X541496Y674428D01*
D02*
G37*
G36*
X538862Y671543D02*
X538799Y671230D01*
X538736Y671167D01*
X538297Y671104D01*
X538235Y671292D01*
X538548Y671606D01*
X538862Y671543D01*
D02*
G37*
G36*
X542248Y671418D02*
X542311Y671104D01*
X542185Y670979D01*
X542060Y671230D01*
X541997Y671292D01*
X542060Y671480D01*
X542248Y671418D01*
D02*
G37*
G36*
X541119D02*
Y671167D01*
Y671041D01*
X541057Y670979D01*
X540492Y671292D01*
X540555Y671480D01*
X541119Y671418D01*
D02*
G37*
G36*
X537482Y672045D02*
X537357Y671794D01*
X537106Y671167D01*
X536980Y670916D01*
X536918Y670853D01*
X536667Y670979D01*
X536479Y671167D01*
X536604Y671543D01*
X537169Y672107D01*
X537482Y672045D01*
D02*
G37*
G36*
X541809Y670477D02*
X541872Y669913D01*
X541558Y669850D01*
X541496Y669913D01*
X541370Y670289D01*
X541433Y670602D01*
X541809Y670477D01*
D02*
G37*
G36*
X538924D02*
X538987Y670414D01*
X538924Y669725D01*
X538548Y669850D01*
X538360Y670289D01*
X538674Y670602D01*
X538924Y670477D01*
D02*
G37*
G36*
X535977Y669913D02*
X535789Y669725D01*
X535663D01*
X535601Y669787D01*
X535789Y669975D01*
X535977Y669913D01*
D02*
G37*
G36*
X539928Y670728D02*
X540492Y670163D01*
Y670038D01*
X540806Y669725D01*
X541057Y669599D01*
X541119Y669536D01*
X540931Y669348D01*
X540680Y669474D01*
X540429Y669725D01*
X539740Y669913D01*
X539614Y670414D01*
X539363Y670665D01*
X539426Y670853D01*
X539928Y670728D01*
D02*
G37*
G36*
X539552Y669599D02*
X539614Y669160D01*
X539426Y668972D01*
X539175Y669097D01*
X539113Y669286D01*
Y669411D01*
X539175Y669725D01*
X539552Y669599D01*
D02*
G37*
G36*
X535224Y669411D02*
X535036Y668972D01*
X534409Y669223D01*
X534347Y669286D01*
X534472Y669913D01*
X534535Y669975D01*
X535224Y669411D01*
D02*
G37*
G36*
X534221Y669035D02*
X534096Y668157D01*
X534033Y668094D01*
X533657Y667969D01*
X533594Y668282D01*
X534033Y669097D01*
X534221Y669035D01*
D02*
G37*
G36*
X533469Y667530D02*
Y667404D01*
X533406Y667342D01*
X533343Y667530D01*
X533406Y667592D01*
X533469Y667530D01*
D02*
G37*
G36*
X526132Y669097D02*
X526508Y668721D01*
X526947Y668533D01*
X527323Y667906D01*
X527574Y667279D01*
X527449Y666526D01*
X527072Y666150D01*
X526759Y665586D01*
X526508Y665460D01*
X526257Y665209D01*
X525755Y665084D01*
X525316Y665272D01*
X525191Y665523D01*
X524752Y665711D01*
X523937Y666526D01*
X523999Y667342D01*
X523937Y668031D01*
X524250Y668470D01*
X524501Y668596D01*
X524815Y668784D01*
X524877Y668847D01*
X525755Y669223D01*
X526132Y669097D01*
D02*
G37*
G36*
X632801Y675055D02*
X632927Y674553D01*
X632801Y674177D01*
X632550Y673926D01*
X632676Y673675D01*
X633177Y673174D01*
X633240Y672985D01*
X633993Y672860D01*
X634808Y672045D01*
X634933Y671794D01*
X635310Y671418D01*
X635184Y669787D01*
X634996Y669599D01*
X634808Y669536D01*
X634683Y669286D01*
X634244Y668721D01*
X633993Y668596D01*
X633930Y668031D01*
X634055Y667655D01*
X634118Y666965D01*
X633993Y665836D01*
X633742Y665586D01*
X633554Y665523D01*
X633428Y665021D01*
X633115Y664708D01*
X632927Y664645D01*
X632801Y664143D01*
X632676Y663893D01*
X632362Y663830D01*
X632299Y664269D01*
X632801Y664771D01*
X632927Y665272D01*
X633052Y665523D01*
X633491Y665836D01*
X633554Y666275D01*
X633428Y666652D01*
X633554Y667028D01*
X633428Y667906D01*
X633177Y668157D01*
X633303Y668533D01*
X633491Y668721D01*
X633616D01*
X633679Y668784D01*
X634244Y669474D01*
X634557Y670038D01*
X634683Y670916D01*
X634620Y671480D01*
X634369Y671606D01*
X634055Y671919D01*
X633930Y672170D01*
X633303Y672546D01*
X633177Y672923D01*
X633115Y672985D01*
X632738Y672860D01*
X632049Y673048D01*
X631672Y673299D01*
X632049Y673926D01*
X632299Y674177D01*
X632425Y674930D01*
X632613Y675118D01*
X632801Y675055D01*
D02*
G37*
G36*
X628035Y665272D02*
X628161Y663893D01*
X627847Y663579D01*
X627596Y663704D01*
X627408Y664269D01*
X627534Y664645D01*
Y664771D01*
X627659Y665398D01*
X627847Y665460D01*
X628035Y665272D01*
D02*
G37*
G36*
X548644Y694620D02*
X548268Y693993D01*
X548017Y693742D01*
X547892Y691109D01*
X547641Y690481D01*
X547453Y689165D01*
X547139Y688600D01*
X546889Y687973D01*
X546512Y687722D01*
X546387Y687346D01*
X546512Y687095D01*
X545885Y686970D01*
X545822Y686405D01*
X545383Y686343D01*
X545321Y685778D01*
X544882Y685841D01*
X544631Y685716D01*
X544694Y685026D01*
X544568Y685277D01*
X544192Y685151D01*
X544004Y684963D01*
X544192Y684775D01*
X544506Y684712D01*
X544318Y684524D01*
X543565Y684650D01*
X543251Y684336D01*
X543189Y684148D01*
X542562Y683772D01*
X542248Y683458D01*
X542123Y683207D01*
X541684Y682894D01*
X541245Y682455D01*
X541119Y682204D01*
X540179Y681263D01*
X539991Y681200D01*
X539614Y680573D01*
X539238Y680322D01*
X539050Y679883D01*
X538799Y679758D01*
X538674Y679131D01*
X538548Y678880D01*
X538046Y678755D01*
X537984Y678190D01*
X538297Y677751D01*
X538924Y677877D01*
X538987Y677940D01*
X538736Y678567D01*
X538799Y678755D01*
X539301Y678504D01*
X539552Y679006D01*
X539991Y679194D01*
X539740Y679821D01*
X539865Y680197D01*
X539991Y680448D01*
X540429Y680636D01*
X540806Y681012D01*
X540994Y681075D01*
X541182Y681639D01*
X541433Y681765D01*
X541746Y682078D01*
X541809Y682266D01*
X542060Y682392D01*
X542499Y683082D01*
X542687Y683270D01*
X543063Y683395D01*
X543126Y683333D01*
X542750Y682706D01*
X542311Y682392D01*
X541684Y681639D01*
X541245Y680950D01*
X540492Y679821D01*
X540367Y679319D01*
X539991Y678943D01*
X539865Y678441D01*
X539113Y677689D01*
X539050Y676873D01*
X538548Y676999D01*
X538235Y677312D01*
X538109Y677689D01*
X537921Y677877D01*
X537545Y677751D01*
X537357Y677563D01*
X537231Y677062D01*
X536855Y676811D01*
X536667Y676121D01*
X536479Y675933D01*
X536228Y675306D01*
X535852Y674679D01*
X535601Y674052D01*
X535475Y673675D01*
X535099Y673424D01*
X534974Y672421D01*
X534535Y672233D01*
X534409Y671606D01*
X534347Y671543D01*
X534535Y671355D01*
X535287Y671857D01*
X535475Y671668D01*
X535350Y671167D01*
X534660Y671104D01*
X534284Y671230D01*
X534096Y671167D01*
X533970Y670289D01*
X533406Y669599D01*
X533218Y669035D01*
X533092Y668282D01*
X532716Y668031D01*
X532591Y667153D01*
X532653Y666464D01*
X532152Y666338D01*
X532026Y665836D01*
X531964Y665021D01*
X532214Y664394D01*
X532152Y664206D01*
X531650Y664457D01*
X531462Y664269D01*
X531337Y662764D01*
X530960Y662513D01*
X530835Y661635D01*
X530897Y660945D01*
X530709Y660255D01*
X530772Y659816D01*
X531023Y659942D01*
X531525Y660694D01*
X531713Y660882D01*
X531838Y661133D01*
X532591Y661635D01*
X532716Y662011D01*
X532653Y662325D01*
X532277Y662199D01*
X532089Y662011D01*
X531964Y661760D01*
X531776Y661572D01*
X531399Y661698D01*
X531337Y662011D01*
X532340Y663015D01*
X532465Y663516D01*
X532716Y664143D01*
X532841Y664394D01*
X533469Y665021D01*
X533594Y665272D01*
X534096Y665523D01*
X533845Y666025D01*
X534158Y666338D01*
X534409Y666464D01*
X534472Y667028D01*
X534347Y667279D01*
X534535Y667467D01*
X534785Y667592D01*
X534974Y667781D01*
X535099Y668031D01*
X535413Y668094D01*
X535538Y667969D01*
X536102Y668408D01*
X536353Y669035D01*
X536479Y669286D01*
X536792Y669599D01*
X537545Y669850D01*
X537796Y669599D01*
X538046Y669474D01*
X538235Y669286D01*
X538109Y668784D01*
X537670Y668470D01*
X537482Y668282D01*
X537357Y668031D01*
X537231Y667655D01*
X537106Y666777D01*
X536792Y666338D01*
X536291Y666213D01*
X536102Y665648D01*
X536165Y665460D01*
X536792Y665586D01*
X537419Y665962D01*
X537607Y666150D01*
X537733Y667028D01*
X537858Y667279D01*
X538172Y667592D01*
X538674Y667467D01*
X538862Y667530D01*
X538924Y667843D01*
X538360Y668282D01*
X538423Y668596D01*
X538924Y668470D01*
X539113Y668031D01*
X539489Y667781D01*
X539301Y667342D01*
X538674Y666965D01*
X538548Y666464D01*
X538674Y665962D01*
X539050Y665836D01*
X539238Y666025D01*
X539363Y666526D01*
X539802Y666714D01*
X540116Y667153D01*
X540492Y667404D01*
X540367Y668408D01*
X540429Y668470D01*
X540806Y668345D01*
X541057Y668470D01*
X541245Y668659D01*
X541370Y668909D01*
X541746Y669286D01*
X541872Y669662D01*
X542060Y669850D01*
X542311Y669975D01*
X542499Y670163D01*
X543063Y671230D01*
X543314Y671355D01*
X543628Y671668D01*
X543753Y671919D01*
X544129Y672170D01*
X544255Y672672D01*
X544756Y672923D01*
X545070Y673613D01*
X545321Y673738D01*
X546011Y674428D01*
X546199Y674867D01*
X546450Y674992D01*
X546638Y675180D01*
X546763Y675431D01*
X547202Y675745D01*
X547453Y675995D01*
X547704Y676121D01*
X548017Y676434D01*
X548080Y676623D01*
X548707Y676999D01*
X548958Y677250D01*
X549585Y677626D01*
X550149Y677940D01*
X550338Y678379D01*
X550777Y678567D01*
X550965Y679006D01*
X551529Y679319D01*
X551655Y679695D01*
X551905Y679821D01*
X552219Y680385D01*
X552595Y680511D01*
X552909Y680950D01*
X553159Y681075D01*
X553285Y681702D01*
X553724Y681890D01*
X554226Y682392D01*
X554477Y682517D01*
X555104Y682768D01*
X555354Y682894D01*
X555480Y683270D01*
X556546Y683458D01*
X556859Y683772D01*
X557737Y683897D01*
X558992Y684022D01*
X559242Y684399D01*
X560120Y684524D01*
X561500Y684650D01*
X561688Y684838D01*
X561814Y685214D01*
X562253Y685277D01*
X562629Y685151D01*
X563883Y685277D01*
X564134Y685527D01*
X564698Y685841D01*
X564824Y686217D01*
X564636Y686405D01*
X563381Y686280D01*
X563130Y686029D01*
X562629Y685904D01*
X560308Y685966D01*
X560434Y686343D01*
X560998Y686531D01*
X561500Y686656D01*
X562880Y686531D01*
X563130Y686782D01*
X563758Y687032D01*
X564510Y687158D01*
X564886Y687032D01*
X565764Y686782D01*
X566768Y686656D01*
X567520Y686154D01*
X568273Y686029D01*
X568774Y685527D01*
X569276Y685402D01*
X569652Y685904D01*
X570279Y686154D01*
X570718Y686343D01*
X571032Y686907D01*
X571283Y687032D01*
X571471Y687597D01*
X571345Y688349D01*
X570844Y688851D01*
X570718Y689102D01*
X569903Y689416D01*
X569276Y689666D01*
X568649Y689792D01*
X568586Y690231D01*
X569025Y690544D01*
X569464Y691485D01*
X569088Y692363D01*
X569025Y692551D01*
X568774Y692676D01*
X568461Y692990D01*
X568335Y693241D01*
X567708Y693492D01*
X567771Y693931D01*
X568398Y693805D01*
X568586Y693617D01*
X568649Y693429D01*
X569151Y693304D01*
X569527Y693178D01*
X570656Y693053D01*
X571032Y692927D01*
X572035Y692551D01*
X572286Y692300D01*
X572913Y692049D01*
X573791Y691798D01*
X574293Y691924D01*
X574920Y692175D01*
X575798Y692300D01*
X576300Y692551D01*
X576927Y692300D01*
X577616Y692112D01*
X577993Y691861D01*
X578118Y691610D01*
X578745Y690983D01*
X578933Y689792D01*
X579122Y689227D01*
X579247Y687095D01*
X579372Y686719D01*
X579498Y686217D01*
X580062Y686029D01*
X580313Y685904D01*
X580752Y685716D01*
X581065Y686029D01*
X581630Y686343D01*
X581755Y686844D01*
X581943Y687534D01*
X582069Y688036D01*
X582194Y689666D01*
X582382Y690858D01*
X582570Y691171D01*
X583260Y690607D01*
X583825Y690043D01*
X584076Y689917D01*
X584264Y689729D01*
X584389Y689478D01*
X584577Y689290D01*
X585079Y689165D01*
X589092Y689039D01*
X590660Y688224D01*
X590911Y687095D01*
X591287Y686217D01*
X591162Y685339D01*
X591036Y684838D01*
X590911Y684461D01*
X591036Y682956D01*
X591538Y682455D01*
X591475Y682016D01*
X590974Y681890D01*
X590284Y681827D01*
X589970Y681138D01*
X589531Y680950D01*
X589657Y679821D01*
X590284Y679194D01*
X590409Y678943D01*
X590597Y678755D01*
X592165Y678818D01*
X592416Y678692D01*
X591852Y678128D01*
X591225Y677877D01*
X591036Y677814D01*
X590911Y677563D01*
X590723Y677375D01*
X590472Y677250D01*
X590221Y676748D01*
X589594Y676497D01*
X589343Y675995D01*
X589092Y675870D01*
X588779Y675557D01*
X588653Y675306D01*
X587525Y674177D01*
X587399Y673926D01*
X587023Y673550D01*
X586898Y673299D01*
X586396Y672797D01*
X586270Y672421D01*
X585769Y671919D01*
X585643Y671668D01*
X585392Y671418D01*
X584765Y670289D01*
X584515Y669662D01*
X584389Y669411D01*
X584013Y668784D01*
X583825Y668094D01*
X583511Y667781D01*
X583386Y667279D01*
X583135Y666652D01*
X582884Y666401D01*
X582759Y665147D01*
X582508Y664896D01*
X582382Y664645D01*
X582257Y664269D01*
X582132Y663391D01*
X582257Y662889D01*
X582696Y662701D01*
X583009Y663015D01*
X583135Y663893D01*
X583260Y664394D01*
X583637Y664771D01*
X583762Y665774D01*
X584138Y666652D01*
X585079Y668721D01*
X585330Y668847D01*
X585706Y669599D01*
X586145Y670038D01*
X586270Y670540D01*
X586459Y670728D01*
X586647Y670791D01*
X586772Y671668D01*
X587274Y672170D01*
X587399Y672421D01*
X587775Y672797D01*
X587901Y673048D01*
X588528Y673675D01*
X588653Y673926D01*
X589030Y674177D01*
X589155Y674428D01*
X589469Y674741D01*
X589720Y674867D01*
X590033Y675306D01*
X590472Y675745D01*
X590723Y675870D01*
X591225Y676372D01*
X591475Y676497D01*
X591852Y676873D01*
X592291Y676936D01*
X592416Y677312D01*
X592604Y677501D01*
X593106Y677626D01*
X593294Y677814D01*
X593419Y678065D01*
X593670Y678316D01*
X593984Y679131D01*
X594611Y679382D01*
X595865Y679507D01*
X596304Y679946D01*
X596429Y680573D01*
X596555Y680824D01*
X596179Y681702D01*
X596241Y681890D01*
X598123Y682016D01*
X598624Y682517D01*
X599001Y682643D01*
X599189Y682831D01*
X599314Y683082D01*
X599816Y683583D01*
X600192Y684211D01*
X600756Y684900D01*
X601070Y685339D01*
X601258Y685527D01*
X601885Y685904D01*
X602512Y686154D01*
X604394Y686029D01*
X604770Y685653D01*
X605460Y685339D01*
X605585Y685089D01*
X606024Y684650D01*
X606212Y684587D01*
X606714Y683709D01*
X606965Y683082D01*
X606400Y682141D01*
X606149Y682016D01*
X605836Y681702D01*
X605710Y681451D01*
X605209Y681200D01*
X604895Y680385D01*
X604833Y680072D01*
X605271Y679507D01*
X606526Y679633D01*
X606902Y680009D01*
X607592Y680197D01*
X608031Y680636D01*
X608282Y680761D01*
X608783Y681263D01*
X609222Y681451D01*
X609348Y681702D01*
X609536Y681890D01*
X610163Y682141D01*
X611041Y682517D01*
X612295Y682643D01*
X612797Y682517D01*
X613236Y682078D01*
X613298Y681514D01*
X613048Y680887D01*
X612859Y680322D01*
X613236Y679695D01*
X613424Y679507D01*
X613675Y679382D01*
X613926Y679006D01*
X614114Y678943D01*
X614239Y678692D01*
X614741Y677940D01*
X614615Y677312D01*
X614239Y676434D01*
X614365Y675807D01*
X614929Y675619D01*
X615869Y675807D01*
X616309Y676121D01*
X616685Y676246D01*
X617061Y676121D01*
X617249Y675933D01*
X617437Y675243D01*
X617500Y674804D01*
X616998Y673926D01*
X616685Y673613D01*
X616434Y673487D01*
X616120Y673174D01*
X615744Y672546D01*
X615619Y672170D01*
X616183Y671104D01*
X616434Y670979D01*
X616622Y670791D01*
X616748Y669662D01*
X617249Y669160D01*
X617375Y668909D01*
X617751Y668659D01*
X617876Y668157D01*
X618002Y667153D01*
X618378Y666777D01*
X618503Y666526D01*
X618817Y666213D01*
X619068Y666087D01*
X619444Y665711D01*
X620573Y665586D01*
X620761Y665398D01*
X620635Y665147D01*
X620008Y664771D01*
X620134Y664143D01*
X620385Y663516D01*
X620196Y663077D01*
X619820Y663203D01*
X619193Y664206D01*
X618880Y664520D01*
X618754Y664771D01*
X617939Y665586D01*
X617312Y665962D01*
X617061Y666213D01*
X616434Y666589D01*
X616183Y666840D01*
X615556Y666965D01*
X615180Y667342D01*
X614678Y667467D01*
X613926Y667592D01*
X613675Y667843D01*
X612797Y667969D01*
X612295Y668094D01*
X609536Y668220D01*
X607905Y668094D01*
X606714Y667906D01*
X606024Y667592D01*
X604958Y667404D01*
X604143Y666965D01*
X603327Y666652D01*
X603014Y666338D01*
X602324Y666150D01*
X602136Y665836D01*
X601321Y665523D01*
X601070Y665272D01*
X601007Y665084D01*
X600631Y664959D01*
X600129Y664457D01*
X599879Y664332D01*
X599377Y663830D01*
X599126Y663704D01*
X598938Y663516D01*
X598875Y663328D01*
X598624Y663203D01*
X597934Y662513D01*
X597809Y662262D01*
X597433Y661886D01*
X597307Y661635D01*
X596806Y661133D01*
X596680Y660882D01*
X596179Y660381D01*
X596053Y660005D01*
X595802Y659754D01*
X595551Y659127D01*
X595426Y658876D01*
X595050Y658499D01*
X594862Y657810D01*
X594611Y657559D01*
X594423Y657496D01*
X594172Y656493D01*
X593921Y656242D01*
X593796Y655740D01*
X593607Y654800D01*
X593168Y653984D01*
X592980Y652542D01*
X592667Y651978D01*
X592541Y648466D01*
X592667Y644202D01*
X593043Y643324D01*
X593168Y642069D01*
X593294Y641568D01*
X593545Y641442D01*
X593670Y640941D01*
X593858Y640125D01*
X594297Y639687D01*
X594360Y638871D01*
X594235Y638620D01*
X593858Y638746D01*
X593670Y639310D01*
X593545Y639937D01*
X593168Y640188D01*
X592980Y641380D01*
X592416Y641819D01*
X592291Y643073D01*
X592165Y643324D01*
X592102Y643386D01*
X591852Y642132D01*
X591538Y641317D01*
X591601Y640878D01*
X591977Y641254D01*
X592353Y641129D01*
X592541Y639937D01*
X592918Y639561D01*
X593106Y638746D01*
X593231Y638495D01*
X593482Y638369D01*
X593670Y637304D01*
X594046Y637053D01*
X594172Y636551D01*
X594297Y636175D01*
X594736Y635987D01*
X594799Y635297D01*
X594674Y635046D01*
X594736Y634983D01*
X595175Y635171D01*
X595426Y635046D01*
X595551Y634293D01*
X595928Y633917D01*
X596053Y633541D01*
X596241Y633353D01*
X596429Y633290D01*
X596116Y632976D01*
X595865Y632851D01*
X595802Y632287D01*
X595990Y632099D01*
X596492Y632600D01*
X596994Y632475D01*
X597182Y632287D01*
X597307Y631910D01*
X597495Y631722D01*
X597746Y631597D01*
X597997Y631221D01*
X598248Y631095D01*
X598436Y630907D01*
X598248Y630719D01*
X597872Y630844D01*
X597495Y631221D01*
X597307Y631283D01*
X597119Y631722D01*
X596806Y631660D01*
X596931Y631158D01*
X597119Y630970D01*
X597370Y630844D01*
X597558Y630656D01*
X597809Y630029D01*
X598123Y629716D01*
X598373Y629590D01*
X598687Y629277D01*
X598812Y629026D01*
X599314Y628524D01*
X599440Y628022D01*
X599753Y627960D01*
X599941Y628148D01*
X600067Y628649D01*
X599816Y628900D01*
X599879Y629214D01*
X600255Y629089D01*
X600506Y628838D01*
X600756Y628712D01*
X600945Y628524D01*
X600317Y628273D01*
X600192Y627897D01*
X600255Y627583D01*
X600756Y627458D01*
X602199Y626016D01*
X602262Y625828D01*
X602763Y625702D01*
X603202Y625639D01*
X603077Y625263D01*
X603202Y624887D01*
X603767Y624699D01*
X604268Y624950D01*
X604331Y624762D01*
X604206Y624385D01*
X604331Y624134D01*
X605271Y623946D01*
X605460Y623758D01*
X605585Y623382D01*
X606338Y622880D01*
X606902Y622692D01*
X607780Y622817D01*
X607843Y623131D01*
X607654Y623319D01*
X607404Y623445D01*
X607153Y623695D01*
X606526Y623821D01*
X606212Y624134D01*
X606338Y624385D01*
X606651Y624448D01*
X607090Y624260D01*
X607215Y624009D01*
X607843Y623884D01*
X608219Y623633D01*
X608344Y623382D01*
X609097Y623006D01*
X608971Y622755D01*
X607717Y622504D01*
X607592Y622253D01*
X607905Y621940D01*
X608721Y621751D01*
X609097Y621501D01*
X609160Y621312D01*
X609661Y621187D01*
X609912Y621062D01*
X610288Y620685D01*
X610790Y620560D01*
X611104Y620121D01*
X612107Y619870D01*
X612232Y619619D01*
X612421Y619431D01*
X613298Y619557D01*
X613549Y619807D01*
X616058Y619933D01*
X616434Y620058D01*
X616622Y619995D01*
X616183Y619807D01*
X615869Y619494D01*
X615807Y619306D01*
X615305Y619180D01*
X614929Y619306D01*
X614490Y619368D01*
X613988Y619118D01*
X614051Y618929D01*
X615242Y618741D01*
X615681Y618553D01*
X615932Y618302D01*
X617312Y617675D01*
X618441Y617424D01*
X618817Y617048D01*
X620447Y616923D01*
X621325Y616547D01*
X622579Y616421D01*
X623583Y615794D01*
X624586Y615668D01*
X624963Y615543D01*
X625840Y615418D01*
X626718Y615041D01*
X627910Y614853D01*
X628976Y614540D01*
X629227Y614414D01*
X629854Y614164D01*
X633491Y614038D01*
X633867Y613913D01*
X634620Y613787D01*
X634996Y613662D01*
X637379Y613536D01*
X642082Y613725D01*
X643587Y613850D01*
X643775Y614038D01*
X648918Y614164D01*
X649294Y614289D01*
X650172Y614414D01*
X650674Y614540D01*
X652116Y614728D01*
X653621Y614853D01*
X654875Y614979D01*
X655879Y615104D01*
X656380Y615230D01*
X657885Y615355D01*
X658575Y615543D01*
X659704Y615668D01*
X660080Y615794D01*
X660833Y615919D01*
X661773Y616860D01*
X661648Y617738D01*
X661083Y617801D01*
X660833Y617675D01*
X660644Y617863D01*
X660707Y618177D01*
X661899Y618114D01*
X662275Y618365D01*
X662150Y618992D01*
X661773Y619243D01*
X661836Y619682D01*
X662212Y619807D01*
X662463Y619055D01*
X662965Y618929D01*
X663466Y619055D01*
X663780Y619494D01*
X663905Y619870D01*
X663780Y620246D01*
X663654Y620497D01*
X664156Y621375D01*
X664783Y622002D01*
X664846Y622190D01*
X665410Y622504D01*
X665536Y622755D01*
X665975Y623068D01*
X666288Y623507D01*
X666476Y623570D01*
X666539Y623131D01*
X666351Y622943D01*
X666100Y622817D01*
X665912Y622629D01*
X665787Y622379D01*
X665536Y622253D01*
X665285Y621626D01*
X664909Y621375D01*
X664783Y620497D01*
X664658Y618240D01*
X664909Y617613D01*
X664783Y615355D01*
X664909Y614979D01*
X664846Y614665D01*
X664470Y614791D01*
X664282Y614979D01*
X664156Y617236D01*
X664282Y617613D01*
X664156Y617989D01*
X663968Y618177D01*
X662965Y618051D01*
X662651Y617863D01*
X662526Y617613D01*
X662275Y617362D01*
X662150Y616484D01*
X662024Y616107D01*
X662150Y615857D01*
X662400Y615230D01*
X662275Y614477D01*
X661899Y614226D01*
X661773Y613975D01*
X661083Y613662D01*
X660206Y613286D01*
X659139Y613097D01*
X658512Y612972D01*
X658011Y612847D01*
X656631Y612721D01*
X655001Y612596D01*
X653621Y612470D01*
X653119Y612345D01*
X652429Y612282D01*
X652304Y612408D01*
X651928Y612282D01*
X641016Y612408D01*
X640640Y612533D01*
X636376Y612659D01*
X635498Y612784D01*
X633366Y612909D01*
X633240Y613035D01*
X632864Y612909D01*
X632362Y612784D01*
X631484Y612909D01*
X630293Y613097D01*
X629289Y613223D01*
X626907Y613599D01*
X626217Y613787D01*
X624963Y613913D01*
X624210Y614038D01*
X623583Y614289D01*
X623081Y614414D01*
X622203Y614540D01*
X621702Y614665D01*
X621325Y615041D01*
X620447Y615167D01*
X619193Y615292D01*
X618942Y615543D01*
X618441Y615668D01*
X617813Y615794D01*
X617437Y615668D01*
X616685Y615543D01*
X616497Y615355D01*
X616559Y615041D01*
X618315Y614791D01*
X618817Y614289D01*
X620698Y614164D01*
X620949Y613913D01*
X621576Y613662D01*
X622830Y613536D01*
X623081Y613286D01*
X623583Y613160D01*
X624900Y612972D01*
X625715Y612659D01*
X627534Y612470D01*
X628035Y612345D01*
X628161Y612220D01*
X627972Y612031D01*
X627220Y611906D01*
X626593Y611655D01*
X626091Y611781D01*
X625213Y611906D01*
X624900Y611969D01*
X625025Y612345D01*
X624963Y612533D01*
X624210Y612408D01*
X623771Y612220D01*
X623646Y611843D01*
X623207Y611530D01*
X623144Y611342D01*
X623332Y611153D01*
X624085Y611028D01*
X624461Y610652D01*
X624963Y610526D01*
X625339Y610652D01*
X625966Y610903D01*
X627095Y611028D01*
X627345Y611404D01*
X628223Y611279D01*
X628286Y610965D01*
X628098Y610777D01*
X627220Y610652D01*
X626593Y610401D01*
X625652Y610338D01*
X625778Y609962D01*
X626969Y609899D01*
X627095Y610025D01*
X627471Y609899D01*
X628600Y609774D01*
X628788Y609962D01*
X628913Y610464D01*
X629603Y610777D01*
X629791Y610589D01*
X629728Y609899D01*
X629227Y609774D01*
X628788Y609711D01*
X629101Y609398D01*
X630293Y609460D01*
X630857Y609398D01*
X630920Y609586D01*
X630544Y610087D01*
X631045Y610965D01*
X631484Y611279D01*
X631923Y611467D01*
X632425Y611342D01*
X633052Y611091D01*
X633491Y610903D01*
X633867Y610777D01*
X634745Y611028D01*
X635811Y611091D01*
X635623Y611279D01*
X635121Y611404D01*
X634369Y611530D01*
X634306Y611718D01*
X634494Y611906D01*
X635372Y611781D01*
X636564Y611592D01*
X637066Y611467D01*
X637881Y611153D01*
X638382Y611028D01*
X640013Y611153D01*
X644591Y611091D01*
X647099Y611216D01*
X649858Y611342D01*
X653558Y611530D01*
X657885Y611843D01*
X659265Y611969D01*
X660268Y612094D01*
X665285Y612220D01*
X666100Y612533D01*
X667354Y612659D01*
X668483Y612784D01*
X668797Y612596D01*
X668671Y612345D01*
X668107Y612157D01*
X665097Y612031D01*
X664219Y611655D01*
X661773Y611467D01*
X659766Y611342D01*
X659139Y611216D01*
X658638Y611091D01*
X657509Y610965D01*
X656255Y610840D01*
X654499Y610714D01*
X653495Y610589D01*
X652743Y610464D01*
X651740Y610338D01*
X650611Y610213D01*
X648541Y609899D01*
X648165Y609774D01*
X646158Y609648D01*
X645657Y609523D01*
X644277Y609147D01*
X642647Y609021D01*
X641267Y608645D01*
X640765Y608520D01*
X638821Y608331D01*
X638194Y608081D01*
X637504Y607892D01*
X636250Y607767D01*
X635247Y607642D01*
X634620Y607391D01*
X632864Y607140D01*
X631735Y607015D01*
X631108Y606764D01*
X630230Y606638D01*
X628600Y606513D01*
X627722Y606137D01*
X626844Y606011D01*
X625339Y605886D01*
X624712Y605635D01*
X623708Y605509D01*
X623332Y605384D01*
X621827Y605259D01*
X621451Y605133D01*
X620949Y605008D01*
X620134Y604820D01*
X618503Y604694D01*
X618002Y604569D01*
X617312Y604381D01*
X616810Y604255D01*
X615180Y604130D01*
X614678Y604005D01*
X614302Y603879D01*
X613424Y603754D01*
X612922Y603628D01*
X611292Y603503D01*
X610915Y603377D01*
X610163Y603252D01*
X609787Y603127D01*
X608156Y603001D01*
X606400Y602876D01*
X605773Y602625D01*
X604895Y602500D01*
X602136Y602374D01*
X600317Y602311D01*
X600255Y601872D01*
X588465Y601998D01*
X588340Y602249D01*
X587086Y602374D01*
X583950Y602500D01*
X583323Y602750D01*
X582320Y603001D01*
X580815Y603127D01*
X580438Y603252D01*
X579184Y603628D01*
X577679Y603754D01*
X577052Y604005D01*
X576550Y604130D01*
X573227Y604193D01*
X572537Y604130D01*
X572161Y604255D01*
X567081Y604318D01*
X566893Y604255D01*
X566517Y604381D01*
X564259Y604506D01*
X563883Y604632D01*
X563507Y604506D01*
X562253Y604632D01*
X560246Y604757D01*
X557361Y604882D01*
X556734Y605259D01*
X555542Y605447D01*
X554288Y605572D01*
X553661Y605698D01*
X552971Y605886D01*
X551717Y606011D01*
X550839Y606137D01*
X550338Y606262D01*
X549711Y606513D01*
X548833Y606638D01*
X547892Y606826D01*
X547202Y607140D01*
X545572Y607391D01*
X545195Y607767D01*
X544318Y607892D01*
X543690Y608018D01*
X543314Y608394D01*
X542123Y608582D01*
X541684Y608896D01*
X541307Y609021D01*
X540492Y609209D01*
X540053Y609523D01*
X539677Y609648D01*
X538924Y609774D01*
X538423Y610275D01*
X537419Y610401D01*
X537231Y610589D01*
X537357Y610840D01*
X538297Y610903D01*
X538924Y610526D01*
X539740Y610338D01*
X540116Y610087D01*
X540179Y609899D01*
X541057Y609774D01*
X541558Y609648D01*
X541935Y609272D01*
X543189Y609147D01*
X543690Y608645D01*
X545070Y608520D01*
X545697Y608143D01*
X546763Y607955D01*
X547265Y607830D01*
X547955Y607516D01*
X549397Y607328D01*
X549899Y607203D01*
X550588Y606889D01*
X552470Y606764D01*
X552846Y606638D01*
X553536Y606450D01*
X554163Y606325D01*
X555417Y606199D01*
X556922Y606074D01*
X557424Y605948D01*
X558678Y605823D01*
X559681Y605698D01*
X561939Y605572D01*
X562253Y605509D01*
X562629Y605635D01*
X567645Y605509D01*
X568774Y605384D01*
X569151Y605509D01*
X570028Y605384D01*
X570530Y605259D01*
X572850Y605196D01*
X572788Y605384D01*
X572286Y605509D01*
X572098Y605698D01*
X572161Y606011D01*
X573415Y605886D01*
X573666Y605635D01*
X574167Y605509D01*
X574920Y605384D01*
X575547Y605133D01*
X576425Y605008D01*
X577428Y604757D01*
X578055Y604506D01*
X578557Y604381D01*
X579811Y604255D01*
X580438Y604005D01*
X581254Y603816D01*
X582759Y603691D01*
X583386Y603565D01*
X584076Y603377D01*
X584577Y603252D01*
X586584Y603127D01*
X588277Y602938D01*
X589281Y602688D01*
X592541Y602562D01*
X596868Y602500D01*
X597245Y602625D01*
X600380Y602750D01*
X601007Y603001D01*
X603014Y603127D01*
X604268Y603252D01*
X606024Y603377D01*
X606651Y603628D01*
X609849Y603942D01*
X610602Y604067D01*
X611104Y604193D01*
X611856Y604318D01*
X613236Y604444D01*
X613988Y604569D01*
X614490Y604694D01*
X615180Y604882D01*
X616434Y605008D01*
X617437Y605133D01*
X618064Y605384D01*
X618566Y605509D01*
X620385Y605698D01*
X620886Y605823D01*
X621639Y605948D01*
X622329Y606137D01*
X624335Y606262D01*
X625213Y606638D01*
X626468Y606764D01*
X627847Y606889D01*
X628474Y607265D01*
X628976Y607391D01*
X631359Y607516D01*
X631735Y607642D01*
X632738Y607892D01*
X633616Y608018D01*
X634996Y608143D01*
X635874Y608520D01*
X637693Y608708D01*
X637567Y608959D01*
X635999Y609147D01*
X635623Y609021D01*
X634118Y609147D01*
X633616Y609648D01*
X632989Y610025D01*
X632738Y610275D01*
X632237Y610401D01*
X631735Y610275D01*
X631547Y609711D01*
X631672Y609460D01*
X631986Y609147D01*
X632488Y609021D01*
X632676Y608833D01*
X632488Y608645D01*
X631986Y608520D01*
X628223Y608645D01*
X627596Y608896D01*
X627095Y609021D01*
X625527Y609209D01*
X624712Y609648D01*
X623896Y609962D01*
X623708Y610150D01*
X623207Y610275D01*
X622454Y610777D01*
X621388Y610965D01*
X620824Y611028D01*
X620510Y610840D01*
X620447Y610526D01*
X621576Y609899D01*
X621952Y609774D01*
X622454Y609648D01*
X622830Y609272D01*
X623332Y609147D01*
X624085Y609021D01*
X624837Y608520D01*
X626468Y608394D01*
X626656Y608206D01*
X626530Y607955D01*
X625088Y607892D01*
X624461Y608269D01*
X624085Y608394D01*
X622956Y608520D01*
X622454Y609021D01*
X621576Y609147D01*
X621074Y609648D01*
X620447Y609774D01*
X620071Y610275D01*
X619695Y610401D01*
X619319Y610777D01*
X619068Y610903D01*
X618566Y611404D01*
X618315Y611530D01*
X617813Y612031D01*
X617563Y612157D01*
X617186Y612533D01*
X616936Y612659D01*
X616246Y613223D01*
X615744Y613474D01*
X615619Y613725D01*
X614615Y614352D01*
X613236Y614979D01*
X612609Y615104D01*
X612107Y615230D01*
X611668Y615543D01*
X611292Y615668D01*
X609285Y615543D01*
X607654Y615668D01*
X606965Y616233D01*
X606149Y617048D01*
X605899Y617174D01*
X605648Y617424D01*
X605146Y617550D01*
X604394Y617675D01*
X603767Y617926D01*
X602951Y618240D01*
X602512Y618679D01*
X602262Y618804D01*
X601948Y619243D01*
X601572Y619494D01*
X601446Y619745D01*
X600945Y620246D01*
X600819Y620497D01*
X600568Y620748D01*
X600694Y621124D01*
X601007Y621187D01*
X601384Y621062D01*
X602387Y621187D01*
X602700Y621501D01*
X602826Y622002D01*
X602700Y622379D01*
X602262Y622817D01*
X600756Y623068D01*
X600255Y623194D01*
X599628Y623445D01*
X599377Y623570D01*
X599189Y623758D01*
X599063Y624009D01*
X598812Y624260D01*
X598687Y624511D01*
X598499Y624699D01*
X597621Y624950D01*
X597245Y624824D01*
X596618Y624573D01*
X596367Y624699D01*
X596179Y624887D01*
X596053Y625138D01*
X595865Y625326D01*
X595238Y625577D01*
X594862Y625953D01*
X594360Y626078D01*
X593858Y626580D01*
X593231Y626956D01*
X591099Y628461D01*
X590911Y628524D01*
X590785Y628775D01*
X590158Y629151D01*
X590033Y629402D01*
X589594Y629716D01*
X589218Y630092D01*
X588967Y630217D01*
X588465Y630719D01*
X588214Y630844D01*
X587713Y631346D01*
X587462Y631471D01*
X586333Y632600D01*
X586082Y632726D01*
X585831Y633102D01*
X585581Y633227D01*
X585392Y633415D01*
X585267Y633666D01*
X585079Y633854D01*
X584828Y633980D01*
X584515Y634419D01*
X584138Y634670D01*
X584013Y634921D01*
X583511Y635422D01*
X583386Y635673D01*
X582884Y636175D01*
X582759Y636426D01*
X582382Y636802D01*
X582257Y637053D01*
X581755Y637554D01*
X581630Y637805D01*
X581128Y638307D01*
X580752Y638934D01*
X580125Y639812D01*
X579874Y640063D01*
X579749Y640314D01*
X579247Y641066D01*
X579122Y641317D01*
X578871Y641568D01*
X578369Y642446D01*
X577742Y643575D01*
X577240Y644452D01*
X576864Y645330D01*
X576739Y645581D01*
X576488Y645832D01*
X576237Y646835D01*
X575735Y647588D01*
X575610Y648466D01*
X575359Y648717D01*
X575108Y649595D01*
X574983Y650222D01*
X574732Y650473D01*
X574481Y651476D01*
X574356Y652479D01*
X573979Y653357D01*
X573854Y654486D01*
X573289Y655176D01*
X573101Y655866D01*
X573227Y656367D01*
X573352Y657120D01*
X573227Y657496D01*
X573352Y663015D01*
X573603Y663642D01*
X573728Y664143D01*
X573854Y665021D01*
X574042Y665836D01*
X574167Y666338D01*
X574356Y667028D01*
X574544Y667843D01*
X574795Y668470D01*
X574983Y669035D01*
X575233Y670163D01*
X575610Y670540D01*
X575798Y671480D01*
X576237Y671919D01*
X576362Y672672D01*
X576739Y673048D01*
X577052Y673863D01*
X577491Y674302D01*
X577616Y674804D01*
X578118Y675306D01*
X578243Y675807D01*
X578494Y676058D01*
X578620Y676309D01*
X579184Y676999D01*
X579498Y677438D01*
X580187Y678379D01*
X580376Y678441D01*
X580501Y678692D01*
X580689Y679006D01*
X580940Y679131D01*
X581254Y679570D01*
X582759Y681075D01*
X582884Y681326D01*
X583072Y681514D01*
X583323Y681639D01*
X583699Y682016D01*
X583950Y682141D01*
X584326Y682517D01*
X584953Y682894D01*
X585204Y683145D01*
X585706Y683270D01*
X586082Y683772D01*
X586960Y684273D01*
X587838Y684900D01*
X588653Y685089D01*
X588842Y685277D01*
X589720Y685527D01*
X590347Y685904D01*
X590660Y686217D01*
X590535Y686719D01*
X590096Y686782D01*
X589469Y686531D01*
X588967Y686405D01*
X587775Y686217D01*
X586709Y685653D01*
X585330Y685527D01*
X584953Y685151D01*
X584452Y685026D01*
X583637Y684712D01*
X582696Y684273D01*
X582320Y683897D01*
X580438Y682894D01*
X579749Y682329D01*
X579561Y682141D01*
X579310Y682016D01*
X578620Y681326D01*
X578432Y680887D01*
X577616Y680448D01*
X577240Y679821D01*
X577052Y679633D01*
X576801Y679507D01*
X576488Y679068D01*
X576111Y678692D01*
X575986Y678441D01*
X575359Y678065D01*
X575233Y677814D01*
X574606Y676936D01*
X574356Y676309D01*
X574230Y676058D01*
X574042Y675870D01*
X573854Y675807D01*
X573666Y675118D01*
X573039Y674114D01*
X572850Y673926D01*
X572411Y672735D01*
X572098Y672421D01*
X571847Y671418D01*
X571220Y670414D01*
X570969Y669787D01*
X570656Y668470D01*
X570342Y667655D01*
X570217Y666652D01*
X570091Y666275D01*
X569966Y665398D01*
X569715Y664771D01*
X569590Y664269D01*
X569401Y663203D01*
X569276Y662199D01*
X569088Y661509D01*
X568900Y658562D01*
X568774Y658061D01*
X568586Y657496D01*
X568837Y656869D01*
X568774Y655050D01*
X569025Y653044D01*
X569151Y651664D01*
X569276Y651162D01*
X569590Y650347D01*
X569715Y649093D01*
X570091Y648215D01*
X570217Y647713D01*
X570342Y646585D01*
X570844Y646083D01*
X570969Y645079D01*
X571157Y644891D01*
X571471Y644954D01*
X571596Y645707D01*
X571471Y646083D01*
X571345Y646334D01*
X571095Y646961D01*
X570906Y648905D01*
X570781Y649657D01*
X570656Y650284D01*
X570593Y651100D01*
X570906Y651664D01*
X571283Y651539D01*
X571596Y650723D01*
X572349Y649344D01*
X572788Y649281D01*
X572976Y649469D01*
X573227Y650096D01*
X573352Y651225D01*
X573415Y651288D01*
X573603Y651100D01*
X573478Y649720D01*
X573227Y649469D01*
X573101Y648466D01*
X572976Y648090D01*
X573039Y647776D01*
X573728Y647839D01*
X573854Y647337D01*
X573979Y646585D01*
X574481Y645832D01*
X574795Y645268D01*
X574983Y645330D01*
X575108Y646208D01*
X575171Y646271D01*
X575359Y646083D01*
X575735Y645079D01*
X575986Y644829D01*
X576174Y644013D01*
X576425Y643888D01*
X576613Y643700D01*
X576739Y643073D01*
X576550Y642885D01*
X576362Y642822D01*
X576425Y642508D01*
X576927Y642634D01*
X577052Y642759D01*
X577240Y642571D01*
X577303Y641756D01*
X577805Y641630D01*
X578432Y640627D01*
X578745Y640314D01*
X579122Y639687D01*
X579372Y639436D01*
X579498Y638934D01*
X579749Y638683D01*
X579874Y638432D01*
X580125Y638181D01*
X580376Y637554D01*
X580564Y637366D01*
X580752Y637304D01*
X581128Y636676D01*
X581379Y636551D01*
X581505Y636049D01*
X581065Y635736D01*
X580877Y635046D01*
X581003Y634670D01*
X581191Y634607D01*
X581881Y634921D01*
X581755Y635798D01*
X581943Y635861D01*
X582570Y635109D01*
X583009Y634419D01*
X583260Y634168D01*
X583386Y633917D01*
X584138Y633415D01*
X584389Y633165D01*
X584515Y632914D01*
X585079Y632224D01*
X585330Y632099D01*
X585518Y631910D01*
X585204Y631597D01*
X584389Y631660D01*
X584515Y631910D01*
X584765Y632161D01*
X584640Y632412D01*
X584201Y632475D01*
X583574Y632224D01*
X583323Y632349D01*
X583260Y632663D01*
X583511Y633290D01*
X583386Y633666D01*
X583198Y633854D01*
X582884Y633666D01*
X582570Y633102D01*
X582382Y633290D01*
X582508Y633792D01*
X582633Y634043D01*
X582445Y634231D01*
X581693Y634482D01*
X581254Y634293D01*
X581379Y634043D01*
X581755Y633666D01*
X581881Y633290D01*
X582382Y632788D01*
X582508Y632287D01*
X582696Y632099D01*
X583135Y631910D01*
X583448Y631346D01*
X584076Y630970D01*
X584389Y630531D01*
X584765Y630280D01*
X584891Y629778D01*
X585204Y629590D01*
X585518Y629778D01*
X585643Y630029D01*
X585831Y630092D01*
X585894Y629778D01*
X585769Y629402D01*
X585894Y629026D01*
X586333Y628838D01*
X586521Y628649D01*
X586647Y628399D01*
X586960Y628085D01*
X587148Y628022D01*
X587399Y627395D01*
X587587Y627207D01*
X588277Y627019D01*
X588716Y626455D01*
X589594Y625953D01*
X590221Y625326D01*
X590848Y625075D01*
X591099Y625201D01*
X591475Y625326D01*
X591914Y625138D01*
X591789Y624762D01*
X591413Y624636D01*
X591475Y624197D01*
X592165Y624134D01*
X592291Y623884D01*
X592479Y623695D01*
X593043Y623382D01*
X593168Y623131D01*
X593357Y622943D01*
X593607Y622817D01*
X593984Y622441D01*
X594485Y622316D01*
X594674Y621877D01*
X595363Y621563D01*
X595426Y621626D01*
X595050Y621877D01*
X594924Y622379D01*
X594548Y622629D01*
X594611Y622943D01*
X594924Y622880D01*
X595112Y622441D01*
X595363Y622316D01*
X595489Y621689D01*
X595990Y621563D01*
X596241Y621312D01*
X596994Y621438D01*
X597182Y621877D01*
X597558Y622002D01*
X597495Y622190D01*
X597307Y622253D01*
X596994Y622817D01*
X596743Y622943D01*
X596429Y623382D01*
X596116Y623445D01*
X595928Y623256D01*
X595990Y622692D01*
X595551Y622755D01*
X595677Y623256D01*
X595928Y623507D01*
X596053Y624009D01*
X596241Y624197D01*
X596618Y624072D01*
X596806Y623884D01*
X596931Y623633D01*
X597307Y623256D01*
X597433Y623006D01*
X597934Y622755D01*
X598311Y622128D01*
X598436Y621877D01*
X598185Y621626D01*
X597809Y620999D01*
X597057Y620497D01*
X596806Y620372D01*
X596743Y620058D01*
X597119Y619933D01*
X598123Y619807D01*
X598311Y619619D01*
X598248Y619431D01*
X596743Y619557D01*
X596492Y619807D01*
X595489Y619933D01*
X594736Y620434D01*
X594046Y620623D01*
X593482Y621062D01*
X592980Y621187D01*
X592604Y621563D01*
X591977Y621940D01*
X591726Y622190D01*
X590848Y622692D01*
X590597Y622943D01*
X590347Y623068D01*
X589970Y623445D01*
X589406Y623758D01*
X589281Y624009D01*
X588591Y624197D01*
X588340Y624323D01*
X588089Y624573D01*
X587211Y624824D01*
X586584Y624950D01*
X586333Y625201D01*
X585831Y625326D01*
X585204Y625577D01*
X584828Y625953D01*
X584326Y626078D01*
X583950Y626455D01*
X583699Y626580D01*
X583198Y627082D01*
X583009Y627145D01*
X582884Y627395D01*
X582696Y627709D01*
X582445Y627834D01*
X582069Y628461D01*
X581881Y628524D01*
X581755Y628775D01*
X581191Y629465D01*
X580877Y629904D01*
X580501Y630280D01*
X580376Y630531D01*
X579874Y631032D01*
X579749Y631283D01*
X579561Y631471D01*
X579372Y631534D01*
X579247Y631785D01*
X578620Y632412D01*
X578494Y632663D01*
X578118Y633039D01*
X577993Y633290D01*
X577616Y633666D01*
X577366Y634293D01*
X576989Y634921D01*
X576864Y635422D01*
X576989Y635924D01*
X577178Y636112D01*
X577679Y635987D01*
X578055Y635610D01*
X578683Y635987D01*
X578933Y636237D01*
X579184Y636363D01*
X579372Y636927D01*
X579247Y638307D01*
X578745Y639436D01*
X578620Y639687D01*
X578118Y640063D01*
X577805Y640627D01*
X577554Y640752D01*
X577178Y641129D01*
X576927Y641254D01*
X576049Y641756D01*
X575672Y641881D01*
X574795Y641756D01*
X573979Y641191D01*
X573728Y640188D01*
X573979Y639561D01*
X573854Y639185D01*
X573039Y639122D01*
X572537Y639624D01*
X572286Y639749D01*
X572098Y639937D01*
X571973Y640188D01*
X571534Y640502D01*
X571095Y640941D01*
X570969Y641191D01*
X570405Y641881D01*
X569966Y642571D01*
X569715Y642822D01*
X569339Y643449D01*
X569088Y643700D01*
X568712Y644327D01*
X568461Y644578D01*
X568335Y645079D01*
X568084Y645205D01*
X567583Y646083D01*
X567332Y646334D01*
X567081Y646961D01*
X566705Y647337D01*
X566580Y647839D01*
X566329Y648090D01*
X565451Y649971D01*
X565325Y650222D01*
X565075Y650473D01*
X564824Y651100D01*
X564447Y651727D01*
X564322Y652103D01*
X564071Y652730D01*
X563820Y652981D01*
X563695Y653483D01*
X563507Y654173D01*
X563193Y654486D01*
X563068Y655364D01*
X562441Y656744D01*
X562315Y657496D01*
X561939Y658374D01*
X561625Y659691D01*
X561312Y660506D01*
X561061Y662011D01*
X560810Y662638D01*
X560622Y664582D01*
X560434Y666275D01*
X560183Y667279D01*
X560058Y670791D01*
X560183Y673801D01*
X560308Y674177D01*
X560559Y675180D01*
X560685Y676685D01*
X560936Y677312D01*
X561061Y677814D01*
X561186Y678190D01*
X561375Y679006D01*
X561563Y679445D01*
X561814Y680072D01*
X562002Y680761D01*
X562315Y681326D01*
X562441Y681827D01*
X563068Y683207D01*
X563193Y683458D01*
X563569Y683834D01*
X563444Y684336D01*
X563130Y684399D01*
X561751Y683772D01*
X559744Y683646D01*
X558866Y683270D01*
X558364Y683145D01*
X557173Y682956D01*
X556985Y682768D01*
X556734Y682643D01*
X556358Y682517D01*
X555856Y682392D01*
X555605Y682266D01*
X555229Y681890D01*
X554853Y681765D01*
X554477Y681389D01*
X554226Y681263D01*
X553975Y680887D01*
X553724Y680761D01*
X553410Y680448D01*
X553285Y680197D01*
X552909Y679946D01*
X552783Y679695D01*
X552595Y679382D01*
X552344Y679257D01*
X552031Y678818D01*
X551341Y678128D01*
X551153Y678065D01*
X551027Y677814D01*
X550839Y677626D01*
X550588Y677501D01*
X550087Y676999D01*
X549899Y676936D01*
X549773Y676685D01*
X549083Y676246D01*
X548707Y675870D01*
X548456Y675745D01*
X547829Y675118D01*
X547578Y674992D01*
X546889Y674177D01*
X546136Y673424D01*
X546011Y673174D01*
X545133Y672296D01*
X544756Y671668D01*
X544506Y671543D01*
X544129Y670916D01*
X543879Y670665D01*
X543753Y670414D01*
X543251Y669913D01*
X543126Y669662D01*
X542750Y669286D01*
X542373Y668659D01*
X542123Y668408D01*
X541746Y667781D01*
X541496Y667530D01*
X541370Y667279D01*
X540868Y666526D01*
X540743Y666275D01*
X540555Y666087D01*
X540367Y666025D01*
X539991Y665398D01*
X539489Y664520D01*
X539113Y664143D01*
X538862Y663516D01*
X538611Y663265D01*
X538360Y662638D01*
X538235Y662387D01*
X537858Y662011D01*
X537733Y661509D01*
X537607Y661259D01*
X537357Y661008D01*
X537231Y660255D01*
X536541Y660193D01*
X535726Y660632D01*
X536604Y661886D01*
X536730Y662764D01*
X536604Y663516D01*
X536040Y664332D01*
X535224Y664645D01*
X535036Y664708D01*
X534409Y664457D01*
X533782Y664081D01*
X533594Y663516D01*
X533469Y663015D01*
X533594Y662011D01*
X533719Y661635D01*
X533594Y661133D01*
X533406Y660945D01*
X532779Y660694D01*
X531838Y659754D01*
X531713Y658876D01*
X531964Y657872D01*
X532403Y657559D01*
X532841Y657120D01*
X533218Y656493D01*
X534158Y656430D01*
X534535Y656555D01*
X535036Y656681D01*
X535350Y656869D01*
X535475Y657120D01*
X535852Y657747D01*
X536604Y658123D01*
X536667Y658311D01*
X537043Y658437D01*
X537106Y657998D01*
X536667Y657684D01*
X536541Y657057D01*
X536353Y656869D01*
X536102Y655991D01*
X535977Y655489D01*
X535789Y653671D01*
X535663Y652667D01*
X535475Y652103D01*
X535350Y648591D01*
X535413Y644390D01*
X535350Y643324D01*
X535475Y642947D01*
X535538Y637492D01*
X535977Y637554D01*
X535852Y638683D01*
X535977Y639059D01*
X536102Y640690D01*
X536228Y641944D01*
X536102Y642320D01*
X536416Y642885D01*
X536667Y642759D01*
X536730Y641944D01*
X536604Y641568D01*
X536792Y640000D01*
X536855Y639436D01*
X536730Y639059D01*
X536855Y637931D01*
X537169Y637241D01*
X537858Y637053D01*
X537733Y636802D01*
X537357Y636426D01*
X537482Y635046D01*
X537733Y634795D01*
X537858Y633792D01*
X538046Y633729D01*
X538109Y634921D01*
X537984Y635297D01*
X538109Y636300D01*
X538360Y636927D01*
X538297Y637115D01*
X538046Y637241D01*
X537984Y637805D01*
X538172Y637993D01*
X538674Y637868D01*
X538862Y637680D01*
X538987Y637178D01*
X539489Y636049D01*
X539426Y635736D01*
X539238Y635673D01*
X538987Y635046D01*
X539175Y633604D01*
X539426Y633353D01*
X539802Y633227D01*
X540116Y632788D01*
X540367Y632537D01*
X540492Y632036D01*
X540680Y631848D01*
X540931Y631722D01*
X541245Y630907D01*
X541370Y630531D01*
X541997Y630405D01*
X542123Y630029D01*
X542248Y629402D01*
X542436Y629214D01*
X542812Y629339D01*
X542875Y628900D01*
X542624Y628649D01*
X542812Y627960D01*
X543251Y627521D01*
X543377Y627145D01*
X543816Y626831D01*
X543941Y626329D01*
X544129Y626141D01*
X544255Y625890D01*
X544694Y624950D01*
X545195Y624824D01*
X545383Y625012D01*
X545258Y625765D01*
X544882Y626016D01*
X544694Y626831D01*
X544129Y627145D01*
X544192Y628085D01*
X543941Y628210D01*
X543439Y627709D01*
X543251Y627772D01*
X543377Y628399D01*
X543628Y628649D01*
X543502Y629527D01*
X543063Y629716D01*
X542875Y630907D01*
X542499Y631158D01*
X542248Y631785D01*
X542185Y631973D01*
X541997Y631910D01*
X541872Y631660D01*
X541684Y631597D01*
X541558Y632224D01*
X541370Y632788D01*
X541872Y632914D01*
X541746Y634043D01*
X541245Y634795D01*
X541119Y636551D01*
X540994Y636927D01*
X540931Y637492D01*
X540618Y637053D01*
X540555Y636990D01*
X540116Y637429D01*
X540241Y637931D01*
X540492Y638181D01*
X540618Y639436D01*
X540492Y644829D01*
X540429Y644891D01*
X540241Y644327D01*
X540053Y643512D01*
X539928Y642007D01*
X539740Y641317D01*
X539802Y639122D01*
X539614Y639687D01*
X539489Y640564D01*
X539363Y640941D01*
X539552Y643386D01*
X539677Y643888D01*
X539802Y644515D01*
X539991Y645707D01*
X540179Y645895D01*
X540429Y645268D01*
X540555Y646396D01*
X540618Y647588D01*
X540492Y647964D01*
X540680Y649908D01*
X540931Y650535D01*
X541057Y651037D01*
X541182Y652166D01*
X541558Y653545D01*
X541872Y654235D01*
X542060Y655301D01*
X542499Y655991D01*
X542562Y656054D01*
X542624Y655238D01*
X542499Y654862D01*
X542373Y653984D01*
X541997Y653106D01*
X541809Y651413D01*
X541746Y651100D01*
Y650974D01*
X541496Y650096D01*
X541370Y649218D01*
X541245Y642697D01*
X541558Y637993D01*
X541872Y637304D01*
X542060Y635736D01*
X542311Y635109D01*
X542499Y634544D01*
X542624Y633666D01*
X542750Y633165D01*
X543126Y632788D01*
X543251Y631409D01*
X543753Y630907D01*
X543941Y629966D01*
X544380Y629527D01*
X544506Y628649D01*
X544631Y628399D01*
X545007Y628148D01*
X545133Y627395D01*
X545634Y626894D01*
X545760Y626267D01*
X546136Y625890D01*
X547014Y624260D01*
X547390Y623884D01*
X547892Y623006D01*
X548456Y622316D01*
X548644Y622128D01*
X548770Y621751D01*
X549272Y621375D01*
X549397Y620999D01*
X550149Y620246D01*
X550275Y619995D01*
X551153Y619118D01*
X551278Y618867D01*
X552595Y617550D01*
X552846Y617424D01*
X553034Y617236D01*
X553097Y617048D01*
X553348Y616923D01*
X553849Y616421D01*
X554288Y616233D01*
X554414Y615982D01*
X554602Y615794D01*
X554978Y615668D01*
X555480Y615167D01*
X555731Y615041D01*
X555919Y614853D01*
X556044Y614603D01*
X556232Y614414D01*
X556609Y614289D01*
X556859Y613913D01*
X557486Y613787D01*
X557737Y613411D01*
X558364Y613035D01*
X558615Y612784D01*
X559180Y612470D01*
X559305Y612220D01*
X559932Y612094D01*
X560183Y611843D01*
X560308Y611592D01*
X560936Y611467D01*
X561375Y611028D01*
X562002Y610777D01*
X562378Y610401D01*
X563256Y610275D01*
X563507Y609774D01*
X564385Y609648D01*
X564698Y609209D01*
X565451Y609084D01*
X565702Y608959D01*
X565890Y608520D01*
X567018Y608394D01*
X567269Y608018D01*
X568147Y607892D01*
X568523Y607767D01*
X568774Y607391D01*
X569276Y607265D01*
X570028Y607140D01*
X570405Y606764D01*
X571596Y606576D01*
X571847Y606325D01*
X571784Y606137D01*
X571283Y606011D01*
X570279Y606262D01*
X569401Y606638D01*
X568900Y606764D01*
X568523Y607140D01*
X568022Y607265D01*
X567269Y607391D01*
X567081Y607579D01*
X567018Y607767D01*
X566141Y607892D01*
X565827Y608206D01*
X565764Y608520D01*
X565388Y608394D01*
X564761Y608520D01*
X564259Y609021D01*
X563632Y609147D01*
X563130Y609648D01*
X562378Y609774D01*
X562190Y609962D01*
X562064Y610213D01*
X561437Y610338D01*
X561186Y610589D01*
X561061Y610840D01*
X560434Y610965D01*
X559869Y611530D01*
X559368Y611655D01*
X558992Y612031D01*
X558364Y612282D01*
X558114Y612659D01*
X557737Y612784D01*
X557236Y613286D01*
X556797Y613474D01*
X556671Y613725D01*
X556044Y613975D01*
X555605Y614414D01*
X555166Y614603D01*
X555041Y614853D01*
X554853Y615041D01*
X554288Y615355D01*
X554226Y615543D01*
X553222Y615794D01*
X550714Y615668D01*
X550338Y615794D01*
X548958Y616547D01*
X548707Y616797D01*
X547892Y617111D01*
X547453Y617550D01*
X546700Y617675D01*
X546073Y618051D01*
X544756Y618365D01*
X544067Y618553D01*
X543189Y618679D01*
X540555Y618804D01*
X540179Y619180D01*
X539802Y619306D01*
X538674Y618804D01*
X538611Y618992D01*
X539050Y619306D01*
X539113Y619995D01*
X538548Y620685D01*
X538046Y621438D01*
X537858Y621626D01*
X537733Y621877D01*
X537357Y622253D01*
X537231Y622504D01*
X536980Y623131D01*
X536855Y623633D01*
X537106Y624260D01*
X537357Y625263D01*
X537545Y625326D01*
X538172Y624699D01*
X538799Y624573D01*
X539175Y624699D01*
X539426Y624824D01*
X540116Y625514D01*
X540241Y626016D01*
X540116Y626517D01*
X539552Y627207D01*
X539363Y627395D01*
X539301Y627583D01*
X538799Y627709D01*
X538046Y627834D01*
X537858Y628022D01*
X537607Y628649D01*
X537231Y629026D01*
X537043Y629841D01*
X536604Y630280D01*
X536479Y631032D01*
X536667Y631221D01*
X537169Y631095D01*
X537670Y630343D01*
X538297Y630092D01*
X539238Y630280D01*
X539489Y630531D01*
X539991Y631534D01*
X539301Y632475D01*
X538674Y632726D01*
X537670Y632600D01*
X536918Y632224D01*
X536855Y632537D01*
X536980Y632914D01*
X536855Y633541D01*
X536604Y633792D01*
X536479Y634168D01*
X535914Y634732D01*
X534911Y634983D01*
X533531Y635109D01*
X532152Y635861D01*
X531462Y636426D01*
X531274Y636614D01*
X530772Y636739D01*
X530333Y636927D01*
X530459Y637304D01*
X531148Y637743D01*
X531399Y638369D01*
X531713Y638683D01*
X532465Y639937D01*
X532967Y641066D01*
X533092Y641568D01*
X533469Y642446D01*
X533594Y643700D01*
X533469Y647212D01*
X533218Y647462D01*
X532967Y648090D01*
X532841Y648591D01*
X532340Y649344D01*
X532152Y649783D01*
X531901Y649908D01*
X531713Y650096D01*
X531587Y650347D01*
X531399Y650535D01*
X531148Y650661D01*
X530897Y651037D01*
X530647Y651162D01*
X529769Y651789D01*
X529142Y651915D01*
X528765Y652291D01*
X527887Y652417D01*
X523874Y652291D01*
X523121Y651789D01*
X522494Y651539D01*
X522118Y651162D01*
X521679Y650974D01*
X521554Y650723D01*
X521366Y650535D01*
X521115Y650410D01*
X520299Y649595D01*
X520174Y649344D01*
X519923Y649218D01*
X519610Y648403D01*
X519234Y648278D01*
X519171Y649093D01*
X519547Y649469D01*
X519923Y650096D01*
X521617Y651789D01*
X522244Y652166D01*
X522369Y652417D01*
X523435Y652605D01*
X523874Y653044D01*
X526257Y653295D01*
X526633Y653169D01*
X527386Y653295D01*
X527699Y653608D01*
X528076Y655113D01*
X528389Y657057D01*
X528703Y658123D01*
X528640Y659566D01*
X529016Y659440D01*
X529894Y659942D01*
X529957Y660381D01*
X529643Y660820D01*
X528326Y661008D01*
X528452Y661259D01*
X529142Y661447D01*
X529769Y661572D01*
X529957Y661760D01*
X530082Y662764D01*
X530459Y663642D01*
X530584Y664143D01*
X530709Y664771D01*
X530960Y665021D01*
X531086Y665523D01*
X531211Y666401D01*
X531587Y667028D01*
X531713Y667404D01*
X531838Y668282D01*
X532340Y669035D01*
X532465Y669787D01*
X532967Y670540D01*
X533092Y671292D01*
X533469Y671668D01*
X533594Y672170D01*
X533970Y672797D01*
X534221Y673424D01*
X534597Y674052D01*
X534848Y674679D01*
X534974Y675055D01*
X535350Y675682D01*
X536102Y677062D01*
X536479Y677438D01*
X536792Y678253D01*
X537106Y678567D01*
X537482Y679194D01*
X537733Y679445D01*
X537858Y679946D01*
X538046Y680134D01*
X538235Y680197D01*
X538360Y680448D01*
X538548Y680761D01*
X538799Y680887D01*
X539301Y681765D01*
X539552Y681890D01*
X539740Y682078D01*
X539802Y682266D01*
X540053Y682392D01*
X540241Y682580D01*
X540367Y682831D01*
X540680Y683145D01*
X540931Y683270D01*
X541245Y683709D01*
X541809Y684273D01*
X542060Y684399D01*
X542562Y684900D01*
X542812Y685026D01*
X543439Y685653D01*
X543628Y685716D01*
X543753Y685966D01*
X543941Y686154D01*
X544192Y686280D01*
X544380Y686468D01*
X544443Y686656D01*
X544694Y686782D01*
X545133Y687221D01*
X545195Y687409D01*
X545446Y687534D01*
X546073Y688287D01*
X546700Y689290D01*
X546889Y689854D01*
X547014Y690732D01*
X547265Y690983D01*
X547390Y691485D01*
X547516Y693492D01*
X548017Y693993D01*
X548143Y694997D01*
X548582Y695185D01*
X548644Y694620D01*
D02*
G37*
G36*
X628662Y663140D02*
X628600Y662826D01*
X628286Y662889D01*
Y663015D01*
X628349Y663203D01*
X628662Y663140D01*
D02*
G37*
G36*
X620385Y662262D02*
X620259Y661635D01*
X619946Y661321D01*
X619632Y661384D01*
X619757Y662137D01*
X620071Y662325D01*
X620196D01*
X620385Y662262D01*
D02*
G37*
G36*
X627408Y663140D02*
X627283Y662764D01*
X626781Y662262D01*
X626656Y662011D01*
X626091Y661447D01*
X624837Y660820D01*
X624524Y661008D01*
X624837Y661321D01*
X625590Y661447D01*
X625778Y661635D01*
X625840Y661698D01*
X626405Y662262D01*
X626468Y662450D01*
X626718Y662576D01*
X627157Y663265D01*
X627220Y663328D01*
X627408Y663140D01*
D02*
G37*
G36*
X619632Y661259D02*
X619507Y660632D01*
Y660506D01*
X619319Y660318D01*
X619130Y660381D01*
X619256Y661133D01*
X619444Y661321D01*
X619632Y661259D01*
D02*
G37*
G36*
X632676Y662764D02*
X632801Y662262D01*
X632676Y661008D01*
X632488Y660820D01*
X632299Y660757D01*
X632049Y660130D01*
X631986Y660067D01*
X631798Y660506D01*
X632299Y661259D01*
X632550Y661886D01*
X632488Y661948D01*
X632299Y662638D01*
X632362Y662826D01*
X632676Y662764D01*
D02*
G37*
G36*
X618880Y659628D02*
Y659503D01*
X618817Y659315D01*
X618629Y659503D01*
X618754Y659879D01*
X618817Y659942D01*
X618880Y659628D01*
D02*
G37*
G36*
X522620Y660067D02*
X522682Y659879D01*
X522118Y659691D01*
X521617Y659566D01*
X521428Y659377D01*
X521366Y659315D01*
X521240Y659189D01*
X521177Y659503D01*
X521617Y660067D01*
X522118Y660193D01*
X522620Y660067D01*
D02*
G37*
G36*
X629916Y658876D02*
Y658750D01*
X629854Y658688D01*
X629603Y658813D01*
X629540Y658876D01*
X629728Y659064D01*
X629916Y658876D01*
D02*
G37*
G36*
X537733Y659879D02*
Y659628D01*
Y659503D01*
X537796Y658938D01*
X537545Y658562D01*
X537294Y658688D01*
X537231Y659628D01*
X537419Y659942D01*
X537733Y659879D01*
D02*
G37*
G36*
X632174Y659377D02*
Y659252D01*
X631923Y659001D01*
X631798Y658750D01*
X631484Y658437D01*
X631045Y658499D01*
X631171Y658876D01*
X631672Y659127D01*
X631923Y659754D01*
X632111Y659816D01*
X632174Y659377D01*
D02*
G37*
G36*
X623896Y660632D02*
X623583Y660318D01*
X622642Y660130D01*
X622454Y659816D01*
X622203Y659691D01*
X622015Y659503D01*
X621890Y659252D01*
X621451Y658938D01*
X621263Y658499D01*
X621074Y658437D01*
X620886Y658625D01*
X621012Y659001D01*
X621451Y659315D01*
X621702Y659691D01*
X621952Y659816D01*
X622329Y660193D01*
X622579Y660318D01*
X622956Y660820D01*
X623583Y661071D01*
X623834D01*
X623896Y660632D01*
D02*
G37*
G36*
X543753Y659377D02*
X543628Y658374D01*
X543314Y658061D01*
X543251Y658249D01*
Y658374D01*
X543377Y659252D01*
X543565Y659440D01*
X543753Y659377D01*
D02*
G37*
G36*
X619695Y658562D02*
X619757Y658499D01*
X620385Y658249D01*
X620510Y658123D01*
X620322Y657935D01*
X619946Y657810D01*
X619381Y658249D01*
X619256Y658625D01*
X619444Y658688D01*
X619695Y658562D01*
D02*
G37*
G36*
X571471Y659001D02*
X571596Y658499D01*
X571534Y657182D01*
X571032Y657308D01*
X570969Y657371D01*
Y657496D01*
X571095Y658625D01*
X571283Y659064D01*
X571471Y659001D01*
D02*
G37*
G36*
X535099Y658249D02*
Y658123D01*
Y657998D01*
X534911Y657810D01*
X534535Y657684D01*
X534284Y657308D01*
X533782Y657182D01*
X533218Y657496D01*
X533280Y657684D01*
X534284Y657935D01*
X534660Y658311D01*
X535099Y658249D01*
D02*
G37*
G36*
X543251Y657747D02*
Y657622D01*
X542938Y656305D01*
X542687Y656054D01*
X542624Y657120D01*
X543126Y657998D01*
X543189Y658061D01*
X543251Y657747D01*
D02*
G37*
G36*
X570906Y654800D02*
X570781Y653671D01*
X570656Y653922D01*
X570593Y653984D01*
X570718Y655991D01*
X570781Y656054D01*
X570906Y654800D01*
D02*
G37*
G36*
X572349Y661760D02*
Y659252D01*
Y659127D01*
X572223Y656618D01*
X571973Y655991D01*
X572098Y654988D01*
X572223Y654611D01*
X572035Y653922D01*
X571784Y652918D01*
X571659Y652793D01*
X571471Y652981D01*
X571596Y653483D01*
X571784Y654423D01*
X571847Y655113D01*
X571596Y655740D01*
X571471Y656367D01*
X571722Y657120D01*
X571973Y657245D01*
X572098Y657747D01*
X571973Y661259D01*
X571847Y661635D01*
X572035Y661823D01*
X572349Y661760D01*
D02*
G37*
G36*
X647225Y651476D02*
X647036Y651413D01*
X646974Y651476D01*
Y651601D01*
X647162Y651664D01*
X647225Y651476D01*
D02*
G37*
G36*
X646472Y652228D02*
X646347Y651978D01*
X645845Y651852D01*
X645594Y651727D01*
X645469Y651476D01*
X645281Y651288D01*
X644779Y651413D01*
X644716Y651601D01*
X644904Y651789D01*
X645531Y652040D01*
X645908Y652417D01*
X646033D01*
X646472Y652228D01*
D02*
G37*
G36*
X572913Y654423D02*
X573039Y653922D01*
X573101Y653106D01*
X572976Y652730D01*
Y652479D01*
X573039Y652417D01*
X573101Y651852D01*
X572725Y651476D01*
X572600Y650974D01*
X572474Y650723D01*
X572411Y650661D01*
X572349Y651978D01*
X572600Y652605D01*
X572537Y654298D01*
X572662Y654549D01*
X572913Y654423D01*
D02*
G37*
G36*
X658011Y650849D02*
Y650723D01*
X657383Y650598D01*
X656819Y650535D01*
X656756Y650598D01*
X656945Y650786D01*
X657822Y651037D01*
X658011Y650849D01*
D02*
G37*
G36*
X643587Y650974D02*
Y650849D01*
X643399Y650661D01*
X643148Y650535D01*
X642772Y650159D01*
X642584Y650222D01*
X642709Y650598D01*
X643148Y651037D01*
X643525Y651162D01*
X643587Y650974D01*
D02*
G37*
G36*
X656192Y650535D02*
X656756Y650473D01*
X656129Y650222D01*
X655440Y649908D01*
X655063D01*
X654812Y649783D01*
X654687Y649532D01*
X654185Y649407D01*
X653495Y649469D01*
X653621Y649720D01*
X653809Y649908D01*
X654687Y650034D01*
X654875Y650096D01*
X655001Y650347D01*
X655189Y650535D01*
X655690Y650661D01*
X656192Y650535D01*
D02*
G37*
G36*
X648541Y651162D02*
X648604Y651100D01*
X649168Y650410D01*
X649419Y650034D01*
X649796Y649908D01*
X649984Y649720D01*
X649858Y649469D01*
X649670Y649407D01*
X649231Y649720D01*
X649168Y649908D01*
X648918Y650034D01*
X648416Y650535D01*
X647914Y650661D01*
X647601Y650723D01*
X647475Y651100D01*
X648040Y651288D01*
X648541Y651162D01*
D02*
G37*
G36*
X653182Y648905D02*
X652304Y648779D01*
X650485Y648968D01*
X650360Y649218D01*
X650924Y649281D01*
X651050D01*
X653495Y649344D01*
X653182Y648905D01*
D02*
G37*
G36*
X667292Y648591D02*
X667542Y648466D01*
X667354Y648278D01*
X667104D01*
X665661Y648340D01*
X665724Y648654D01*
X666539Y648717D01*
X667292Y648591D01*
D02*
G37*
G36*
X643336D02*
Y648466D01*
X643148Y648278D01*
X642772Y648403D01*
X642709Y648968D01*
X642897Y649030D01*
X643336Y648591D01*
D02*
G37*
G36*
X574105Y649344D02*
X574230Y648842D01*
X574105Y648090D01*
X573791Y647902D01*
X573728Y649093D01*
Y649218D01*
X573917Y649532D01*
X574105Y649344D01*
D02*
G37*
G36*
X664532Y647964D02*
X664219Y647776D01*
X664031Y647964D01*
X664219Y648027D01*
X664344D01*
X664532Y647964D01*
D02*
G37*
G36*
X642458Y647588D02*
X642333Y647462D01*
Y647337D01*
X642270Y647149D01*
X641706Y647212D01*
X642082Y647839D01*
X642396Y647902D01*
X642458Y647588D01*
D02*
G37*
G36*
X641204Y647337D02*
X641142Y647149D01*
X640452Y647212D01*
Y647337D01*
X640515Y647400D01*
X640891Y647525D01*
X641204Y647337D01*
D02*
G37*
G36*
X637504Y646647D02*
X637818Y646585D01*
X637379Y646020D01*
X637316Y646083D01*
X637003Y646396D01*
X636125Y646647D01*
X635749Y646522D01*
X635310Y646585D01*
X635372Y646898D01*
X636438Y646835D01*
X636877Y646898D01*
X637504Y646647D01*
D02*
G37*
G36*
X574732Y647713D02*
X574857Y647212D01*
X574732Y646835D01*
X574669Y646773D01*
X574481Y646961D01*
Y647086D01*
X574356Y647462D01*
X574481Y647839D01*
X574544Y647902D01*
X574732Y647713D01*
D02*
G37*
G36*
X628662Y647337D02*
X628537Y646835D01*
Y646710D01*
X628349Y646522D01*
X628161Y646710D01*
X628286Y647462D01*
X628474Y647525D01*
X628662Y647337D01*
D02*
G37*
G36*
X640201Y646835D02*
X640076Y646585D01*
Y646459D01*
X639637Y646396D01*
X639323Y646710D01*
X639386Y646898D01*
X640201Y646835D01*
D02*
G37*
G36*
X518857Y647902D02*
X519045Y647713D01*
X519108Y646898D01*
X519045Y646585D01*
X519171Y646208D01*
X519359Y645518D01*
X519610Y645393D01*
X520111Y644891D01*
X520864Y644766D01*
X521240Y644641D01*
X522432Y644829D01*
X522871Y645268D01*
X523310Y645456D01*
X523435Y647086D01*
X523623Y647274D01*
X524313Y647462D01*
X524627Y647525D01*
X525504Y647149D01*
X526445Y646961D01*
X526571Y646585D01*
X526132Y646396D01*
X525755Y646522D01*
X525316Y646710D01*
X525191Y646961D01*
X524376Y647023D01*
X524188Y646835D01*
X523937Y645957D01*
X523811Y645456D01*
X523435Y645079D01*
X523310Y644703D01*
X523121Y644515D01*
X522871Y644390D01*
X522494Y644013D01*
X521052Y643951D01*
X520049Y644076D01*
X519672Y644327D01*
X519547Y644578D01*
X519296Y644703D01*
X518983Y645518D01*
X518544Y645581D01*
Y645707D01*
Y645832D01*
X518606Y648027D01*
X518857Y647902D01*
D02*
G37*
G36*
X634933Y646208D02*
X634808Y645957D01*
X634494Y645895D01*
X634432Y645957D01*
X634683Y646208D01*
X634745Y646271D01*
X634933Y646208D01*
D02*
G37*
G36*
X659766Y650473D02*
X659892Y650222D01*
X660080Y650034D01*
X660582Y649908D01*
X661021Y649469D01*
X661146Y649218D01*
X661585Y648905D01*
X661773Y648717D01*
X662024Y648215D01*
X662087Y648152D01*
X662275Y647964D01*
X662588Y647400D01*
X663278Y647337D01*
X663027Y647086D01*
X662777Y646208D01*
X662714Y645769D01*
X662526Y645957D01*
X662150Y646835D01*
X662024Y647337D01*
X661522Y648215D01*
X661146Y648591D01*
X661021Y648968D01*
X660833Y649156D01*
X660582Y649281D01*
X659955Y649657D01*
X659704Y650034D01*
X658700Y650159D01*
X658512Y650347D01*
X658638Y650598D01*
X659327Y650661D01*
X659766Y650473D01*
D02*
G37*
G36*
X527574Y646083D02*
X527511Y645769D01*
X527198Y645832D01*
X527135Y645895D01*
X526947Y645957D01*
X526821Y646334D01*
X527260Y646396D01*
X527574Y646083D01*
D02*
G37*
G36*
X634306Y645707D02*
Y645581D01*
X634244Y645518D01*
X633993Y645268D01*
X633679Y645330D01*
X633805Y645581D01*
X633993Y645769D01*
X634306Y645707D01*
D02*
G37*
G36*
X662777Y645079D02*
Y644954D01*
X662714Y644641D01*
X662526Y644829D01*
X662651Y645330D01*
X662714Y645393D01*
X662777Y645079D01*
D02*
G37*
G36*
X633303Y644327D02*
X633240Y644264D01*
X633052Y644452D01*
X633177Y644703D01*
X633240Y644766D01*
X633303Y644327D01*
D02*
G37*
G36*
X634181Y643825D02*
X634118Y643512D01*
X633491D01*
X633428Y643825D01*
X633616Y644013D01*
X634181Y643825D01*
D02*
G37*
G36*
X633303Y643073D02*
X633240Y643010D01*
X633115D01*
X632927Y643073D01*
X633052Y643324D01*
X633240Y643386D01*
X633303Y643073D01*
D02*
G37*
G36*
X619256Y640063D02*
X619068Y640000D01*
X619005Y640063D01*
X619193Y640125D01*
X619256Y640063D01*
D02*
G37*
G36*
X618002Y640188D02*
X617876Y639937D01*
X617312Y639875D01*
X617249Y640063D01*
X617437Y640251D01*
X617939D01*
X618002Y640188D01*
D02*
G37*
G36*
X528013Y645393D02*
X528201Y645205D01*
X528452Y644202D01*
X528515Y642383D01*
X528452Y640815D01*
X528640Y640752D01*
X528954Y641442D01*
X529016Y642007D01*
X529204Y641819D01*
X529330Y640815D01*
X529016Y640376D01*
X528765Y640251D01*
X528577Y640063D01*
X528201Y639436D01*
X528013Y639248D01*
X524501Y639122D01*
X524250Y638997D01*
X523999Y638746D01*
X523121Y638244D01*
X522808Y637931D01*
X522557Y637304D01*
X522306Y637053D01*
X522181Y636049D01*
X521240Y635861D01*
X520989Y635485D01*
X520550Y635297D01*
X520425Y634795D01*
X520237Y634607D01*
X519986Y634482D01*
X519861Y633980D01*
X519986Y632726D01*
X520362Y632600D01*
X520550Y632412D01*
X521052Y631534D01*
X521617Y631471D01*
X521867Y631722D01*
X521930Y631534D01*
X521805Y631158D01*
X521867Y630844D01*
X523560Y630907D01*
X525065Y630782D01*
X525003Y630593D01*
X524752Y630468D01*
X524376Y630343D01*
X523372Y630468D01*
X522745Y630217D01*
X521993Y630343D01*
X521805Y630531D01*
X521742Y630719D01*
X520989Y630844D01*
X519986Y631848D01*
X519798Y631910D01*
X519547Y632537D01*
X519171Y632914D01*
X519296Y634544D01*
X519672Y634921D01*
X519798Y635422D01*
X519986Y635610D01*
X520237Y635736D01*
X520550Y636175D01*
X520989Y636363D01*
X521617Y636990D01*
X521867Y637115D01*
X522055Y637680D01*
X522244Y638369D01*
X522808Y638809D01*
X522933Y639059D01*
X522996Y639122D01*
X523623Y639373D01*
X524313Y639561D01*
X524877Y639749D01*
X527323Y639687D01*
X527699Y640063D01*
X527574Y640941D01*
X527699Y641317D01*
X527574Y641819D01*
X527637Y645518D01*
X528013Y645393D01*
D02*
G37*
G36*
X642897Y639624D02*
X642960Y639561D01*
X642897Y639373D01*
X642647Y639498D01*
X642584Y639687D01*
X642772Y639749D01*
X642897Y639624D01*
D02*
G37*
G36*
X621890Y639561D02*
X621827Y639373D01*
X621702D01*
X621388Y639436D01*
X621513Y639687D01*
X621702Y639749D01*
X621890Y639561D01*
D02*
G37*
G36*
X616998Y639436D02*
X616810Y639373D01*
X616748Y639436D01*
X616936Y639624D01*
X616998Y639436D01*
D02*
G37*
G36*
X620510Y639561D02*
X620385Y639310D01*
X620071Y639248D01*
X619946D01*
X619695Y639373D01*
X619632Y639687D01*
X620322Y639749D01*
X620510Y639561D01*
D02*
G37*
G36*
X561751Y639749D02*
X561939Y639561D01*
X561876Y639248D01*
X559807Y639310D01*
X559180Y639185D01*
X558929Y638934D01*
X558803Y638683D01*
X558364Y638369D01*
X557988Y637743D01*
X557863D01*
X557800Y637680D01*
X557486Y637366D01*
X557048Y637429D01*
X557173Y637680D01*
X557549Y638056D01*
X557675Y638558D01*
X558114Y638871D01*
X558364Y639248D01*
X558992Y639624D01*
X559619Y639875D01*
X561751Y639749D01*
D02*
G37*
G36*
X668985Y648027D02*
X669361Y647651D01*
X669612Y647525D01*
X670051Y647212D01*
X670427Y646585D01*
X670678Y646459D01*
X670929Y645832D01*
X671305Y645456D01*
X671431Y644578D01*
X671305Y643825D01*
X671117Y643637D01*
X670929Y643575D01*
X670678Y642947D01*
X669863Y642132D01*
X669675Y642069D01*
X669549Y641819D01*
X669236Y641505D01*
X668985Y641380D01*
X668922Y639937D01*
X669549Y639561D01*
X669486Y639122D01*
X669110Y639248D01*
X668859Y639875D01*
X668609Y640000D01*
X668420Y640188D01*
X668546Y641191D01*
X668922Y641568D01*
X669298Y642195D01*
X669863Y642759D01*
X669926Y642822D01*
X670176Y643073D01*
X670302Y643324D01*
X670490Y643512D01*
X670741Y643637D01*
X670803Y645456D01*
X670302Y645957D01*
X670051Y646585D01*
X669110Y647525D01*
X668107Y647776D01*
X667919Y647964D01*
X668107Y648152D01*
X668985Y648027D01*
D02*
G37*
G36*
X537733Y648717D02*
X537858Y647964D01*
X537357Y647839D01*
X537231Y646961D01*
X537545Y646396D01*
X537733Y646334D01*
X537607Y645205D01*
X537357Y645079D01*
X537294Y644515D01*
X537482Y642822D01*
X537670Y641881D01*
X538235Y640564D01*
X538360Y640063D01*
X538235Y639059D01*
X538172Y638997D01*
X538046D01*
X537858Y639059D01*
X537733Y639561D01*
X537607Y640439D01*
X537482Y640941D01*
X537294Y641756D01*
X537169Y642759D01*
X536918Y643386D01*
X536855Y644452D01*
X536980Y644829D01*
X536855Y646083D01*
X536730Y646334D01*
X536855Y646710D01*
X536980Y647337D01*
X536855Y647713D01*
X536980Y648090D01*
X537357Y648466D01*
X537482Y648842D01*
X537545Y648905D01*
X537733Y648717D01*
D02*
G37*
G36*
X614176Y638997D02*
X614239Y638683D01*
X614176Y638620D01*
X613675Y638746D01*
X612797Y638620D01*
X612421Y638495D01*
X611668Y638620D01*
X611605Y638809D01*
X611793Y638997D01*
X612295Y639122D01*
X614176Y638997D01*
D02*
G37*
G36*
X608909Y640752D02*
X609097Y640564D01*
X609160Y640376D01*
X609912Y640251D01*
X610163Y639875D01*
X610414Y639749D01*
X610602Y639561D01*
X610915Y638997D01*
X611354Y638809D01*
X611166Y638620D01*
X610915Y638746D01*
X610665Y638997D01*
X610163Y639122D01*
X609975Y639436D01*
Y639561D01*
X609787Y639749D01*
X609222Y640063D01*
X609097Y640314D01*
X607027Y640376D01*
X606024Y639749D01*
X605773Y639624D01*
X605522Y639373D01*
X605334Y639436D01*
X605710Y640063D01*
X606024Y640376D01*
X606400Y640502D01*
X606777Y640878D01*
X608909Y640752D01*
D02*
G37*
G36*
X616622Y639185D02*
X616497Y638683D01*
X616309Y638495D01*
X616246Y638558D01*
X616183Y638620D01*
X616120Y638934D01*
X616434Y639248D01*
X616622Y639185D01*
D02*
G37*
G36*
X539363Y638432D02*
X539301Y638244D01*
X539175D01*
X539113Y638307D01*
X539175Y638495D01*
X539363Y638432D01*
D02*
G37*
G36*
X537858Y638558D02*
X537733Y638307D01*
X537545Y638244D01*
X537357Y638432D01*
X537482Y638558D01*
Y638683D01*
X537670Y638746D01*
X537858Y638558D01*
D02*
G37*
G36*
X622579Y638997D02*
X622768Y638558D01*
X622956Y638369D01*
X623269Y638307D01*
Y638181D01*
X622956Y638119D01*
X622705Y638369D01*
X622141Y638683D01*
X622203Y639122D01*
X622579Y638997D01*
D02*
G37*
G36*
X642584Y638307D02*
X642458Y638056D01*
X642270Y637993D01*
X642145Y638119D01*
X642082Y638181D01*
X642270Y638369D01*
X642584Y638307D01*
D02*
G37*
G36*
X670615Y638495D02*
X671431Y638558D01*
X671807Y638307D01*
X671681Y638056D01*
X671242Y637993D01*
X671117D01*
X669675Y637931D01*
X669549Y638432D01*
X669675Y638683D01*
X669988Y638746D01*
X670615Y638495D01*
D02*
G37*
G36*
X605209Y638683D02*
X605146Y637993D01*
X604644Y637868D01*
X604582Y637931D01*
X604331Y638181D01*
X604456Y638432D01*
X604644Y638746D01*
X605021Y638871D01*
X605209Y638683D01*
D02*
G37*
G36*
X625151Y637680D02*
X625088Y637492D01*
X624837Y637617D01*
X624774Y637680D01*
X624649Y637931D01*
X624837Y637993D01*
X625151Y637680D01*
D02*
G37*
G36*
X604206Y638181D02*
X603641Y637993D01*
X603014Y637868D01*
X602826Y637680D01*
X602700Y637429D01*
X602262Y637366D01*
X602073Y637554D01*
X602387Y637993D01*
X602763Y638119D01*
X602951Y638307D01*
X603014Y638495D01*
X603516Y638620D01*
X603767D01*
X604206Y638181D01*
D02*
G37*
G36*
X636940Y639059D02*
X636877Y638746D01*
X636627Y638620D01*
X636501Y638119D01*
X636376Y637366D01*
X636250Y637241D01*
X636188Y637304D01*
X635937Y637931D01*
X636062Y638432D01*
X636250Y638620D01*
X636501Y638746D01*
X636752Y639122D01*
X636940Y639059D01*
D02*
G37*
G36*
X642208Y637178D02*
X642145Y637115D01*
X642082Y637178D01*
X642145Y637241D01*
X642208Y637178D01*
D02*
G37*
G36*
X556546Y637053D02*
X556483Y636990D01*
X556421Y637053D01*
X556483Y637115D01*
X556546Y637053D01*
D02*
G37*
G36*
X529832D02*
X529769Y636990D01*
X529581Y637053D01*
X529769Y637115D01*
X529832Y637053D01*
D02*
G37*
G36*
X562880Y638620D02*
X563193Y637931D01*
X563068Y637178D01*
X562880Y636990D01*
X562629Y636865D01*
X562378Y636614D01*
X562127Y636488D01*
X561751Y636112D01*
X561061Y636175D01*
X560810Y635924D01*
X560685Y635422D01*
X560622Y632851D01*
X560810Y632161D01*
X560873Y631471D01*
X561124Y631346D01*
X561312Y631158D01*
X561437Y630782D01*
X562378Y629841D01*
X563005Y629465D01*
X563256Y629214D01*
X564886Y628461D01*
X565576Y628273D01*
X565890Y627960D01*
X566705Y627772D01*
X567144Y627333D01*
X567645Y627207D01*
X568022Y626831D01*
X568900Y626329D01*
X569151Y626078D01*
X569401Y625953D01*
X569778Y625577D01*
X570028Y625451D01*
X570530Y624950D01*
X571157Y624573D01*
X571408Y624323D01*
X571659Y624197D01*
X572035Y623821D01*
X572537Y623695D01*
X572725Y623507D01*
X572850Y623256D01*
X573603Y622880D01*
X573791Y622692D01*
X574418Y622441D01*
X574920Y622316D01*
X575171Y622190D01*
X575798Y621940D01*
X579937Y622065D01*
X580313Y622190D01*
X581379Y622253D01*
X582006Y622128D01*
X583009Y621877D01*
X584138Y621751D01*
X584703Y621187D01*
X585581Y621062D01*
X585957Y620685D01*
X586647Y620497D01*
X587462Y620058D01*
X588591Y619557D01*
X589469Y619055D01*
X590096Y618804D01*
X590723Y618679D01*
X591099Y618302D01*
X592040Y618114D01*
X592855Y617675D01*
X593733Y617550D01*
X593984Y617174D01*
X594485Y617048D01*
X595175Y616860D01*
X595489Y616547D01*
X596116Y616296D01*
X596492Y615919D01*
X596743Y615794D01*
X598060Y614477D01*
X598185Y614226D01*
X599001Y613411D01*
X599189Y613348D01*
X599251Y613286D01*
X599565Y612847D01*
X600067Y612596D01*
X600192Y612345D01*
X601195Y612094D01*
X602011Y611781D01*
X603641Y611530D01*
X604519Y611153D01*
X605146Y610903D01*
X605334Y610714D01*
X605397Y610526D01*
X605899Y610401D01*
X606651Y610275D01*
X606902Y610025D01*
X608407Y609648D01*
X609034Y609272D01*
X612295Y609398D01*
X612671Y609523D01*
X612922Y609398D01*
X612985Y609335D01*
X612546Y608770D01*
X611919Y608520D01*
X610665Y608394D01*
X608783Y608520D01*
X608156Y608896D01*
X607027Y609147D01*
X606777Y609398D01*
X606149Y609648D01*
X605397Y609774D01*
X605021Y610150D01*
X604519Y610275D01*
X603767Y610401D01*
X603139Y610777D01*
X602262Y610903D01*
X601572Y611091D01*
X601384Y611279D01*
X600882Y611404D01*
X600192Y611592D01*
X599879Y611906D01*
X599251Y612157D01*
X598624Y612784D01*
X598436Y612847D01*
X598311Y613097D01*
X598123Y613286D01*
X597934Y613348D01*
X597809Y613599D01*
X597621Y613787D01*
X597433Y613850D01*
X597307Y614101D01*
X597119Y614414D01*
X596868Y614540D01*
X596680Y614728D01*
X596555Y614979D01*
X595802Y615606D01*
X595363Y615794D01*
X594987Y616170D01*
X593921Y616358D01*
X593482Y616797D01*
X592416Y616986D01*
X591977Y617299D01*
X591350Y617550D01*
X590848Y617675D01*
X590472Y618051D01*
X589469Y618177D01*
X589092Y618553D01*
X588403Y618741D01*
X587964Y619055D01*
X587337Y619306D01*
X586960Y619431D01*
X586208Y619933D01*
X585706Y620058D01*
X585455Y620309D01*
X584953Y620434D01*
X584326Y620811D01*
X584076Y621062D01*
X582947Y621187D01*
X582320Y621438D01*
X581505Y621626D01*
X581316Y621689D01*
X580940Y621563D01*
X579874Y621375D01*
X579247Y621250D01*
X577554Y621062D01*
X575422Y621187D01*
X574544Y621563D01*
X573854Y621751D01*
X573415Y622190D01*
X572788Y622316D01*
X571910Y622943D01*
X571659Y623068D01*
X571157Y623570D01*
X570906Y623695D01*
X570530Y624072D01*
X569903Y624448D01*
X569652Y624699D01*
X569213Y624887D01*
X569088Y625138D01*
X568900Y625326D01*
X568649Y625451D01*
X567144Y626455D01*
X566517Y626831D01*
X566266Y627082D01*
X565639Y627207D01*
X565012Y627583D01*
X564510Y627709D01*
X563883Y628085D01*
X563256Y628336D01*
X563005Y628461D01*
X562754Y628712D01*
X561876Y629214D01*
X561186Y629904D01*
X561061Y630154D01*
X560685Y630531D01*
X560371Y631346D01*
X560183Y631534D01*
X560058Y632412D01*
X560120Y633604D01*
X559932Y634168D01*
X560058Y634544D01*
X559995Y637115D01*
X560371Y637241D01*
X560873Y637115D01*
X561249Y636739D01*
X561751Y636865D01*
X562441Y637554D01*
X562566Y638056D01*
X562629Y638746D01*
X562880Y638620D01*
D02*
G37*
G36*
X601697Y637304D02*
X601572Y636927D01*
X600819Y636551D01*
X600631Y636363D01*
X600443Y636551D01*
Y636802D01*
X600506Y636865D01*
X601007Y637366D01*
X601697Y637304D01*
D02*
G37*
G36*
X594799Y638307D02*
X594924Y637805D01*
X594987Y637366D01*
X595363Y637241D01*
X595551Y637053D01*
Y636927D01*
Y636802D01*
X595489Y636363D01*
X595050Y636426D01*
X594924Y636927D01*
X594862Y637366D01*
X594360Y637492D01*
X594297Y638056D01*
X594485Y638369D01*
X594799Y638307D01*
D02*
G37*
G36*
X639511Y637366D02*
X639887Y636865D01*
X640515Y636614D01*
X640577Y636300D01*
X640515Y636237D01*
X640389D01*
X639637Y636363D01*
X639386Y636739D01*
X639010Y636865D01*
X638947Y637178D01*
X639260Y637492D01*
X639511Y637366D01*
D02*
G37*
G36*
X637191Y636802D02*
X637254Y636739D01*
X638759Y636614D01*
X638821Y636551D01*
X638633Y636237D01*
X636752Y636363D01*
X636564Y636676D01*
X636752Y636865D01*
X637191Y636802D01*
D02*
G37*
G36*
X650235Y636426D02*
X650172Y636112D01*
X649545Y636237D01*
X649482Y636300D01*
X649607Y636927D01*
X650046Y636990D01*
X650235Y636426D01*
D02*
G37*
G36*
X672622Y637743D02*
X672936Y637429D01*
X673061Y637178D01*
X673437Y636551D01*
X673563Y636426D01*
X673625Y636363D01*
X673688Y635798D01*
X673625Y635736D01*
X673312Y636049D01*
X672998Y636614D01*
X672810Y636676D01*
X672685Y637178D01*
X672371Y637492D01*
X672183Y637554D01*
X672120Y637868D01*
X672622Y637743D01*
D02*
G37*
G36*
X595928Y636175D02*
X595990Y636112D01*
X596179Y635924D01*
X596053Y635422D01*
X595740Y635359D01*
X595551Y635548D01*
X595614Y636237D01*
X595928Y636175D01*
D02*
G37*
G36*
X551027Y640314D02*
X551278Y638934D01*
X551655Y638683D01*
X551780Y638181D01*
X551905Y637554D01*
X552156Y637429D01*
X552470Y636614D01*
X553034Y636049D01*
X553159Y635798D01*
X553787Y635673D01*
X554853Y635610D01*
X555542Y636175D01*
X556107Y636865D01*
X556358Y636990D01*
X556421Y636802D01*
X555793Y635924D01*
X555605Y635109D01*
X554978Y634858D01*
X553348Y634983D01*
X553285Y635046D01*
X553222Y635109D01*
X553034Y635297D01*
X552971Y635485D01*
X552344Y635861D01*
X552031Y636300D01*
X551655Y636676D01*
X551466Y637366D01*
X551027Y637805D01*
X550902Y638683D01*
X550526Y639059D01*
X550400Y639687D01*
X550714Y640376D01*
X551027Y640314D01*
D02*
G37*
G36*
X650235Y635171D02*
X650109Y634795D01*
X649545Y634607D01*
X649357Y634670D01*
X649482Y635297D01*
X649545Y635359D01*
X650235Y635171D01*
D02*
G37*
G36*
X596680Y635046D02*
Y634921D01*
X596618Y634482D01*
X596241Y634607D01*
X596179Y635046D01*
X596367Y635234D01*
X596680Y635046D01*
D02*
G37*
G36*
X674315Y635297D02*
Y634795D01*
Y634670D01*
X674190Y634419D01*
X674002Y634356D01*
X673939Y635422D01*
X674127Y635485D01*
X674315Y635297D01*
D02*
G37*
G36*
X667041Y636300D02*
X667166Y635798D01*
X667041Y634544D01*
X666915Y634419D01*
X666853Y634356D01*
X666602Y634231D01*
X666539Y635924D01*
X666727Y636363D01*
X667041Y636300D01*
D02*
G37*
G36*
X540241Y635548D02*
X540492Y634921D01*
Y634795D01*
X540367Y634043D01*
X540179Y633604D01*
X539991Y633666D01*
X539865Y634168D01*
X539740Y635046D01*
X539614Y635548D01*
X539677Y635987D01*
X540241Y635548D01*
D02*
G37*
G36*
X651113Y634795D02*
X651614Y633541D01*
Y633415D01*
X651426Y633353D01*
X650736Y633792D01*
X650799Y634858D01*
X651113Y634795D01*
D02*
G37*
G36*
X674252Y633729D02*
X674315Y633415D01*
X674127Y633227D01*
X673939Y633290D01*
Y633415D01*
X674002Y633854D01*
X674252Y633729D01*
D02*
G37*
G36*
X653495Y633290D02*
X653307Y633227D01*
X653245Y633415D01*
Y633541D01*
X653370Y633792D01*
X653433Y633854D01*
X653495Y633290D01*
D02*
G37*
G36*
X625966Y636614D02*
X626154Y636426D01*
X626217Y636237D01*
X626844Y636112D01*
X627157Y635673D01*
X627408Y635422D01*
X627471Y635109D01*
X627408Y634670D01*
X627534Y634544D01*
Y634419D01*
X627722Y634231D01*
X628537Y634168D01*
X628662Y633917D01*
X629415Y633541D01*
X629666Y633290D01*
X629603Y632976D01*
X628788Y633415D01*
X628662Y633666D01*
X628474Y633854D01*
X626530Y633792D01*
X626656Y634293D01*
X626907Y634544D01*
X626781Y635422D01*
X626593Y635610D01*
X626342Y635736D01*
X626154Y635924D01*
X626029Y636175D01*
X625401Y636300D01*
X625151Y636551D01*
X625339Y636990D01*
X625966Y636614D01*
D02*
G37*
G36*
X597119Y634231D02*
X597307Y634043D01*
X597495Y633604D01*
X597746Y633478D01*
X597934Y633039D01*
X597872Y632976D01*
X597495Y633102D01*
X597370Y633604D01*
X596994Y633729D01*
X596806Y633917D01*
X596868Y634356D01*
X597119Y634231D01*
D02*
G37*
G36*
X541119Y633917D02*
X541182Y632851D01*
X540743Y633039D01*
X540868Y633917D01*
X540931Y633980D01*
X541119Y633917D01*
D02*
G37*
G36*
X649294Y636112D02*
X649357Y636049D01*
X649043Y635485D01*
X648792Y635359D01*
X648604Y635171D01*
X648729Y634293D01*
X648918Y634105D01*
X649106Y634043D01*
X649168Y633227D01*
X649607Y633039D01*
X649545Y632600D01*
X649231Y632663D01*
X649043Y633227D01*
X648667Y633353D01*
X648479Y633541D01*
X648353Y634043D01*
X648290Y634231D01*
X648228Y634293D01*
X648353Y635798D01*
X648792Y636237D01*
X649294Y636112D01*
D02*
G37*
G36*
X626279Y633415D02*
X625966Y633102D01*
X625715D01*
X625527Y632914D01*
X625401Y632663D01*
X625339Y632600D01*
X625276Y633039D01*
X625527Y633290D01*
X625652Y633541D01*
X626217Y633729D01*
X626279Y633415D01*
D02*
G37*
G36*
X599879Y633604D02*
X599941Y633541D01*
X599502Y632976D01*
X599126Y632851D01*
X598687Y632412D01*
X598624Y632099D01*
X598123Y632224D01*
X598060Y632663D01*
X598248Y632851D01*
X598750Y632976D01*
X598875D01*
X599063Y633039D01*
X599377Y633729D01*
X599879Y633604D01*
D02*
G37*
G36*
X651865Y631910D02*
X651740Y631158D01*
X651677Y631095D01*
X651489Y631283D01*
X651363Y632287D01*
X651426Y632349D01*
X651677Y632475D01*
X651865Y631910D01*
D02*
G37*
G36*
X585142Y631032D02*
X585079Y630970D01*
X585016Y631032D01*
Y631158D01*
X585079Y631346D01*
X585142Y631032D01*
D02*
G37*
G36*
X673751Y632726D02*
X673813Y632287D01*
X673625Y631973D01*
X673186Y631785D01*
X673061Y631032D01*
X672873Y630844D01*
X672559Y630907D01*
X672685Y631660D01*
X672747Y631722D01*
X673186Y632036D01*
X673312Y632663D01*
X673500Y632851D01*
X673751Y632726D01*
D02*
G37*
G36*
X649231Y631660D02*
X649357Y631158D01*
X649231Y630907D01*
X649043Y630844D01*
X648980Y630907D01*
X648855Y631283D01*
X649043Y631722D01*
X649231Y631660D01*
D02*
G37*
G36*
X653056Y638369D02*
X653245Y638181D01*
X653370Y637931D01*
X653558Y637743D01*
X653934Y637868D01*
X655314Y637241D01*
X655879Y636927D01*
X656004Y636676D01*
X657383Y635297D01*
X657572Y634482D01*
X658011Y634043D01*
X658136Y633165D01*
X658261Y632663D01*
X658450Y631848D01*
X658512Y631158D01*
X658387Y630782D01*
X658073Y629465D01*
X657760Y628900D01*
X657258Y628022D01*
X656067Y626455D01*
X655565Y625953D01*
X655314Y625828D01*
X654938Y625451D01*
X654311Y625075D01*
X653934Y624699D01*
X653307Y624323D01*
X652304Y623695D01*
X651677Y623445D01*
X650924Y622943D01*
X650235Y622755D01*
X649921Y622441D01*
X649419Y622316D01*
X648667Y622190D01*
X648290Y621814D01*
X647413Y621689D01*
X646033Y621062D01*
X645155Y620936D01*
X644528Y620560D01*
X643462Y620372D01*
X643023Y620184D01*
X642772Y619682D01*
X640891Y619557D01*
X640640Y619306D01*
X638257Y619180D01*
X637881Y619055D01*
X637379Y618929D01*
X633303Y618741D01*
X631359Y618553D01*
X631296Y618490D01*
X631986Y618302D01*
X637630Y618428D01*
X638006Y618553D01*
X638320Y618490D01*
X639072Y618616D01*
X640452Y618741D01*
X640640Y618929D01*
X641142Y619055D01*
X642458Y618992D01*
X642897Y619180D01*
X643525Y619431D01*
X644402Y619557D01*
X645030Y619807D01*
X645531Y619682D01*
X646158Y619431D01*
X646597Y619619D01*
X646535Y619807D01*
X645594Y619995D01*
X645782Y620184D01*
X646660Y620309D01*
X647601Y620246D01*
X647663Y620685D01*
X648165Y620811D01*
X648667Y620685D01*
X648792Y620434D01*
X649545Y620560D01*
X649858Y620748D01*
X649419Y621062D01*
X649357Y621250D01*
X649921Y621438D01*
X650423Y621563D01*
X650674Y621689D01*
X650924Y621940D01*
X651740Y622002D01*
X651426Y621689D01*
X650799Y621563D01*
X650423Y620811D01*
X649984Y620748D01*
X650548Y620685D01*
X650799Y620936D01*
X651740Y621124D01*
X652053Y621438D01*
X652555Y621563D01*
X652806Y621689D01*
X653056Y621940D01*
X653934Y622065D01*
X654311Y622441D01*
X654812Y622567D01*
X655565Y623068D01*
X655816Y623194D01*
X655941Y623445D01*
X656756Y623758D01*
X658450Y624824D01*
X658763Y625138D01*
X658888Y625389D01*
X659139Y625639D01*
X659516Y626267D01*
X659892Y626643D01*
X660017Y627145D01*
X660519Y627897D01*
X660644Y628399D01*
X660895Y628649D01*
X661083Y629465D01*
X661460Y630217D01*
X661585Y629214D01*
X661648Y627395D01*
X661272Y626768D01*
X661146Y626392D01*
X661021Y625514D01*
X660519Y625012D01*
X660394Y624511D01*
X659892Y624009D01*
X659766Y623382D01*
X659516Y623131D01*
X659578Y622943D01*
X659829Y623068D01*
X660644Y623507D01*
X660770Y623758D01*
X660958Y623946D01*
X661209Y624072D01*
X661711Y624573D01*
X662087Y624699D01*
X662714Y625326D01*
X663404Y625639D01*
X663529Y625890D01*
X663717Y626078D01*
X663968Y626204D01*
X664407Y626894D01*
X664658Y627145D01*
X664783Y627646D01*
X665285Y628148D01*
X665410Y628775D01*
X665787Y629151D01*
X665912Y629653D01*
X665849Y631848D01*
X665473Y631973D01*
X665285Y632161D01*
X665222Y632726D01*
X665410Y633165D01*
X665787Y633415D01*
X666100Y633980D01*
X666476Y634105D01*
X666539Y633415D01*
X666351Y633227D01*
X666100Y633102D01*
X665912Y632537D01*
X665975Y631848D01*
X666539Y631534D01*
X666665Y630656D01*
X666539Y629151D01*
X666038Y628649D01*
X665912Y627897D01*
X665724Y627709D01*
X665536Y627646D01*
X665222Y626831D01*
X664783Y626392D01*
X664658Y626141D01*
X664282Y625765D01*
X664156Y625514D01*
X662714Y624072D01*
X662463Y623946D01*
X662212Y623570D01*
X661961Y623445D01*
X661460Y622943D01*
X660833Y622567D01*
X660582Y622316D01*
X660331Y622190D01*
X659955Y621814D01*
X659327Y621563D01*
X658951Y621187D01*
X658261Y620999D01*
X657948Y620685D01*
X657133Y620372D01*
X656443Y620058D01*
X655816Y619807D01*
X654687Y619306D01*
X653997Y619118D01*
X653307Y618804D01*
X652116Y618616D01*
X651301Y618302D01*
X650799Y618177D01*
X648980Y617989D01*
X648353Y617738D01*
X647225Y617613D01*
X644089Y617487D01*
X641831Y617362D01*
X637254Y617299D01*
X636877Y617424D01*
X631296Y617613D01*
X630669Y617738D01*
X629854Y618051D01*
X628976Y618177D01*
X626718Y618302D01*
X626091Y618553D01*
X625213Y618679D01*
X623959Y618804D01*
X623771Y618867D01*
X623834Y619180D01*
X624335Y619306D01*
X626907Y619243D01*
X629415Y619368D01*
X630042Y619494D01*
X631547Y619870D01*
X632927Y619995D01*
X633491Y620309D01*
X634745Y620434D01*
X635749Y620560D01*
X635874Y620811D01*
X636877Y621062D01*
X637128Y621187D01*
X637316Y621375D01*
X637379Y621563D01*
X637881Y621689D01*
X638696Y621626D01*
X639135Y622065D01*
X639887Y622190D01*
X640515Y622567D01*
X640891Y622692D01*
X641016Y622441D01*
X641518Y622316D01*
X642709Y622504D01*
X643148Y622692D01*
X643462Y623006D01*
X643525Y623194D01*
X644026Y623319D01*
X644277Y623068D01*
X645155Y623194D01*
X646033Y623570D01*
X646786Y623695D01*
X646848Y624009D01*
X646660Y624197D01*
X646221Y624385D01*
X646096Y624636D01*
X645908Y624824D01*
X645469Y624887D01*
X645908Y625451D01*
X646158Y625577D01*
X646535Y625702D01*
X646597Y625639D01*
X646347Y625389D01*
X646472Y624887D01*
X646911Y624699D01*
X647099Y624511D01*
X647162Y624197D01*
X647914Y624323D01*
X648165Y624824D01*
X649043Y625326D01*
X649357Y625639D01*
X649419Y625953D01*
X650423Y626329D01*
X650736Y626643D01*
X650862Y626894D01*
X651740Y628022D01*
X652367Y628649D01*
X652617Y629277D01*
X652680Y629339D01*
X653056Y629214D01*
X653245Y629277D01*
X653056Y630593D01*
X652994Y632287D01*
X653182Y632600D01*
X653433Y632475D01*
X653558Y631221D01*
X653684Y630593D01*
X653746Y629527D01*
X653558Y629214D01*
X653307Y629089D01*
X653245Y627897D01*
X653433Y627458D01*
X653809Y627583D01*
X653997Y627772D01*
X654185Y628461D01*
X654499Y628775D01*
X654624Y629653D01*
X654750Y631158D01*
X654938Y631346D01*
X655189Y631221D01*
X655377Y631032D01*
X655502Y630782D01*
X655565Y630719D01*
X655753Y630907D01*
X655628Y631785D01*
X655502Y632161D01*
X655377Y634419D01*
X655001Y634795D01*
X654875Y635171D01*
X655126Y635422D01*
Y635548D01*
X655251Y635924D01*
X654812Y636363D01*
X654562Y636488D01*
X654373Y636676D01*
X654248Y636927D01*
X654060Y637115D01*
X653684Y637241D01*
X653370Y636927D01*
X653495Y635673D01*
X653621Y635297D01*
X653495Y634795D01*
X653433Y634732D01*
X653245Y634921D01*
X652994Y635798D01*
X653119Y637304D01*
X653495Y637680D01*
X652868Y637805D01*
X652492Y638056D01*
X652555Y638495D01*
X653056Y638369D01*
D02*
G37*
G36*
X630418Y632161D02*
X630293Y631283D01*
X629603Y630593D01*
X629352Y630719D01*
X629289Y630907D01*
X629415Y631032D01*
Y631158D01*
X629603Y631346D01*
X629791Y631409D01*
X630042Y632412D01*
X630105Y632475D01*
X630418Y632161D01*
D02*
G37*
G36*
X599314Y631660D02*
X599377Y631471D01*
X599628Y631346D01*
X600506Y630468D01*
X600568Y630405D01*
X600129Y630343D01*
X599628Y630844D01*
X599377Y630970D01*
X599126Y631346D01*
X598875Y631471D01*
X598687Y631660D01*
X598750Y631973D01*
X599314Y631660D01*
D02*
G37*
G36*
X610037Y630593D02*
X610226Y630405D01*
X610163Y630092D01*
X609410Y630217D01*
X609348Y630656D01*
X609410Y630719D01*
X610037Y630593D01*
D02*
G37*
G36*
X606149Y631346D02*
X606651Y631221D01*
X607027Y630844D01*
X607529Y630719D01*
X608721Y630782D01*
X608971Y630656D01*
X608846Y630154D01*
X608156Y629966D01*
X607027Y630092D01*
X606526Y630593D01*
X605899Y630719D01*
X605146Y630468D01*
X604080Y629904D01*
X604206Y629653D01*
X604958Y629527D01*
X605397Y629339D01*
X605522Y629089D01*
X606338Y628649D01*
X606463Y628399D01*
X606965Y628148D01*
X607090Y627646D01*
X607529Y627333D01*
X607780Y626706D01*
X608219Y626392D01*
X608282Y625702D01*
X608846Y625389D01*
X608971Y624887D01*
X609599Y624636D01*
X609661Y624197D01*
X609285Y624072D01*
X608783Y624197D01*
X608595Y624385D01*
X608532Y624573D01*
X607529Y624950D01*
X606024Y625953D01*
X605460Y626267D01*
X605397Y626455D01*
X604707Y626643D01*
X604268Y627082D01*
X604017Y627207D01*
X603516Y627709D01*
X602638Y628210D01*
X602199Y628524D01*
X602073Y628775D01*
X601885Y628963D01*
X601634Y629089D01*
X600819Y629653D01*
X600694Y630029D01*
X600882Y630217D01*
X601572Y630280D01*
X601697Y630531D01*
X601885Y630719D01*
X602512D01*
X602575Y630656D01*
X603265Y630593D01*
X603641Y630719D01*
X604895Y630844D01*
X605209Y631283D01*
X605773Y631471D01*
X606149Y631346D01*
D02*
G37*
G36*
X672434Y629904D02*
X672371Y629841D01*
X672309Y629904D01*
X672246Y629966D01*
X672183Y630405D01*
X672371Y630468D01*
X672434Y629904D01*
D02*
G37*
G36*
X599063Y630280D02*
X599126Y630092D01*
X599565Y629904D01*
X599690Y629653D01*
Y629527D01*
X599251Y629465D01*
X598938Y629778D01*
X598812Y630029D01*
X598687Y630405D01*
X598875Y630468D01*
X599063Y630280D01*
D02*
G37*
G36*
X648667Y630343D02*
X648792Y629716D01*
X649168Y629590D01*
X649419Y629716D01*
X649607Y629527D01*
X649482Y629277D01*
X648918Y628963D01*
X648729Y629026D01*
X648604Y629277D01*
X648416Y629465D01*
X648165Y629339D01*
X648102Y628900D01*
X648228Y628775D01*
X647914Y628461D01*
X647538Y628336D01*
X647225Y627897D01*
X647036Y627834D01*
X646974Y628022D01*
X647475Y628775D01*
X647601Y629277D01*
X647977Y629527D01*
X648040Y629590D01*
X648165Y630217D01*
X648416Y630468D01*
X648667Y630343D01*
D02*
G37*
G36*
X587023Y629402D02*
X586898Y629026D01*
X586709Y628963D01*
X586521Y629151D01*
X586647Y629402D01*
X586709Y629465D01*
X586835D01*
X587023Y629402D01*
D02*
G37*
G36*
X648102Y632914D02*
X647914Y632600D01*
X647726Y632537D01*
X647601Y631283D01*
X647099Y631032D01*
Y630656D01*
Y630531D01*
X646472Y629904D01*
X646347Y629653D01*
X645845Y629151D01*
X645657Y628712D01*
X645155Y628838D01*
X644967Y628900D01*
X645092Y629277D01*
X645594Y629778D01*
X645720Y630029D01*
X646347Y630907D01*
X646472Y631158D01*
X646911Y631346D01*
X647099Y631534D01*
X647225Y632161D01*
X647601Y632537D01*
X647726Y633039D01*
X647914Y633227D01*
X648102Y632914D01*
D02*
G37*
G36*
X651113D02*
X650987Y632412D01*
X650862Y632036D01*
X650987Y630782D01*
X651238Y630154D01*
X651113Y629151D01*
X650674Y628461D01*
X650297Y628587D01*
X650109Y628775D01*
X650172Y629089D01*
X650674Y629214D01*
X650736Y629277D01*
X650799Y630217D01*
X650674Y630719D01*
X650423Y630844D01*
X650235Y631032D01*
X650109Y631409D01*
X650485Y632287D01*
X650611Y632788D01*
X650736Y633039D01*
X650924Y633102D01*
X651113Y632914D01*
D02*
G37*
G36*
X527323Y630154D02*
Y630029D01*
X527449Y629653D01*
X528138Y629214D01*
X528326Y628649D01*
X528201Y628148D01*
X527887Y628085D01*
X527323Y629151D01*
X527135Y629465D01*
X526633Y629590D01*
X526382Y629716D01*
X526320Y630154D01*
X527260Y630468D01*
X527323Y630154D01*
D02*
G37*
G36*
X659829Y634732D02*
X659955Y634607D01*
X660017Y634544D01*
X660331Y633729D01*
X660582Y633102D01*
X660770Y632914D01*
X660644Y632287D01*
X660394Y631660D01*
X660268Y629778D01*
X659766Y629026D01*
X659516Y628022D01*
X659327Y627960D01*
X659139Y628399D01*
X659265Y628775D01*
X659390Y629026D01*
X659641Y629653D01*
X659766Y630907D01*
X659892Y631283D01*
X660017Y632161D01*
X659892Y633541D01*
X659516Y634419D01*
X659578Y634858D01*
X659829Y634732D01*
D02*
G37*
G36*
X588152Y628399D02*
X588277Y628022D01*
X587964Y627960D01*
X587838D01*
X587587Y628085D01*
X587399Y628273D01*
X587525Y628524D01*
X587838Y628587D01*
X588152Y628399D01*
D02*
G37*
G36*
X586647Y630907D02*
X586898Y630656D01*
X586960Y630468D01*
X587337Y630343D01*
X587650Y630029D01*
X587713Y629966D01*
X587964Y629841D01*
X588465Y629339D01*
X588716Y629214D01*
X589218Y628712D01*
X589469Y628587D01*
X589782Y628273D01*
X589845Y628085D01*
X590096Y627960D01*
X590284Y627772D01*
X590221Y627583D01*
X589343Y628210D01*
X589092Y628336D01*
X588465Y628712D01*
X588214Y628838D01*
X588026Y629277D01*
X587838Y629465D01*
X587587Y629590D01*
X587337Y629841D01*
X587086Y629966D01*
X586709Y630343D01*
X586208Y630468D01*
X585894Y631283D01*
X585957Y631471D01*
X586647Y630907D01*
D02*
G37*
G36*
X589030Y627521D02*
X588967Y627333D01*
X588653Y627395D01*
X588716Y627583D01*
X588967D01*
X589030Y627521D01*
D02*
G37*
G36*
X649670Y627960D02*
X650046Y627834D01*
X650235Y627646D01*
X650172Y627333D01*
X650046D01*
X649984Y627270D01*
X649419Y627207D01*
X649168Y627834D01*
X648729Y628148D01*
X648792Y628336D01*
X649670Y627960D01*
D02*
G37*
G36*
X659139Y627646D02*
X659014Y627395D01*
Y627270D01*
X658951Y627082D01*
X658387Y627145D01*
X658512Y627646D01*
X658951Y627834D01*
X659139Y627646D01*
D02*
G37*
G36*
X673500Y629465D02*
X673688Y629277D01*
X673751Y629089D01*
X674378Y628712D01*
X674629Y628085D01*
X674880Y627960D01*
X675068Y627270D01*
X674942Y627019D01*
X674754Y626956D01*
X674566Y627145D01*
X674441Y627646D01*
X674252Y628085D01*
X673688Y628399D01*
X673563Y628649D01*
X673500Y628712D01*
X673437Y628775D01*
X672622Y629089D01*
X672497Y629590D01*
X672873Y629716D01*
X673500Y629465D01*
D02*
G37*
G36*
X643713Y638809D02*
X644214Y637931D01*
X644340Y637554D01*
X644465Y637053D01*
X644716Y636802D01*
X644842Y636300D01*
X644716Y633666D01*
X644340Y632788D01*
X644214Y632036D01*
X643838Y631660D01*
X643713Y631158D01*
X643587Y630907D01*
X643211Y630531D01*
X642709Y629653D01*
X642458Y629402D01*
X642333Y629151D01*
X641957Y628775D01*
X641831Y628524D01*
X641643Y628336D01*
X641393Y628210D01*
X641079Y627772D01*
X640326Y627145D01*
X639072Y626141D01*
X638069Y625514D01*
X637379Y625075D01*
X636250Y624448D01*
X635999Y624197D01*
X635498Y624072D01*
X635247Y623821D01*
X634996Y623695D01*
X634620Y623570D01*
X633993Y623194D01*
X633366Y622943D01*
X632864Y622817D01*
X632676Y622755D01*
X632550Y622504D01*
X632362Y622316D01*
X631422Y622379D01*
X631547Y622755D01*
X631735Y622943D01*
X632738Y623194D01*
X632864Y623445D01*
X633491Y623695D01*
X633554Y624009D01*
X633366Y624197D01*
X632864Y624323D01*
X632488Y624699D01*
X631861Y625075D01*
X630983Y625702D01*
X630544Y626141D01*
X630606Y626455D01*
X631108Y626329D01*
X632237Y625828D01*
X633240Y625702D01*
X633742Y625451D01*
X634369Y625702D01*
X634871Y625828D01*
X634933Y626267D01*
X634494Y626706D01*
X632927Y626643D01*
X632550Y626768D01*
X632613Y626956D01*
X633115Y627082D01*
X633867Y627207D01*
X634244Y627333D01*
X634745Y627207D01*
X635372Y626956D01*
X636313Y627145D01*
X636815Y627270D01*
X639260Y628587D01*
X639323Y628775D01*
X639135Y628963D01*
X638508Y628838D01*
X637379Y628336D01*
X636564Y628148D01*
X635874Y627709D01*
X634996Y627834D01*
X634933Y628148D01*
X635498Y628336D01*
X636125Y628587D01*
X636376Y628838D01*
X638006Y629716D01*
X638382Y630092D01*
X638759Y630217D01*
X639887Y631346D01*
X640138Y631471D01*
X640389Y631848D01*
X640640Y631973D01*
X640954Y632412D01*
X641204Y632663D01*
X641581Y633290D01*
X641831Y633541D01*
X642082Y634168D01*
X642458Y634544D01*
X642584Y635046D01*
X643086Y636175D01*
X643211Y637053D01*
Y637178D01*
X643336Y637554D01*
X643211Y637805D01*
X642897Y638119D01*
X642709Y638181D01*
X642835Y638432D01*
X643274Y638871D01*
X643713Y638809D01*
D02*
G37*
G36*
X644967Y628775D02*
X644842Y628022D01*
X644465Y627395D01*
X644277Y627207D01*
X644089Y627145D01*
X643964Y626894D01*
X643211Y626392D01*
X642835Y625765D01*
X642647Y625577D01*
X642396Y625702D01*
X642333Y625890D01*
X642458Y626267D01*
X642333Y626768D01*
X642521Y626831D01*
X642772Y626580D01*
X643023Y626706D01*
X643086Y626894D01*
X642835Y627145D01*
X642960Y627395D01*
X643462Y627521D01*
X643901Y627834D01*
X644026Y627960D01*
X644089Y628022D01*
X644465Y628273D01*
X644591Y628524D01*
X644779Y628838D01*
X644967Y628775D01*
D02*
G37*
G36*
X649231Y626768D02*
X649168Y626078D01*
X648541D01*
X648353Y626141D01*
X648479Y626517D01*
X648667Y626831D01*
X649043Y626956D01*
X649231Y626768D01*
D02*
G37*
G36*
X646974Y627646D02*
X646409Y626956D01*
X646221Y626768D01*
X645908Y626204D01*
X645406Y626078D01*
X645218Y626141D01*
X645594Y626768D01*
X645720Y626894D01*
X645782Y626956D01*
X646033Y627207D01*
X646284Y627333D01*
X646409Y627583D01*
X646911Y627834D01*
X646974Y627646D01*
D02*
G37*
G36*
X602512Y627458D02*
X602763Y626956D01*
X603139Y626831D01*
X603202Y626768D01*
X603390Y626329D01*
X604017Y626204D01*
X604080Y626141D01*
X603892Y625953D01*
X603327Y626016D01*
X603202Y626392D01*
X602763Y626580D01*
X602387Y626956D01*
X601885Y627082D01*
X601572Y627395D01*
X601446Y627646D01*
X601195Y627897D01*
X601133Y628210D01*
X602512Y627458D01*
D02*
G37*
G36*
X590158Y626517D02*
X590221Y626455D01*
X590597Y626329D01*
X590660Y626016D01*
X590221Y625953D01*
X589908Y626267D01*
X589845Y626455D01*
X589657Y626517D01*
X589594Y626831D01*
X589845Y626956D01*
X590158Y626517D01*
D02*
G37*
G36*
X657948Y626078D02*
X658261Y625890D01*
Y625639D01*
X658199Y625577D01*
X657509Y625138D01*
X657446Y624950D01*
X656945Y625075D01*
X656506Y625389D01*
X656819Y625702D01*
X657195Y625577D01*
X657321Y625451D01*
X657383Y625765D01*
X657258Y626016D01*
X657446Y626204D01*
X657948Y626078D01*
D02*
G37*
G36*
X648102Y627270D02*
X647663Y626580D01*
X647287Y626455D01*
X647225Y626392D01*
X647413Y625953D01*
X647914Y625828D01*
X647977Y625263D01*
X647789Y625075D01*
X647538D01*
X647475Y625138D01*
X647225Y625389D01*
X647099Y625765D01*
X646723Y625890D01*
X646848Y626267D01*
X647225Y626643D01*
X647601Y627270D01*
X648040Y627458D01*
X648102Y627270D01*
D02*
G37*
G36*
X641957Y626267D02*
X641831Y625765D01*
X641581Y625639D01*
X641769Y625451D01*
X641957Y625389D01*
X641831Y625012D01*
X641518Y624950D01*
X641393D01*
X641204Y625389D01*
X640703Y625514D01*
X640765Y625702D01*
X641142Y625828D01*
X641643Y626329D01*
X641957Y626267D01*
D02*
G37*
G36*
X674942Y625012D02*
X674880Y624950D01*
X674754Y624699D01*
X674441Y624762D01*
X674691Y625389D01*
X674880Y625451D01*
X674942Y625012D01*
D02*
G37*
G36*
X591162Y627270D02*
X591287Y627019D01*
X591977Y626580D01*
X592228Y626329D01*
X592855Y625953D01*
X593106Y625702D01*
X593670Y625389D01*
X593733Y625201D01*
X594611Y625075D01*
X594674Y624762D01*
X594485Y624573D01*
X593796Y624511D01*
X593670Y624887D01*
X593545Y625138D01*
X592918Y625389D01*
X592792Y625514D01*
X592729Y625577D01*
X592228Y625702D01*
X591852Y626078D01*
X591601Y626204D01*
X591350Y626455D01*
X591099Y626580D01*
X590785Y627019D01*
X590409Y627395D01*
X590974Y627458D01*
X591162Y627270D01*
D02*
G37*
G36*
X656506Y624636D02*
X656317Y624448D01*
X656004Y624511D01*
X655941Y624573D01*
X655753Y624762D01*
X655879Y625012D01*
X656317Y625201D01*
X656506Y624636D01*
D02*
G37*
G36*
X605397Y625201D02*
X605899Y625075D01*
X606087Y624636D01*
X605899Y624448D01*
X605397Y624573D01*
X604895Y625075D01*
X604456Y625138D01*
Y625263D01*
X604582Y625514D01*
X605021Y625577D01*
X605397Y625201D01*
D02*
G37*
G36*
X640577Y625263D02*
X640640Y624824D01*
X641267Y624699D01*
X641330Y624636D01*
X641142Y624323D01*
X640640Y624197D01*
X640452Y624385D01*
X640326Y624636D01*
X639574Y624762D01*
X639699Y625012D01*
X639887Y625201D01*
X640389Y625326D01*
X640577Y625263D01*
D02*
G37*
G36*
X595301Y624511D02*
X595363Y624448D01*
X595426Y624134D01*
X594987Y624072D01*
X594924Y624511D01*
X595238Y624573D01*
X595301Y624511D01*
D02*
G37*
G36*
X593419Y624385D02*
X593482Y624197D01*
X593545Y624134D01*
X593482Y623946D01*
X593231Y624197D01*
X592165Y624260D01*
X592291Y624511D01*
X592980Y624573D01*
X593419Y624385D01*
D02*
G37*
G36*
X655189Y624323D02*
X655251Y624260D01*
X655440Y623821D01*
X654750Y624009D01*
X654875Y624385D01*
X655063Y624448D01*
X655189Y624323D01*
D02*
G37*
G36*
X645343Y624511D02*
X645030Y623946D01*
X644653Y623821D01*
X644591Y624134D01*
X644716Y624260D01*
Y624385D01*
X644904Y624573D01*
X645281Y624699D01*
X645343Y624511D01*
D02*
G37*
G36*
X639449D02*
Y624385D01*
X639637Y624072D01*
X640138Y623946D01*
X640201Y623884D01*
X640013Y623695D01*
X639386Y623821D01*
X639010Y623946D01*
X638884Y623821D01*
X638821Y624260D01*
X639010Y624573D01*
X639449Y624511D01*
D02*
G37*
G36*
X594423Y623633D02*
X594360Y623570D01*
X594109Y623445D01*
X594046Y623507D01*
X594235Y623695D01*
X594423Y623633D01*
D02*
G37*
G36*
X639198Y623382D02*
X639010Y623194D01*
X638884D01*
X638821Y623256D01*
X638696Y623633D01*
X638759Y623695D01*
X639198Y623382D01*
D02*
G37*
G36*
X619946Y630468D02*
X620259Y630154D01*
X620385Y629904D01*
X621012Y629527D01*
X621137Y629277D01*
X621325Y629089D01*
X622141Y628649D01*
X622266Y628399D01*
X622705Y628085D01*
X624524Y626267D01*
X624586Y626078D01*
X625213Y625702D01*
X625590Y625326D01*
X625840Y625201D01*
X626279Y624762D01*
X626342Y624573D01*
X626593Y624448D01*
X626907Y624134D01*
X627032Y623884D01*
X627283Y623633D01*
X627345Y623445D01*
X627972Y623068D01*
X628223Y622817D01*
X628474Y622692D01*
X628976Y622190D01*
X629791Y621877D01*
X629666Y621501D01*
X629478Y621312D01*
X628976Y621187D01*
X627972Y621062D01*
X627220Y620560D01*
X626091Y620434D01*
X625464Y620184D01*
X624586Y620058D01*
X623646Y619870D01*
X623395Y619619D01*
X623269Y619368D01*
X622203Y619306D01*
X621576Y619557D01*
X620698Y619933D01*
X619569Y620058D01*
X618441Y620560D01*
X617437Y620685D01*
X617061Y621062D01*
X615807Y621187D01*
X615744Y621501D01*
X616434Y621940D01*
X616497Y622002D01*
X615995Y622504D01*
X615869Y622755D01*
X615493Y623006D01*
X615368Y623507D01*
X615242Y623884D01*
X614866Y624260D01*
X614615Y626016D01*
X614490Y626392D01*
X614866Y627270D01*
X614992Y627521D01*
X615180Y627709D01*
X616497Y627521D01*
X616936Y627207D01*
X617186Y626956D01*
X617813Y626706D01*
X618064Y626580D01*
X618127Y626517D01*
X618566Y626078D01*
X618817Y625953D01*
X619068Y625702D01*
X619256Y625639D01*
X619381Y625389D01*
X619569Y625201D01*
X619820Y625075D01*
X620008Y624887D01*
X620134Y624636D01*
X620573Y624448D01*
X620698Y623821D01*
X621263Y623633D01*
X621388Y623382D01*
X621764Y623006D01*
X621890Y622504D01*
X621952Y622316D01*
X622517Y622002D01*
X622642Y621375D01*
X623332Y621312D01*
X623395Y621626D01*
X623269Y622002D01*
X623144Y622253D01*
X622768Y622504D01*
X622517Y623131D01*
X622266Y623256D01*
X622015Y623884D01*
X621513Y624385D01*
X621388Y624762D01*
X620886Y625263D01*
X620761Y625514D01*
X620510Y625765D01*
X620134Y626392D01*
X619632Y626894D01*
X619507Y627145D01*
X618880Y627772D01*
X618754Y628022D01*
X617500Y629277D01*
X617939Y629339D01*
X618190Y629089D01*
X619068Y628587D01*
X619319Y628336D01*
X619946Y628085D01*
X620071Y627834D01*
X620949Y627333D01*
X621325Y626956D01*
X621576Y626831D01*
X621827Y626580D01*
X622078Y626455D01*
X622391Y626016D01*
X622579Y625828D01*
X622830Y625702D01*
X623520Y625138D01*
X623834Y624824D01*
X624085Y624699D01*
X624273Y624511D01*
X624586Y623946D01*
X625527Y623382D01*
X625652Y623131D01*
X625840Y622943D01*
X626279Y623006D01*
X625903Y623633D01*
X625151Y624385D01*
X624837Y624950D01*
X624586Y625075D01*
X624085Y625828D01*
X623834Y625953D01*
X623395Y626392D01*
X623269Y626643D01*
X622768Y627145D01*
X622642Y627395D01*
X622203Y627834D01*
X621952Y627960D01*
X621702Y628210D01*
X621451Y628336D01*
X621137Y628775D01*
X620385Y629527D01*
X620259Y629778D01*
X619946Y630092D01*
X619695Y630217D01*
X619507Y630405D01*
X619569Y630593D01*
X619946Y630468D01*
D02*
G37*
G36*
X644842Y625514D02*
X644465Y625138D01*
X644340Y624887D01*
X644026Y624573D01*
X643587Y624385D01*
X643211Y623758D01*
X643023Y623570D01*
X642521Y623445D01*
X641393Y622817D01*
X641267D01*
X640954Y622755D01*
X641079Y623131D01*
X641267Y623319D01*
X642145Y623695D01*
X642396Y623821D01*
X642897Y624323D01*
X643525Y624699D01*
X644402Y625577D01*
X644779Y625702D01*
X644842Y625514D01*
D02*
G37*
G36*
X654499Y623633D02*
X654373Y623382D01*
X654123Y623131D01*
X653934Y622692D01*
X653182Y622817D01*
X653119Y623131D01*
X653307Y623319D01*
X653684D01*
X654311Y623695D01*
X654499Y623633D01*
D02*
G37*
G36*
X674441Y623884D02*
X674315Y623507D01*
X674190Y622629D01*
X674127Y622567D01*
X673939Y623256D01*
X673813Y623758D01*
X673876Y624197D01*
X673939Y624260D01*
X674002Y624448D01*
X674378Y624573D01*
X674441Y623884D01*
D02*
G37*
G36*
X652743Y622629D02*
X652617Y622253D01*
X652116Y622128D01*
X651928Y622065D01*
X651865Y622128D01*
X651740Y622253D01*
X652053Y622692D01*
X652743Y622629D01*
D02*
G37*
G36*
X610602D02*
X610727Y622253D01*
X610414Y621940D01*
X610163D01*
X609599Y622002D01*
X609724Y622379D01*
X609912Y622692D01*
X610602Y622629D01*
D02*
G37*
G36*
X596806Y622128D02*
X596743Y621940D01*
X596492D01*
X596429Y622002D01*
X596179Y622504D01*
X596367Y622567D01*
X596806Y622128D01*
D02*
G37*
G36*
X631233Y622316D02*
X631296Y622128D01*
X630983Y621814D01*
X630105Y621940D01*
X630042Y622128D01*
X630167Y622253D01*
X630230Y622316D01*
X630732Y622441D01*
X631233Y622316D01*
D02*
G37*
G36*
X610665Y624072D02*
X610853Y623884D01*
X610915Y623821D01*
X611041Y623570D01*
X611417Y623695D01*
X612421Y623570D01*
X612922Y623068D01*
X613549Y622943D01*
X613863Y622629D01*
X613926Y622441D01*
X614427Y622316D01*
X615180Y622190D01*
X615242Y621751D01*
X614302Y621689D01*
X613988Y621877D01*
X613863Y622128D01*
X613361Y622253D01*
X612734Y622379D01*
X612295Y622692D01*
X611919Y622817D01*
X611417Y622943D01*
X611166Y623068D01*
X610978Y623256D01*
X610915Y623570D01*
X610100Y623507D01*
X609724Y623758D01*
X609787Y624072D01*
X610288Y624197D01*
X610665Y624072D01*
D02*
G37*
G36*
X635310Y621375D02*
X635121Y621187D01*
X634808Y621250D01*
X634745Y621312D01*
X634557Y621375D01*
X635247Y621438D01*
X635310Y621375D01*
D02*
G37*
G36*
X661146Y620999D02*
X660958Y620936D01*
X660770Y621124D01*
Y621250D01*
X661083Y621312D01*
X661146Y620999D01*
D02*
G37*
G36*
X613424Y621312D02*
X613487Y621250D01*
Y621124D01*
X613424Y620936D01*
X612609Y621124D01*
X612232Y621250D01*
X612797Y621438D01*
X613424Y621312D01*
D02*
G37*
G36*
X633115Y620811D02*
X633177Y620623D01*
X632989Y620560D01*
X632864Y620685D01*
X632738D01*
X632550Y620748D01*
X632613Y620936D01*
X633115Y620811D01*
D02*
G37*
G36*
X611856Y622002D02*
X611982Y621626D01*
X611856Y621375D01*
X612107Y621250D01*
X611982Y620748D01*
X611793Y620560D01*
X611041Y620685D01*
X610978Y620748D01*
Y620873D01*
X611104Y621124D01*
X611480Y621375D01*
X611166Y621689D01*
X610978Y621751D01*
X611041Y622065D01*
X611856Y622002D01*
D02*
G37*
G36*
X614929Y620811D02*
X614992Y620623D01*
X614803Y620434D01*
X614051Y620560D01*
X613863Y620748D01*
X613926Y620811D01*
X614427Y620936D01*
X614929Y620811D01*
D02*
G37*
G36*
X612985Y620372D02*
X612922Y620058D01*
X612421D01*
X612232Y620246D01*
X612421Y620434D01*
X612985Y620372D01*
D02*
G37*
G36*
X663529Y619619D02*
X663466Y619557D01*
X663341D01*
X663090Y619682D01*
X662526Y619995D01*
X662588Y620184D01*
X663466Y620434D01*
X663529Y619619D01*
D02*
G37*
G36*
X674315Y622002D02*
X674441Y621501D01*
X674127Y621062D01*
X673939Y620999D01*
X673813Y620748D01*
X673500Y620434D01*
X673249Y620309D01*
X673124Y620058D01*
X672497Y619807D01*
X672120Y619431D01*
X671870Y619557D01*
X671807Y619745D01*
X672183Y619870D01*
X672246Y619933D01*
X672497Y620058D01*
X672810Y620497D01*
X673186Y620748D01*
X673312Y620999D01*
X673751Y621312D01*
X674127Y622065D01*
X674315Y622002D01*
D02*
G37*
G36*
X659265Y619745D02*
X659202Y619557D01*
X659077D01*
X659014Y619494D01*
X658951Y619431D01*
X658638Y619619D01*
X658826Y619807D01*
X659265Y619745D01*
D02*
G37*
G36*
X658136Y619368D02*
Y619243D01*
X658073Y619180D01*
X657634Y619243D01*
X657822Y619431D01*
X658136Y619368D01*
D02*
G37*
G36*
X618629Y619494D02*
X618754Y619368D01*
X618566Y619180D01*
X618378Y619243D01*
X618315Y619306D01*
X617186Y619180D01*
X616936Y618929D01*
X616748Y619118D01*
X616873Y619368D01*
X617186Y619682D01*
X618629Y619494D01*
D02*
G37*
G36*
X661021Y619118D02*
X661083Y619055D01*
X661146Y618867D01*
X660958Y618679D01*
X660456Y618553D01*
X660143Y618616D01*
X660268Y618867D01*
X660456Y619055D01*
X660958Y619180D01*
X661021Y619118D01*
D02*
G37*
G36*
X657258Y618992D02*
X657133Y618741D01*
X656945Y618553D01*
X656443Y618428D01*
X656192D01*
X656004Y618490D01*
X656317Y618804D01*
X656945Y619055D01*
X657258Y618992D01*
D02*
G37*
G36*
X618378Y618490D02*
X618315Y618302D01*
X617876Y618365D01*
X617939Y618553D01*
X618190D01*
X618378Y618490D01*
D02*
G37*
G36*
X671431Y618741D02*
X671305Y618365D01*
X670992Y618177D01*
X670803Y618365D01*
Y618616D01*
Y618741D01*
X671117Y619055D01*
X671431Y618741D01*
D02*
G37*
G36*
X660017Y618365D02*
X659704Y618051D01*
X659453Y617926D01*
X659327Y617299D01*
X658700Y617048D01*
X658324Y617174D01*
X657446Y617048D01*
X656568Y616672D01*
X656067Y616547D01*
X654687D01*
X653684Y616421D01*
X653307Y616797D01*
X652179Y616672D01*
X651301Y616296D01*
X650799Y616170D01*
X648729Y616233D01*
X648792Y616421D01*
X649294Y616547D01*
X650485Y616735D01*
X651113Y616860D01*
X651614Y616986D01*
X652241Y617111D01*
X652931Y617299D01*
X653307Y617174D01*
X653433Y616923D01*
X655063Y617048D01*
X655690Y617299D01*
X657321Y617424D01*
X657509Y617613D01*
X657572Y617801D01*
X658073Y617926D01*
X658700Y617801D01*
X659265Y617989D01*
X659327Y618302D01*
X659829Y618428D01*
X660017Y618365D01*
D02*
G37*
G36*
X655001Y617613D02*
X654812Y617424D01*
X654436D01*
X653872Y617613D01*
X654060Y617801D01*
X654938Y617926D01*
X655001Y617613D01*
D02*
G37*
G36*
X619946Y618804D02*
X620322Y618929D01*
X620573D01*
X620698Y618553D01*
X622454Y618428D01*
X622642Y618240D01*
X622579Y618051D01*
X621325Y617926D01*
X620635Y617738D01*
X619820Y617424D01*
X619444Y617550D01*
X618691Y617675D01*
X618629Y618114D01*
X619883Y618240D01*
X620510Y618365D01*
X620447Y618553D01*
X619569Y618679D01*
X618942Y618804D01*
X618880Y618992D01*
X619695Y619055D01*
X619946Y618804D01*
D02*
G37*
G36*
X625276Y617738D02*
X625213Y617550D01*
X624712Y617424D01*
X623457Y617299D01*
X623081Y616923D01*
X622642Y616986D01*
X622579Y617048D01*
X622391Y617111D01*
X622454Y617424D01*
X623332Y617801D01*
X625276Y617738D01*
D02*
G37*
G36*
X671493Y616797D02*
X671556Y616609D01*
X671368Y616421D01*
X670803Y616484D01*
X670741Y616797D01*
X671117Y616923D01*
X671242D01*
X671493Y616797D01*
D02*
G37*
G36*
X625339Y616672D02*
X625401Y616609D01*
X625339Y616547D01*
X625213D01*
X624837Y616421D01*
X624649Y616609D01*
X624837Y616797D01*
X625339Y616672D01*
D02*
G37*
G36*
X628349Y616170D02*
X628411Y616107D01*
X628223Y615919D01*
X628098D01*
X628035Y615857D01*
X627596Y615794D01*
X627220Y615919D01*
X626656Y615982D01*
X626718Y616170D01*
X627534Y616233D01*
X627596Y616170D01*
X627972Y616296D01*
X628349Y616170D01*
D02*
G37*
G36*
X628976Y615668D02*
X629039Y615480D01*
X628976Y615418D01*
X628851D01*
X628537Y615480D01*
X628600Y615794D01*
X628976Y615668D01*
D02*
G37*
G36*
X650924Y615543D02*
X650987Y615480D01*
X650799Y615292D01*
X649858Y615355D01*
X649984Y615606D01*
X650172Y615668D01*
X650297D01*
X650924Y615543D01*
D02*
G37*
G36*
X627722Y617174D02*
X628913Y616986D01*
X629101Y616547D01*
X629603Y616421D01*
X630105Y616547D01*
X631359Y616672D01*
X633679Y616484D01*
X634244Y616170D01*
X637755Y616045D01*
X647350Y616107D01*
X647538Y615919D01*
X648353Y615731D01*
X648479Y615355D01*
X648416Y615041D01*
X647663Y615167D01*
X647413Y615418D01*
X646535Y615543D01*
X641957Y615606D01*
X639072Y615480D01*
X637254Y615418D01*
X636877Y615543D01*
X634118Y615668D01*
X633742Y616045D01*
X629478Y616170D01*
X629101Y616296D01*
X628662Y616358D01*
X628537Y616609D01*
X627972Y616797D01*
X625778Y616860D01*
X625903Y617111D01*
X626091Y617299D01*
X627345D01*
X627722Y617174D01*
D02*
G37*
G36*
X633993Y614916D02*
X634055Y614853D01*
X633993Y614791D01*
X633303Y614853D01*
X633366Y615041D01*
X633993Y614916D01*
D02*
G37*
G36*
X630418Y614979D02*
X630230Y614791D01*
X629728Y614665D01*
X629415Y614728D01*
Y614853D01*
X629478Y615041D01*
X629854Y615167D01*
X630418Y614979D01*
D02*
G37*
G36*
X669675Y615104D02*
X669737Y615041D01*
X669926Y614979D01*
X669800Y614603D01*
X669236Y614414D01*
X668483Y614289D01*
X668107Y613913D01*
X667229Y613787D01*
X665975Y613913D01*
X665222Y614038D01*
X665097Y614540D01*
X665473Y614665D01*
X666727Y614540D01*
X667981Y614665D01*
X668358Y614791D01*
X668483Y615041D01*
X668985Y615167D01*
X669675Y615104D01*
D02*
G37*
G36*
X643650Y614791D02*
X643713Y614728D01*
X643525Y614540D01*
X642333Y614603D01*
X642270Y614665D01*
X641581Y614728D01*
X642145Y614916D01*
X643650Y614791D01*
D02*
G37*
G36*
X672685Y616107D02*
X672810Y615857D01*
X673186Y615606D01*
X673312Y615104D01*
X673186Y614477D01*
X672434Y613725D01*
X672309Y613474D01*
X671493Y613160D01*
X670365Y612659D01*
X669236Y612784D01*
X669173Y612972D01*
X669361Y613160D01*
X669863Y613286D01*
X670866Y613411D01*
X671117Y613662D01*
X671744Y613913D01*
X671995Y614038D01*
X672434Y614352D01*
X672559Y614853D01*
Y615104D01*
Y615230D01*
X672434Y615480D01*
X672246Y615668D01*
X671870Y615543D01*
X671681Y615355D01*
X671619Y615167D01*
X671117Y615041D01*
X670615Y615167D01*
X670553Y615480D01*
X671117Y615668D01*
X671744Y615794D01*
X672058Y616233D01*
X672371Y616296D01*
X672685Y616107D01*
D02*
G37*
G36*
X528828Y627019D02*
X528703Y625890D01*
X528389Y625577D01*
X528138Y625451D01*
X528076Y625012D01*
X528389Y624699D01*
X529518Y625201D01*
X529706Y625012D01*
X529581Y624260D01*
X528515Y623821D01*
X528013Y623695D01*
X526821Y623507D01*
X525693Y623382D01*
X524564Y622504D01*
X524438Y622253D01*
X524188Y622002D01*
X524062Y621501D01*
X524188Y619619D01*
X524438Y619368D01*
X524689Y618741D01*
X524815Y618365D01*
X525065Y618114D01*
X525379Y617299D01*
X525818Y616860D01*
X526006Y616421D01*
X526257Y616296D01*
X526884Y615668D01*
X527135Y615543D01*
X527260Y615292D01*
X528076Y614979D01*
X528389Y614540D01*
X529643Y614414D01*
X529894Y614164D01*
X530521Y613913D01*
X531525Y613787D01*
X531901Y613411D01*
X532904Y613286D01*
X533092Y613097D01*
X533218Y612721D01*
X533280Y612659D01*
X533657Y612784D01*
X534284Y612659D01*
X534472Y612470D01*
X534535Y612282D01*
X535350Y612094D01*
X535726Y611718D01*
X535663Y611530D01*
X534785Y611655D01*
X534284Y612157D01*
X533406Y612282D01*
X533218Y612470D01*
X533155Y612659D01*
X532152Y612784D01*
X531399Y613286D01*
X530333Y613474D01*
X529518Y613913D01*
X528515Y614038D01*
X528138Y614414D01*
X527386Y614540D01*
X527010Y614916D01*
X526382Y615292D01*
X526006Y615668D01*
X525755Y615794D01*
X525442Y616233D01*
X525065Y616609D01*
X524689Y617236D01*
X524188Y618114D01*
X523937Y618741D01*
X523811Y619243D01*
X523435Y619619D01*
X523310Y620497D01*
X523435Y622504D01*
X523560Y622629D01*
X523623Y622692D01*
X524501Y623570D01*
X525003Y623695D01*
X525379Y624072D01*
X526257Y624197D01*
X526759Y624323D01*
X527386Y624448D01*
X528201Y626267D01*
X528326Y627646D01*
X528640Y627709D01*
X528828Y627019D01*
D02*
G37*
G36*
X629478Y612031D02*
X631108Y611781D01*
X631171Y611592D01*
X631108Y611530D01*
X630857Y611279D01*
X630167Y611091D01*
X629478Y611404D01*
X628474Y611530D01*
X628411Y611969D01*
X628976Y612157D01*
X629478Y612031D01*
D02*
G37*
G36*
X525567Y621501D02*
X525693Y620623D01*
X525818Y620121D01*
X525943Y618992D01*
X526320Y618616D01*
X526571Y617989D01*
X526884Y617675D01*
X526947Y617613D01*
X527198Y617362D01*
X527323Y617111D01*
X527762Y616797D01*
X528013Y616547D01*
X528828Y616233D01*
X529142Y615919D01*
X529643Y615794D01*
X531148Y615668D01*
X531901Y615418D01*
X532403Y614916D01*
X532779Y615041D01*
X533280Y615167D01*
X533845Y614853D01*
X533970Y614603D01*
X534472Y614477D01*
X534911Y614164D01*
X535162Y613913D01*
X535413Y613787D01*
X535663Y613411D01*
X535914Y613286D01*
X536228Y612847D01*
X536918Y612408D01*
X537169Y612157D01*
X538674Y612031D01*
X539050Y612157D01*
X540179Y612031D01*
X540429Y611781D01*
X541057Y611530D01*
X541558Y611404D01*
X541746Y611216D01*
X541872Y610965D01*
X543126Y610840D01*
X543502Y610589D01*
X543314Y610401D01*
X542060Y610275D01*
X541558Y610777D01*
X540555Y610903D01*
X540179Y611279D01*
X539677Y611404D01*
X537043Y611279D01*
X536792Y610903D01*
X535914Y611028D01*
X535852Y611467D01*
X536479Y611592D01*
X536730Y611718D01*
X536604Y611969D01*
X535977Y612220D01*
X535789Y612533D01*
X535538Y612659D01*
X535350Y612847D01*
X535224Y613097D01*
X535036Y613286D01*
X534785Y613411D01*
X534535Y613787D01*
X533970Y613975D01*
X533782Y614414D01*
X532528Y614540D01*
X532277Y614791D01*
X531776Y614916D01*
X529267Y615041D01*
X528515Y615543D01*
X527887Y615794D01*
X527637Y616045D01*
X527386Y616170D01*
X526696Y616735D01*
X526069Y617362D01*
X525191Y619243D01*
X525065Y619745D01*
X525191Y621626D01*
X525254Y621689D01*
X525567Y621501D01*
D02*
G37*
%LPC*%
G36*
X526006Y668596D02*
X525254Y668470D01*
X525003Y668220D01*
X524752Y668094D01*
X524564Y667530D01*
X524438Y667028D01*
X524564Y666526D01*
Y666401D01*
X524752Y666213D01*
X525003Y666087D01*
X525191Y665899D01*
X525316Y665648D01*
X525881Y665586D01*
X526320Y665899D01*
X526445Y666150D01*
X526633Y666338D01*
X526884Y666464D01*
X526947Y667655D01*
X526508Y668094D01*
X526320Y668157D01*
X526194Y668408D01*
X526006Y668596D01*
D02*
G37*
G36*
X573666Y688161D02*
X573603Y688099D01*
X573666Y688036D01*
X573728Y688099D01*
X573666Y688161D01*
D02*
G37*
G36*
X576049Y687785D02*
X575861Y687597D01*
X575986Y686970D01*
X576174Y686907D01*
X576362Y687095D01*
Y687597D01*
X576300Y687660D01*
X576049Y687785D01*
D02*
G37*
G36*
X574293Y687534D02*
X574230Y686970D01*
X574544Y686907D01*
X574732Y687095D01*
X574606Y687346D01*
Y687471D01*
X574293Y687534D01*
D02*
G37*
G36*
X575547Y686531D02*
X575422D01*
X575359Y686217D01*
X575547Y686154D01*
X575610Y686468D01*
X575547Y686531D01*
D02*
G37*
G36*
X573666Y686656D02*
X573478Y686468D01*
X573415Y686154D01*
X573666D01*
X573917Y686280D01*
X573979Y686593D01*
X573666Y686656D01*
D02*
G37*
G36*
X573289Y686154D02*
X572662Y686029D01*
X572600Y685966D01*
Y685841D01*
X573039Y685653D01*
X573352Y685841D01*
X573289Y686154D01*
D02*
G37*
G36*
X575923Y685778D02*
X575861Y685590D01*
X576049Y685527D01*
X576111Y685590D01*
Y685716D01*
X575923Y685778D01*
D02*
G37*
G36*
X566517D02*
X566015Y685653D01*
X565827Y685465D01*
X565890Y685277D01*
X566705Y685465D01*
Y685590D01*
X566517Y685778D01*
D02*
G37*
G36*
X577178D02*
X576801Y685402D01*
X576550Y685277D01*
X576488Y685089D01*
X577052Y684900D01*
X577303Y685026D01*
X577491Y685214D01*
Y685339D01*
X577366Y685716D01*
X577178Y685778D01*
D02*
G37*
G36*
X566956Y685214D02*
X567081Y684963D01*
X567269Y684775D01*
X567583Y684712D01*
X567645Y684650D01*
X568210Y684963D01*
X568147Y685151D01*
X566956Y685214D01*
D02*
G37*
G36*
X568774Y684273D02*
X568586Y684211D01*
Y683960D01*
X568649Y683897D01*
X568837Y683960D01*
X568774Y684273D01*
D02*
G37*
G36*
X566893Y683897D02*
X566830Y683583D01*
X566893Y683521D01*
X567018D01*
X567081Y683834D01*
X566893Y683897D01*
D02*
G37*
G36*
X568147Y683521D02*
X568084Y683458D01*
X568022Y683145D01*
X568210Y683207D01*
X568147Y683521D01*
D02*
G37*
G36*
X576425Y683646D02*
X576111Y683583D01*
Y683333D01*
Y683207D01*
X576174Y683019D01*
X576550Y683145D01*
X576613Y683458D01*
X576425Y683646D01*
D02*
G37*
G36*
X577805Y682392D02*
X577679D01*
X577491Y682329D01*
X577554Y682141D01*
X577867Y682204D01*
X577805Y682392D01*
D02*
G37*
G36*
X570656D02*
X570593Y682329D01*
X570656Y682266D01*
X570718Y682204D01*
X570781Y682141D01*
X570844Y682204D01*
X570656Y682392D01*
D02*
G37*
G36*
X567520Y682643D02*
X567332Y682455D01*
X567207Y682078D01*
X567332Y681953D01*
X567395Y681890D01*
X567645Y682016D01*
X567708Y682580D01*
X567520Y682643D01*
D02*
G37*
G36*
X575672Y682266D02*
X575484Y682204D01*
X575359Y681827D01*
X575923Y681639D01*
X575986Y681827D01*
X575861Y681953D01*
Y682078D01*
X575672Y682266D01*
D02*
G37*
G36*
X573540Y685151D02*
X572725Y684838D01*
X572474Y684712D01*
X572349Y684461D01*
X571973Y684085D01*
X571471Y682956D01*
X571847Y682329D01*
X572035Y682141D01*
X572098Y682078D01*
X572411Y681765D01*
X573289Y681389D01*
X573540Y681639D01*
X574167Y681890D01*
X574418Y682016D01*
X575108Y683333D01*
X574983Y683709D01*
X574732Y684336D01*
X574418Y684900D01*
X573540Y685151D01*
D02*
G37*
G36*
X565263Y684524D02*
X565012Y684399D01*
X564949Y684211D01*
X565325Y684085D01*
X565200Y683458D01*
X564949Y683207D01*
X564636Y682392D01*
X564322Y682078D01*
X564197Y681577D01*
X563695Y680448D01*
X563569Y679946D01*
X563068Y678818D01*
X562880Y677626D01*
X562441Y676560D01*
X562315Y674679D01*
Y674553D01*
X562002Y672484D01*
X561939Y671794D01*
X562253Y671355D01*
X562441Y671543D01*
X562691Y672170D01*
X563193Y673299D01*
X563381Y675243D01*
X563507Y675995D01*
X563758Y676623D01*
X563883Y678002D01*
X564071Y678441D01*
X564447Y678818D01*
X564573Y679946D01*
X564761Y680134D01*
X565137Y680009D01*
X565388Y679758D01*
X565451Y680072D01*
X565263Y680260D01*
X565075Y680322D01*
X565012Y680887D01*
X565137Y681389D01*
X565388Y681639D01*
X565702Y681577D01*
X565764Y681389D01*
X565952Y681451D01*
X565890Y681639D01*
X565639Y681765D01*
X565576Y682329D01*
X566141Y683019D01*
X566203Y683834D01*
X565890Y684148D01*
X565325Y684336D01*
X565263Y684524D01*
D02*
G37*
G36*
X575171Y681639D02*
X574920D01*
X574732Y681451D01*
X574857Y681200D01*
X574920Y681138D01*
X575233Y681451D01*
X575171Y681639D01*
D02*
G37*
G36*
X577178Y681138D02*
X577115Y681075D01*
X577178Y681012D01*
X577240Y681075D01*
X577178Y681138D01*
D02*
G37*
G36*
X570530D02*
X570342Y681075D01*
X570467Y680824D01*
X570530Y680761D01*
X570656D01*
X570718Y680950D01*
X570530Y681138D01*
D02*
G37*
G36*
X574167Y680887D02*
X574105Y680699D01*
X574167Y680636D01*
X574293D01*
X574544Y680761D01*
X574606Y680824D01*
X574167Y680887D01*
D02*
G37*
G36*
X576425Y680385D02*
X576362Y680322D01*
Y680197D01*
X576550Y680134D01*
X576613Y680322D01*
X576425Y680385D01*
D02*
G37*
G36*
X572662Y680009D02*
X572600Y679946D01*
X572662Y679883D01*
X572725Y679946D01*
X572662Y680009D01*
D02*
G37*
G36*
X588214Y679758D02*
X588026Y679695D01*
X588152Y679445D01*
X588214Y679382D01*
X588277Y679445D01*
X588214Y679758D01*
D02*
G37*
G36*
X597245Y679633D02*
X597057Y679445D01*
X597119Y679006D01*
X597495Y679131D01*
X597558Y679445D01*
X597495Y679507D01*
X597245Y679633D01*
D02*
G37*
G36*
X600255D02*
X600129D01*
X599941Y679570D01*
X599816Y679068D01*
X600004Y678880D01*
X600255Y679006D01*
X600317Y679570D01*
X600255Y679633D01*
D02*
G37*
G36*
X601634Y679257D02*
X601258Y679131D01*
X601195Y679068D01*
X601509Y678629D01*
X601823Y678943D01*
Y679068D01*
X601634Y679257D01*
D02*
G37*
G36*
X588967D02*
X588528Y679194D01*
X588653Y678567D01*
X588716Y678504D01*
X588842D01*
X589030Y678692D01*
X588967Y679257D01*
D02*
G37*
G36*
X587462Y678880D02*
X587274Y678818D01*
X587399Y678441D01*
X587462Y678379D01*
X587525Y678441D01*
X587587Y678504D01*
X587650Y678692D01*
X587462Y678880D01*
D02*
G37*
G36*
X568900Y678755D02*
X568837Y678692D01*
X568900Y678379D01*
X569088Y678567D01*
X568900Y678755D01*
D02*
G37*
G36*
X594862Y678504D02*
X594548Y678441D01*
X594736Y678253D01*
X594862D01*
X595050Y678316D01*
X594862Y678504D01*
D02*
G37*
G36*
X589469Y678128D02*
X589406Y678065D01*
X589531Y677940D01*
X589594Y677877D01*
X589657Y678065D01*
X589469Y678128D01*
D02*
G37*
G36*
X587964Y678002D02*
X587901Y677814D01*
X588214Y677501D01*
X588403Y677563D01*
X588277Y677814D01*
Y677940D01*
X587964Y678002D01*
D02*
G37*
G36*
X565263Y678253D02*
X565137D01*
X565075Y678190D01*
X564824Y678065D01*
X564886Y677375D01*
X565325Y677689D01*
X565451Y678065D01*
X565263Y678253D01*
D02*
G37*
G36*
X593733Y677501D02*
X593419Y677438D01*
X593607Y677250D01*
X593733D01*
X593796Y677312D01*
X593733Y677501D01*
D02*
G37*
G36*
X588842Y677124D02*
X588779Y676811D01*
X589218Y676748D01*
X589281Y676811D01*
X589155Y677062D01*
X588842Y677124D01*
D02*
G37*
G36*
X594862Y676999D02*
X594360Y676873D01*
X594297Y676811D01*
X594423Y676560D01*
X594736Y676497D01*
X594924Y676685D01*
X594862Y676999D01*
D02*
G37*
G36*
X587337D02*
X587148Y676811D01*
X587337Y676497D01*
X587525Y676685D01*
X587462Y676873D01*
X587399Y676936D01*
X587337Y676999D01*
D02*
G37*
G36*
X568900Y676873D02*
X568837Y676685D01*
X569025Y676497D01*
X569088Y676685D01*
Y676811D01*
X568900Y676873D01*
D02*
G37*
G36*
X564636D02*
X564573Y676434D01*
X564636Y676372D01*
X564698Y676434D01*
Y676560D01*
X564636Y676873D01*
D02*
G37*
G36*
X600506Y676372D02*
X600443Y676309D01*
X600631Y676246D01*
X600694Y676309D01*
X600506Y676372D01*
D02*
G37*
G36*
X588465D02*
X588403Y676309D01*
X588465Y676246D01*
X588528Y676309D01*
X588465Y676372D01*
D02*
G37*
G36*
X573415Y676246D02*
X573352Y676184D01*
Y676058D01*
X573415Y675995D01*
X573478Y676184D01*
X573415Y676246D01*
D02*
G37*
G36*
X597872Y675745D02*
X597809Y675682D01*
X597872Y675619D01*
X597997D01*
X598311Y675682D01*
X597872Y675745D01*
D02*
G37*
G36*
X593106Y674992D02*
X593043Y674930D01*
X593106Y674741D01*
X593607Y674867D01*
X593670Y674930D01*
X593106Y674992D01*
D02*
G37*
G36*
X591475Y675494D02*
X591350D01*
X591036Y675431D01*
X590785Y674804D01*
X591099Y674741D01*
X591413Y674930D01*
X591538Y675431D01*
X591475Y675494D01*
D02*
G37*
G36*
X595489Y674616D02*
X595363D01*
X595175Y674428D01*
X595614Y674365D01*
X595802Y674553D01*
X595489Y674616D01*
D02*
G37*
G36*
X602011Y675995D02*
X601634Y675870D01*
X600756Y675494D01*
X599879Y675368D01*
X599063Y675055D01*
X597872Y674491D01*
X597245Y674240D01*
X596868Y674114D01*
X596618Y673863D01*
X595990Y673613D01*
X594611Y672860D01*
X594360Y672609D01*
X593482Y672107D01*
X593231Y671857D01*
X592980Y671731D01*
X592353Y671104D01*
X592102Y670979D01*
X591726Y670602D01*
X591099Y670226D01*
X590033Y669160D01*
X589908Y668909D01*
X589720Y668721D01*
X589531Y668659D01*
X589406Y668408D01*
X589030Y668031D01*
X588904Y667781D01*
X588277Y667153D01*
X587964Y666589D01*
X587713Y666464D01*
X587462Y665836D01*
X587023Y665648D01*
X586898Y665147D01*
X586647Y664896D01*
X586521Y664645D01*
X585894Y663767D01*
X585643Y663140D01*
X585518Y662638D01*
X585016Y661384D01*
X584640Y660506D01*
X584515Y659879D01*
X584264Y659628D01*
X584201Y659566D01*
X584013Y659377D01*
X584138Y657747D01*
X584452Y657433D01*
X584765Y657496D01*
X584891Y659001D01*
X585392Y659503D01*
X585581Y660443D01*
X585894Y660882D01*
X586145Y661509D01*
X586772Y662889D01*
X587023Y663516D01*
X587274Y663767D01*
X587399Y664143D01*
X587775Y664520D01*
X588152Y665147D01*
X588403Y665398D01*
X588528Y666025D01*
X588716Y666213D01*
X588967Y666338D01*
X589218Y666840D01*
X589469Y666965D01*
X589782Y667404D01*
X589970Y667592D01*
X590221Y667718D01*
X590535Y668031D01*
X590660Y668282D01*
X591099Y668721D01*
X591350Y668847D01*
X591664Y669160D01*
X591789Y669411D01*
X592416Y669787D01*
X592541Y670038D01*
X593419Y670540D01*
X593545Y670791D01*
X594235Y671230D01*
X594485Y671480D01*
X595112Y671731D01*
X595363Y671982D01*
X597245Y672860D01*
X597495Y672985D01*
X597746Y673236D01*
X598248Y673362D01*
X598875Y673738D01*
X599502Y673989D01*
X600129Y673863D01*
X600882Y674365D01*
X602199Y674553D01*
X602700Y674679D01*
X603077Y675557D01*
X602951Y675933D01*
X602011Y675995D01*
D02*
G37*
G36*
X589469Y673738D02*
X589406Y673675D01*
X589281Y673550D01*
X589594Y673487D01*
X589657Y673675D01*
X589469Y673738D01*
D02*
G37*
G36*
X593106Y673362D02*
X593043Y673299D01*
X592980Y673236D01*
X592918Y673174D01*
X593231Y673111D01*
X593419Y673299D01*
X593106Y673362D01*
D02*
G37*
G36*
X583950Y673863D02*
X583762Y673299D01*
X583825Y673111D01*
X583887Y673174D01*
X584138Y673675D01*
X583950Y673863D01*
D02*
G37*
G36*
X599377Y673236D02*
X599189Y673048D01*
X599251Y672985D01*
X599377D01*
X599690Y673048D01*
X599377Y673236D01*
D02*
G37*
G36*
X603892Y672985D02*
X603453Y672672D01*
Y672546D01*
X603516Y672484D01*
X604206Y672546D01*
X604268Y672860D01*
X603892Y672985D01*
D02*
G37*
G36*
X600129Y672735D02*
X600004D01*
X599941Y672672D01*
X600004Y672484D01*
X600192Y672546D01*
X600129Y672735D01*
D02*
G37*
G36*
X583699Y673111D02*
X583323Y672985D01*
X583260Y672546D01*
X583448Y672484D01*
X583637Y672672D01*
X583762Y673048D01*
X583699Y673111D01*
D02*
G37*
G36*
X598499Y672609D02*
X597934Y672546D01*
X597997Y672358D01*
X598562Y672421D01*
Y672546D01*
X598499Y672609D01*
D02*
G37*
G36*
X588842Y673111D02*
X588653Y673048D01*
X588340Y672484D01*
X588277Y672421D01*
X588152Y672045D01*
X588214Y671982D01*
X588591Y672358D01*
X588779Y672421D01*
X588904Y672923D01*
X588842Y673111D01*
D02*
G37*
G36*
X610163Y672233D02*
X610100Y671919D01*
X610163Y671857D01*
X610226Y671919D01*
X610351Y672045D01*
X610163Y672233D01*
D02*
G37*
G36*
X584452D02*
X584264Y672045D01*
X584452Y671857D01*
X584577D01*
X584640Y672045D01*
X584452Y672233D01*
D02*
G37*
G36*
X596868Y671982D02*
X596806Y671794D01*
X596868Y671731D01*
X596994D01*
X597182Y671794D01*
X596868Y671982D01*
D02*
G37*
G36*
X589720D02*
X589657Y671919D01*
X589531Y671794D01*
X589720Y671731D01*
X589782Y671919D01*
X589720Y671982D01*
D02*
G37*
G36*
X589343Y682517D02*
X588214Y681389D01*
X587964Y681263D01*
X587901Y681200D01*
X587650Y680950D01*
X587587Y680761D01*
X587086Y680636D01*
X586647Y680197D01*
X586521Y679946D01*
X585706Y679131D01*
X585518Y679068D01*
X585392Y678818D01*
X585079Y678379D01*
X584828Y678253D01*
X584640Y678065D01*
X584452Y677626D01*
X584264Y677563D01*
X584138Y677312D01*
X583825Y676873D01*
X583574Y676748D01*
X583448Y676246D01*
X582884Y675431D01*
X582570Y674741D01*
X582382Y674679D01*
X581254Y672546D01*
X581003Y671919D01*
X580501Y670791D01*
X580187Y669975D01*
X579874Y669286D01*
X579686Y668470D01*
X579498Y668031D01*
X579247Y667404D01*
X579059Y666087D01*
X578808Y665460D01*
X578683Y664833D01*
X578557Y663830D01*
X578432Y663328D01*
X578243Y662764D01*
X578118Y662262D01*
X578055Y657684D01*
X578306Y657308D01*
X578620Y657245D01*
X578871Y657872D01*
X578996Y661886D01*
X579372Y662764D01*
X579561Y664582D01*
X580125Y665899D01*
X580250Y667028D01*
X580501Y667279D01*
X580626Y668157D01*
X580815Y668847D01*
X581191Y668972D01*
X581379Y668909D01*
X581505Y668659D01*
X581567Y668596D01*
X581630Y668909D01*
X581379Y669160D01*
X581254Y670163D01*
X581442Y670602D01*
X581693Y670728D01*
X581881Y671292D01*
X582006Y671794D01*
X582194Y671982D01*
X582570Y671857D01*
X582696Y671731D01*
X582759Y671794D01*
X582508Y672045D01*
X582633Y673048D01*
X583009Y673424D01*
X583198Y674114D01*
X583637Y674553D01*
X583950Y675368D01*
X584264Y675557D01*
X584577Y676372D01*
X584828Y676497D01*
X585330Y677250D01*
X585769Y677940D01*
X587023Y679194D01*
X587274Y679821D01*
X587650Y680197D01*
X587838Y680636D01*
X588340Y680761D01*
X588591Y681263D01*
X589155Y681326D01*
X589281Y681827D01*
X589469Y682016D01*
X589908Y682204D01*
X589782Y682455D01*
X589343Y682517D01*
D02*
G37*
G36*
X587587Y671606D02*
X587399Y671543D01*
Y671292D01*
X587462Y671230D01*
X587650Y671292D01*
X587587Y671606D01*
D02*
G37*
G36*
X583448Y671355D02*
X583135Y671292D01*
X583323Y671104D01*
X583511Y671167D01*
Y671292D01*
X583448Y671355D01*
D02*
G37*
G36*
X591099Y671480D02*
X590723Y671355D01*
X590284Y670916D01*
X590347Y670728D01*
X590974Y670853D01*
X591036Y670916D01*
X591099Y671480D01*
D02*
G37*
G36*
X594736Y670728D02*
X594674Y670540D01*
X594862Y670477D01*
X594987Y670602D01*
X595050Y670665D01*
X594736Y670728D01*
D02*
G37*
G36*
X588089Y670853D02*
X587964D01*
X587901Y670665D01*
X588214Y670352D01*
X588403Y670540D01*
X588277Y670791D01*
X588089Y670853D01*
D02*
G37*
G36*
X605021Y670352D02*
X604707Y670289D01*
X604644Y670226D01*
X604582Y670038D01*
X604895Y669975D01*
X605083Y670163D01*
X605021Y670352D01*
D02*
G37*
G36*
X601760D02*
X601446Y670163D01*
X601509Y669975D01*
X601697Y669913D01*
X601760Y669850D01*
X602262Y669975D01*
X602324Y670289D01*
X601760Y670352D01*
D02*
G37*
G36*
X593984Y669975D02*
X593921Y669913D01*
X593984Y669850D01*
X594046Y669913D01*
X593984Y669975D01*
D02*
G37*
G36*
X607905Y669348D02*
X606651Y669223D01*
X606588Y669160D01*
X607153Y669097D01*
X607278D01*
X608093Y669160D01*
X607905Y669348D01*
D02*
G37*
G36*
X593106Y669097D02*
X592604Y668972D01*
X592541Y668909D01*
X592604Y668721D01*
X593168Y668784D01*
X593106Y669097D01*
D02*
G37*
G36*
X605021D02*
X604644Y668972D01*
X604582Y668784D01*
Y668659D01*
X605271Y668596D01*
X605334Y668784D01*
X605021Y669097D01*
D02*
G37*
G36*
X600506D02*
X600443Y668784D01*
X600756Y668470D01*
X601007D01*
X601070Y668533D01*
X600945Y669035D01*
X600506Y669097D01*
D02*
G37*
G36*
X591852Y668596D02*
X591664Y668408D01*
X591726Y668220D01*
X592040Y668282D01*
X592102Y668345D01*
X592165Y668408D01*
X591852Y668596D01*
D02*
G37*
G36*
X587211Y668847D02*
X587148Y668408D01*
X587337Y668094D01*
X587650Y668157D01*
Y668659D01*
X587587Y668721D01*
X587211Y668847D01*
D02*
G37*
G36*
X593733Y668345D02*
X593419Y668282D01*
Y668157D01*
X593294Y667906D01*
X593482Y667843D01*
X593921Y668157D01*
X593733Y668345D01*
D02*
G37*
G36*
X603892Y668220D02*
X603390Y668094D01*
X603202Y667906D01*
X603265Y667843D01*
X603327Y667781D01*
X603516Y667718D01*
X604080Y668031D01*
X603892Y668220D01*
D02*
G37*
G36*
X585957Y668345D02*
X585643Y668282D01*
X585518Y667781D01*
X585581Y667718D01*
X585957Y667592D01*
X586145Y668031D01*
X585957Y668345D01*
D02*
G37*
G36*
X602763Y667718D02*
X602011Y667467D01*
X601760Y667216D01*
X601195Y667153D01*
X600506Y667342D01*
X600317Y667153D01*
X600255Y666965D01*
X599879Y666840D01*
X599502Y666965D01*
X598875Y666840D01*
X598499Y666464D01*
X597997Y666338D01*
X597370Y666213D01*
X596868Y665711D01*
X596241Y665335D01*
X595614Y665084D01*
X594548Y664520D01*
X594360Y664081D01*
X594109Y663955D01*
X593294Y663391D01*
X593168Y663140D01*
X592980Y662952D01*
X592729Y662826D01*
X592040Y662262D01*
X591789Y662011D01*
X591601Y661321D01*
X590911Y660882D01*
X590785Y660632D01*
X590221Y659942D01*
X590033Y659754D01*
X589720Y658938D01*
X589343Y658437D01*
X589092Y658311D01*
X588904Y658123D01*
X588591Y657308D01*
X588403Y657120D01*
X588277Y656618D01*
X588152Y655991D01*
X587650Y655489D01*
X587462Y654674D01*
X587023Y654235D01*
X586835Y653420D01*
X586584Y652793D01*
X586208Y651413D01*
X586020Y650849D01*
X585894Y650347D01*
X585769Y648340D01*
X585643Y647462D01*
X585518Y647086D01*
X585392Y644703D01*
X585518Y642320D01*
X585643Y641944D01*
X585769Y640690D01*
X585643Y640188D01*
X585831Y639122D01*
X585957Y638369D01*
X586270Y637931D01*
X586521Y637304D01*
X586647Y636551D01*
X587211Y635861D01*
X587462Y635610D01*
X587525Y636551D01*
X587399Y636927D01*
X587148Y638056D01*
X587023Y638432D01*
X586835Y640752D01*
X586772Y642822D01*
X586898Y643198D01*
X587023Y645456D01*
X587148Y645832D01*
X587274Y647086D01*
X587775Y648215D01*
X587964Y648905D01*
X588214Y649532D01*
X588779Y650347D01*
X589092Y650912D01*
X589343Y650786D01*
X589406Y650096D01*
X588904Y648968D01*
X588653Y647964D01*
X588465Y647274D01*
X588340Y646773D01*
X588152Y645079D01*
X588277Y640941D01*
X588403Y640564D01*
X588653Y639059D01*
X588779Y637931D01*
X588904Y637554D01*
X589030Y636927D01*
X589281Y636676D01*
X589406Y636175D01*
X589594Y635234D01*
X589908Y634921D01*
X590033Y634419D01*
X590158Y633415D01*
X590409Y633290D01*
X590535Y633039D01*
X591162Y632161D01*
X591225Y632099D01*
X591914Y632663D01*
X591789Y632914D01*
X591162Y633541D01*
X591036Y633792D01*
X590785Y634419D01*
X590660Y635548D01*
X590409Y635798D01*
X590158Y637429D01*
X589908Y637680D01*
X589782Y638181D01*
X589908Y643825D01*
X590284Y644703D01*
X590409Y645205D01*
X590911Y646083D01*
X590974Y646146D01*
X591162Y645957D01*
X591287Y645079D01*
X591225Y644641D01*
X591287Y644452D01*
Y644327D01*
X591350Y644013D01*
X591664Y643951D01*
X591789Y644452D01*
X591852Y647525D01*
X591789Y648591D01*
X591914Y648968D01*
X592040Y652103D01*
X592291Y652354D01*
X592479Y653545D01*
X592604Y654173D01*
X593043Y655238D01*
X593231Y656054D01*
X593670Y656493D01*
X593858Y657433D01*
X594172Y657747D01*
X594297Y658499D01*
X594924Y659127D01*
X595050Y659754D01*
X595238Y659942D01*
X595426Y660005D01*
X595614Y660694D01*
X596053Y661008D01*
X596179Y661384D01*
X596680Y661886D01*
X596806Y662137D01*
X597307Y662638D01*
X597433Y662889D01*
X598499Y663955D01*
X598875Y664081D01*
X599063Y664269D01*
X599126Y664457D01*
X599377Y664582D01*
X599565Y664771D01*
X599690Y665021D01*
X599879Y665209D01*
X600129Y665335D01*
X600506Y665711D01*
X601133Y665962D01*
X601258Y666213D01*
X601885Y666464D01*
X602262Y666840D01*
X602889Y667091D01*
X603077Y667279D01*
X602951Y667655D01*
X602763Y667718D01*
D02*
G37*
G36*
X572600Y687848D02*
X572349Y687722D01*
X571973Y687095D01*
X571784Y686907D01*
X571596Y686844D01*
X571345Y686217D01*
X570906Y685904D01*
X570718Y685716D01*
X570656Y685527D01*
X570405Y685402D01*
X570091Y685089D01*
X569966Y684838D01*
X569715Y684587D01*
X569339Y683834D01*
X569276Y683772D01*
X569088Y683583D01*
X568774Y682768D01*
X568461Y682455D01*
X568147Y681639D01*
X567959Y681451D01*
X567708Y680824D01*
X567583Y680322D01*
X567207Y679695D01*
X567081Y679194D01*
X566705Y678567D01*
X566580Y678190D01*
X566454Y677187D01*
X566266Y676873D01*
X566078Y676811D01*
X565952Y676309D01*
X565827Y674804D01*
X565451Y673926D01*
X565325Y672296D01*
X565263Y668345D01*
X565388Y667843D01*
X565639Y667216D01*
X565764Y667091D01*
X566078Y667781D01*
X566203Y668659D01*
X566329Y672421D01*
X566454Y672797D01*
X566705Y673801D01*
X566893Y674867D01*
X567081Y675306D01*
X567583Y676434D01*
X567708Y677940D01*
X567959Y678190D01*
X568084Y678943D01*
X568461Y679319D01*
X568900Y680511D01*
X569213Y681200D01*
X569339Y681702D01*
X569590Y681953D01*
X569840Y682580D01*
X569966Y682831D01*
X570154Y683019D01*
X570467Y683082D01*
X570656Y684022D01*
X570969Y684211D01*
X571408Y685026D01*
X571659Y685151D01*
X571847Y685339D01*
X571973Y685841D01*
X572349Y686092D01*
X572725Y686719D01*
X573101Y686970D01*
X573039Y687785D01*
X572600Y687848D01*
D02*
G37*
G36*
X592228Y667216D02*
X591789Y667153D01*
X591852Y666965D01*
X591977D01*
X592291Y667028D01*
X592228Y667216D01*
D02*
G37*
G36*
X590597Y667091D02*
X590535Y666777D01*
X590597Y666714D01*
X590723D01*
X590785Y666777D01*
X590597Y667091D01*
D02*
G37*
G36*
X596618Y666965D02*
X596304Y666777D01*
X596429Y666526D01*
X596743Y666464D01*
X596806Y666526D01*
X596680Y666903D01*
X596618Y666965D01*
D02*
G37*
G36*
X585079Y667091D02*
X584891Y666903D01*
X584828Y666338D01*
X584953Y666087D01*
X585204Y666213D01*
X585267Y666401D01*
Y666526D01*
X585142Y667028D01*
X585079Y667091D01*
D02*
G37*
G36*
X595740Y666087D02*
X595677Y666025D01*
X595865Y665962D01*
X595928Y666025D01*
X595740Y666087D01*
D02*
G37*
G36*
X535036D02*
X534974Y666025D01*
X535036Y665962D01*
X535099Y666025D01*
X535036Y666087D01*
D02*
G37*
G36*
X592228Y665962D02*
X591977D01*
X591914Y665899D01*
X591789Y665774D01*
X591977Y665586D01*
X592291Y665648D01*
X592228Y665962D01*
D02*
G37*
G36*
X589469D02*
X589155Y665899D01*
X589469Y665586D01*
X589531Y665648D01*
Y665774D01*
X589469Y665962D01*
D02*
G37*
G36*
X589720Y665460D02*
X589657Y665272D01*
X589845Y665084D01*
X590033Y665147D01*
Y665272D01*
Y665398D01*
X589720Y665460D01*
D02*
G37*
G36*
X537043Y665209D02*
X536479Y665147D01*
X536604Y664645D01*
X536792Y664582D01*
X536918D01*
X537106Y664645D01*
X537043Y665209D01*
D02*
G37*
G36*
X590597Y664332D02*
X590535Y664269D01*
X590597Y664206D01*
X590660Y664269D01*
X590597Y664332D01*
D02*
G37*
G36*
X591099Y663203D02*
X591036Y663140D01*
X591099Y663077D01*
X591162Y663140D01*
X591099Y663203D01*
D02*
G37*
G36*
X588089Y662952D02*
X587901Y662764D01*
X588089Y662701D01*
X588152Y662889D01*
X588089Y662952D01*
D02*
G37*
G36*
X587713Y662576D02*
X587399Y662387D01*
X587462Y662074D01*
X587775Y662137D01*
Y662513D01*
X587713Y662576D01*
D02*
G37*
G36*
X532904Y650535D02*
X532716Y650473D01*
X532779Y650284D01*
X532967Y650347D01*
Y650473D01*
X532904Y650535D01*
D02*
G37*
G36*
X575422Y644641D02*
X575233Y644578D01*
X575359Y644202D01*
X575422Y644139D01*
X575484Y644202D01*
X575422Y644641D01*
D02*
G37*
G36*
X571659Y644515D02*
X571596Y643825D01*
X571784Y643637D01*
X571973Y643700D01*
Y644327D01*
X571910Y644390D01*
X571659Y644515D01*
D02*
G37*
G36*
X534535Y643010D02*
X534347Y642446D01*
X534221Y641442D01*
X533845Y640564D01*
X533469Y639059D01*
X533657Y638997D01*
X534033Y639373D01*
X534096Y639436D01*
X534284Y640251D01*
X534409Y640752D01*
X534723Y641819D01*
X534597Y642947D01*
X534535Y643010D01*
D02*
G37*
G36*
X533280Y638620D02*
X533218Y638181D01*
X533280Y638119D01*
X533469Y638432D01*
X533343Y638558D01*
X533280Y638620D01*
D02*
G37*
G36*
X533406Y637492D02*
X533155Y637366D01*
X533092Y636802D01*
X533280Y636739D01*
X533469Y636927D01*
Y637053D01*
Y637178D01*
X533406Y637492D01*
D02*
G37*
G36*
X536667Y637115D02*
X536291D01*
X536228Y636802D01*
X536416Y636614D01*
X536730Y636802D01*
X536667Y637115D01*
D02*
G37*
G36*
X580313D02*
X580125Y636551D01*
X579999Y635422D01*
X580187Y635234D01*
X580438D01*
X580626Y635297D01*
X580752Y636175D01*
X580877Y636551D01*
X580313Y637115D01*
D02*
G37*
G36*
X591852Y635234D02*
X591789Y634670D01*
X591977Y634482D01*
X592165Y634544D01*
Y634670D01*
X592040Y635046D01*
X591852Y635234D01*
D02*
G37*
G36*
X589092Y633227D02*
X588779Y633039D01*
X588842Y632726D01*
X589281Y632663D01*
X589343Y632726D01*
X589406Y632788D01*
X589281Y633039D01*
X589092Y633227D01*
D02*
G37*
G36*
X542060Y632600D02*
X541997Y632412D01*
X542060Y632349D01*
X542185Y632475D01*
X542248Y632537D01*
X542060Y632600D01*
D02*
G37*
G36*
X589657Y632412D02*
X589782Y632036D01*
X589970Y631973D01*
X590033Y632287D01*
X589970Y632349D01*
X589657Y632412D01*
D02*
G37*
G36*
X588842Y631973D02*
X588528Y631910D01*
X588653Y631660D01*
X589030Y631409D01*
X589155Y631158D01*
X589343Y630970D01*
X589782Y630907D01*
X589908Y630531D01*
X590409Y630280D01*
X590535Y629904D01*
X590848Y629841D01*
X590911Y630280D01*
X590597Y630343D01*
X590535Y630405D01*
X590221Y630970D01*
X589782Y631032D01*
X589594Y631471D01*
X589092Y631597D01*
X588842Y631973D01*
D02*
G37*
G36*
X538548Y629089D02*
X538485Y629026D01*
X538799Y628712D01*
X538924D01*
X538987Y628775D01*
X539113Y629026D01*
X538548Y629089D01*
D02*
G37*
G36*
X593231Y628461D02*
X593043Y628273D01*
X593357Y628210D01*
X593419Y628273D01*
X593357Y628336D01*
X593294Y628399D01*
X593231Y628461D01*
D02*
G37*
G36*
X594235Y627834D02*
X593796Y627772D01*
Y627521D01*
X593858Y627458D01*
X594360Y627333D01*
X594423Y627646D01*
X594235Y627834D01*
D02*
G37*
G36*
X595740Y627458D02*
X595677Y627270D01*
X595865Y627082D01*
X595928Y627270D01*
Y627395D01*
X595740Y627458D01*
D02*
G37*
G36*
X594736Y627207D02*
X594548Y627019D01*
X594736Y626831D01*
X595050Y626894D01*
X594987Y627082D01*
X594924Y627145D01*
X594736Y627207D01*
D02*
G37*
G36*
X540241Y629904D02*
X539991Y629778D01*
X540304Y628963D01*
X540743Y628649D01*
X540868Y628022D01*
X541057Y627834D01*
X541307Y627709D01*
X541370Y627145D01*
X541245Y626768D01*
X541997Y626643D01*
X542123Y625890D01*
X542436Y625828D01*
X542624Y626016D01*
X542499Y626517D01*
X542311Y626706D01*
X542123Y626768D01*
Y627145D01*
Y627270D01*
X541997Y627772D01*
X541496Y628273D01*
X541370Y628775D01*
X541245Y629151D01*
X540555Y629841D01*
X540241Y629904D01*
D02*
G37*
G36*
X596618Y626204D02*
X596429Y626141D01*
X596492Y625828D01*
X596555Y625765D01*
X596743Y625702D01*
X596931Y625890D01*
X596618Y626204D01*
D02*
G37*
G36*
X598248Y626329D02*
X598185Y626016D01*
X598248Y625953D01*
X598499Y625702D01*
X598875Y625577D01*
X598938Y625639D01*
X598624Y625953D01*
X598373Y626078D01*
X598248Y626329D01*
D02*
G37*
G36*
X599502Y625201D02*
X599189Y625138D01*
X599377Y624950D01*
X599690Y625012D01*
X599565Y625138D01*
X599502Y625201D01*
D02*
G37*
G36*
X545822Y624699D02*
X545509Y624636D01*
Y624260D01*
X545572Y624197D01*
X546450Y623068D01*
X546638Y623256D01*
X546512Y623758D01*
X546136Y624134D01*
X545822Y624699D01*
D02*
G37*
G36*
X542938Y625577D02*
X542687Y625451D01*
X542499Y625012D01*
X542938Y624448D01*
X543126Y624385D01*
X543251Y623884D01*
X543314Y623821D01*
X543941Y622943D01*
X544380Y623006D01*
X544255Y623507D01*
X543879Y623758D01*
X543753Y624260D01*
X543565Y624448D01*
X543314Y624573D01*
X543189Y625201D01*
X542938Y625577D01*
D02*
G37*
G36*
X547077Y622567D02*
X547014Y622504D01*
X547077Y622441D01*
X547139Y622504D01*
X547077Y622567D01*
D02*
G37*
G36*
X544694Y622692D02*
X544506Y622629D01*
Y622504D01*
X544568Y622441D01*
X544819Y622190D01*
X545007Y622253D01*
X544694Y622692D01*
D02*
G37*
G36*
X603892Y621814D02*
X603829Y621751D01*
X603892Y621689D01*
X603955Y621751D01*
X603892Y621814D01*
D02*
G37*
G36*
X545948Y621438D02*
X545885Y621124D01*
X545948Y621062D01*
X546011Y620999D01*
X546073Y620936D01*
X546136Y621250D01*
X545948Y621438D01*
D02*
G37*
G36*
X540555Y624573D02*
X540304Y624448D01*
X540116Y624260D01*
X540241Y623758D01*
X540931Y623068D01*
X541558Y622692D01*
X541684Y622567D01*
X541746Y622504D01*
X542750Y621501D01*
X542875Y621250D01*
X543628Y620748D01*
X543879Y620121D01*
X544067Y619933D01*
X544318Y620058D01*
X544380Y620372D01*
X543753Y620999D01*
X543628Y621501D01*
X542750Y622379D01*
X542624Y622629D01*
X541558Y623695D01*
X541307Y623821D01*
X540555Y624573D01*
D02*
G37*
G36*
X603516Y620434D02*
X603202Y620246D01*
Y620121D01*
X603327Y619870D01*
X603892Y619807D01*
X604080Y619995D01*
X603892Y620309D01*
X603516Y620434D01*
D02*
G37*
G36*
X602011Y620309D02*
X601948Y620246D01*
X602450Y619995D01*
Y619870D01*
X602512Y619807D01*
X602889Y619682D01*
X603077Y619870D01*
X602889Y620058D01*
X602011Y620309D01*
D02*
G37*
G36*
X605146Y619682D02*
X604268Y619557D01*
X604206Y619494D01*
X604080Y619243D01*
X604895Y619180D01*
X605334Y619494D01*
X605146Y619682D01*
D02*
G37*
G36*
X606400Y619055D02*
X606024Y618929D01*
X605397Y618679D01*
X605083Y618616D01*
X606024Y618553D01*
X606149D01*
X606777Y618679D01*
X606965Y618867D01*
X606400Y619055D01*
D02*
G37*
G36*
X607529Y618428D02*
X607278Y618177D01*
X606902Y618051D01*
X606839Y617989D01*
X607153Y617675D01*
X608031Y618051D01*
X608093Y618114D01*
X608219Y618365D01*
X607529Y618428D01*
D02*
G37*
G36*
X609285Y617801D02*
X608909Y617675D01*
X608846Y617613D01*
Y617487D01*
X609285Y617424D01*
X609473Y617613D01*
X609285Y617801D01*
D02*
G37*
G36*
X611417Y617299D02*
X610790Y617174D01*
X610539Y616923D01*
X609912Y616797D01*
X609849Y616735D01*
X610037Y616547D01*
X610915Y616672D01*
X610978Y616735D01*
X611041Y616797D01*
X611543Y616923D01*
X611605Y617111D01*
X611417Y617299D01*
D02*
G37*
G36*
X608783D02*
X608282Y617174D01*
X607843Y616860D01*
X607968Y616609D01*
X608407Y616547D01*
X608783Y616672D01*
X609222Y616735D01*
X609160Y616923D01*
X609097Y616986D01*
X608783Y617299D01*
D02*
G37*
G36*
X619820Y616296D02*
X619757Y616107D01*
X620196Y616045D01*
X620259Y616107D01*
X620322Y616170D01*
X620385Y616233D01*
X619820Y616296D01*
D02*
G37*
G36*
X612922Y616547D02*
X612421Y616421D01*
X612358Y616233D01*
X612421Y616170D01*
X612546D01*
X612922Y616045D01*
X613612Y616107D01*
X613487Y616358D01*
X612922Y616547D01*
D02*
G37*
G36*
X614929Y616045D02*
X614176Y615794D01*
X614114Y615480D01*
X614929Y615418D01*
X615054D01*
X615619Y615731D01*
X615493Y615982D01*
X614929Y616045D01*
D02*
G37*
G36*
X659453Y615041D02*
X659077Y614665D01*
X658324Y614540D01*
X657697Y614289D01*
X657133Y613975D01*
X657195Y613662D01*
X658199Y613787D01*
X659077Y614289D01*
X659704Y614540D01*
X660017Y614603D01*
Y614728D01*
X659892Y614979D01*
X659453Y615041D01*
D02*
G37*
G36*
X617375Y614101D02*
X617249Y613975D01*
Y613850D01*
X617375Y613599D01*
X618190Y613035D01*
X618503Y613097D01*
X618378Y613474D01*
X618002Y613725D01*
X617939Y614038D01*
X617375Y614101D01*
D02*
G37*
G36*
X619444Y613160D02*
X619005Y612847D01*
X618942Y612784D01*
X618754Y612596D01*
X619068Y612282D01*
X620071Y612031D01*
X620447Y611906D01*
X621702Y611781D01*
X622830Y611906D01*
X623269Y612345D01*
X622078Y612909D01*
X621702Y612784D01*
X620196Y613035D01*
X620071Y612909D01*
X619444Y613160D01*
D02*
G37*
G36*
X640515Y610903D02*
X640138Y610777D01*
X638884Y610652D01*
X638508Y610526D01*
X637693Y610714D01*
X636376Y610777D01*
X635247Y610150D01*
X635623Y610025D01*
X636877Y609899D01*
X638884Y610025D01*
X639386Y610150D01*
X640389Y610275D01*
X640765Y610401D01*
X641643Y610526D01*
X643525Y610652D01*
X643587Y610714D01*
Y610840D01*
X640515Y610903D01*
D02*
G37*
G36*
X634745Y610275D02*
X634557Y610213D01*
X634620Y610025D01*
X634745D01*
X634808Y610087D01*
X634745Y610275D01*
D02*
G37*
%LPD*%
G36*
X620134Y612470D02*
X620071Y612408D01*
X620008Y612470D01*
X620071Y612533D01*
X620134Y612470D01*
D02*
G37*
%LPC*%
G36*
X653182Y627333D02*
X652617Y627019D01*
Y626768D01*
X652680Y626706D01*
X653056Y626580D01*
X653245Y626643D01*
X653182Y627333D01*
D02*
G37*
G36*
X602011Y630092D02*
X601885D01*
X601823Y629653D01*
X602512Y629590D01*
X602575Y630029D01*
X602011Y630092D01*
D02*
G37*
G36*
X641142Y630844D02*
X640703Y630531D01*
X640577Y630280D01*
X640201Y629904D01*
X640076Y629653D01*
X639887Y629465D01*
X639511Y629339D01*
X639449Y629026D01*
X640013Y628963D01*
X640201Y629151D01*
X640264Y629214D01*
X640765Y629716D01*
X641016Y629841D01*
X641455Y630154D01*
X641330Y630782D01*
X641142Y630844D01*
D02*
G37*
G36*
X620573Y623695D02*
X620385Y623633D01*
X620259Y623131D01*
X620447Y623068D01*
X620573Y623194D01*
X620635Y623256D01*
X620573Y623695D01*
D02*
G37*
%LPD*%
D11*
X1391350Y827050D02*
Y835050D01*
X1415350Y827050D02*
Y835050D01*
X919960Y877230D02*
X942460D01*
X919960Y771230D02*
Y877230D01*
Y771230D02*
X942460D01*
X505460Y801200D02*
Y811700D01*
X884320Y705360D02*
X934320D01*
X884320Y737360D02*
X934320D01*
Y705360D02*
Y737360D01*
X884320Y705360D02*
Y737360D01*
X1005670Y604520D02*
X1016170D01*
X976460D02*
X986960D01*
X948366Y603404D02*
X958866D01*
X919310Y603250D02*
X929810D01*
X890100Y604520D02*
X900600D01*
X1301050Y671640D02*
Y679640D01*
X1277050Y671640D02*
Y679640D01*
D14*
X1307103Y883920D02*
G03*
X1307103Y883920I-1016J0D01*
G01*
X1282136Y591970D02*
G03*
X1282136Y591970I-1016J0D01*
G01*
X666433Y601656D02*
Y581660D01*
X665481Y601656D02*
Y581660D01*
X653103Y601656D02*
X665481Y589277D01*
X660720Y593086D02*
X653103Y581660D01*
X661673Y593086D02*
X654055Y581660D01*
X669290Y601656D02*
X662625D01*
X656912D02*
X651199D01*
X669290Y581660D02*
X662625D01*
X656912D02*
X651199D01*
X645866Y594991D02*
Y584516D01*
X644914Y582612D01*
X642058Y581660D01*
X640153D01*
X637297Y582612D01*
X635392Y584516D01*
X644914Y594991D02*
Y584516D01*
X643962Y582612D01*
X642058Y581660D01*
X635392Y594991D02*
Y581660D01*
X634440Y594991D02*
Y581660D01*
X648723Y594991D02*
X644914D01*
X638249D02*
X634440D01*
X635392Y581660D02*
X631584D01*
X626156Y594991D02*
Y581660D01*
X625204Y594991D02*
Y581660D01*
Y589277D02*
X624252Y592134D01*
X622348Y594038D01*
X620443Y594991D01*
X617587D01*
X616635Y594038D01*
Y593086D01*
X617587Y592134D01*
X618539Y593086D01*
X617587Y594038D01*
X629013Y594991D02*
X625204D01*
X629013Y581660D02*
X622348D01*
X607875Y594991D02*
X610731Y594038D01*
X612635Y592134D01*
X613588Y589277D01*
Y587373D01*
X612635Y584516D01*
X610731Y582612D01*
X607875Y581660D01*
X605970D01*
X603114Y582612D01*
X601209Y584516D01*
X600257Y587373D01*
Y589277D01*
X601209Y592134D01*
X603114Y594038D01*
X605970Y594991D01*
X607875D01*
X609779Y594038D01*
X611683Y592134D01*
X612635Y589277D01*
Y587373D01*
X611683Y584516D01*
X609779Y582612D01*
X607875Y581660D01*
X605970D02*
X604066Y582612D01*
X602161Y584516D01*
X601209Y587373D01*
Y589277D01*
X602161Y592134D01*
X604066Y594038D01*
X605970Y594991D01*
X594449D02*
Y581660D01*
X593497Y594991D02*
Y581660D01*
Y592134D02*
X591592Y594038D01*
X588736Y594991D01*
X586831D01*
X583975Y594038D01*
X583023Y592134D01*
Y581660D01*
X586831Y594991D02*
X584927Y594038D01*
X583975Y592134D01*
Y581660D01*
X597305Y594991D02*
X593497D01*
X597305Y581660D02*
X590640D01*
X586831D02*
X580166D01*
X575691Y593086D02*
Y592134D01*
X576643D01*
Y593086D01*
X575691Y594038D01*
X573787Y594991D01*
X569978D01*
X568074Y594038D01*
X567121Y593086D01*
X566169Y591182D01*
Y584516D01*
X565217Y582612D01*
X564265Y581660D01*
X567121Y593086D02*
Y584516D01*
X566169Y582612D01*
X564265Y581660D01*
X563313D01*
X567121Y591182D02*
X568074Y590230D01*
X573787Y589277D01*
X576643Y588325D01*
X577595Y586421D01*
Y584516D01*
X576643Y582612D01*
X573787Y581660D01*
X570930D01*
X569026Y582612D01*
X567121Y584516D01*
X573787Y589277D02*
X575691Y588325D01*
X576643Y586421D01*
Y584516D01*
X575691Y582612D01*
X573787Y581660D01*
X557600Y594991D02*
Y581660D01*
X556647Y594991D02*
Y581660D01*
Y592134D02*
X554743Y594038D01*
X551886Y594991D01*
X549982D01*
X547126Y594038D01*
X546174Y592134D01*
Y581660D01*
X549982Y594991D02*
X548078Y594038D01*
X547126Y592134D01*
Y581660D01*
X546174Y592134D02*
X544269Y594038D01*
X541413Y594991D01*
X539508D01*
X536652Y594038D01*
X535700Y592134D01*
Y581660D01*
X539508Y594991D02*
X537604Y594038D01*
X536652Y592134D01*
Y581660D01*
X560456Y594991D02*
X556647D01*
X560456Y581660D02*
X553791D01*
X549982D02*
X543317D01*
X539508D02*
X532843D01*
X528463Y601656D02*
X529415Y600704D01*
X528463Y599751D01*
X527511Y600704D01*
X528463Y601656D01*
Y594991D02*
Y581660D01*
X527511Y594991D02*
Y581660D01*
X531320Y594991D02*
X527511D01*
X531320Y581660D02*
X524654D01*
X1346911Y657778D02*
Y649448D01*
X1345244Y647782D01*
X1341912D01*
X1340246Y649448D01*
Y657778D01*
X1331915Y647782D02*
Y657778D01*
X1336914Y652780D01*
X1330249D01*
X1302461Y876218D02*
Y867888D01*
X1300795Y866222D01*
X1297462D01*
X1295796Y867888D01*
Y876218D01*
X1292464Y874552D02*
X1290798Y876218D01*
X1287466D01*
X1285799Y874552D01*
Y872886D01*
X1287466Y871220D01*
X1289132D01*
X1287466D01*
X1285799Y869554D01*
Y867888D01*
X1287466Y866222D01*
X1290798D01*
X1292464Y867888D01*
X1056081Y872408D02*
Y864078D01*
X1054415Y862412D01*
X1051082D01*
X1049416Y864078D01*
Y872408D01*
X1039419Y862412D02*
X1046084D01*
X1039419Y869076D01*
Y870742D01*
X1041086Y872408D01*
X1044418D01*
X1046084Y870742D01*
X1254556Y645242D02*
Y655238D01*
X1249558D01*
X1247891Y653572D01*
Y650240D01*
X1249558Y648574D01*
X1254556D01*
X1251224D02*
X1247891Y645242D01*
X1244559D02*
X1241227D01*
X1242893D01*
Y655238D01*
X1244559Y653572D01*
X1229564Y645242D02*
X1236228D01*
X1229564Y651906D01*
Y653572D01*
X1231230Y655238D01*
X1234562D01*
X1236228Y653572D01*
X1383700Y884972D02*
Y894968D01*
X1378701D01*
X1377035Y893302D01*
Y889970D01*
X1378701Y888304D01*
X1383700D01*
X1380368D02*
X1377035Y884972D01*
X1373703D02*
X1370371D01*
X1372037D01*
Y894968D01*
X1373703Y893302D01*
X1365372Y884972D02*
X1362040D01*
X1363706D01*
Y894968D01*
X1365372Y893302D01*
X517956Y819232D02*
Y829228D01*
X512958D01*
X511292Y827562D01*
Y824230D01*
X512958Y822564D01*
X517956D01*
X514624D02*
X511292Y819232D01*
X507959D02*
X504627D01*
X506293D01*
Y829228D01*
X507959Y827562D01*
X499628D02*
X497962Y829228D01*
X494630D01*
X492964Y827562D01*
Y820898D01*
X494630Y819232D01*
X497962D01*
X499628Y820898D01*
Y827562D01*
X927811Y668102D02*
Y678098D01*
X922812D01*
X921146Y676432D01*
Y673100D01*
X922812Y671434D01*
X927811D01*
X924478D02*
X921146Y668102D01*
X917814Y669768D02*
X916148Y668102D01*
X912815D01*
X911149Y669768D01*
Y676432D01*
X912815Y678098D01*
X916148D01*
X917814Y676432D01*
Y674766D01*
X916148Y673100D01*
X911149D01*
X845261Y702392D02*
Y712388D01*
X840262D01*
X838596Y710722D01*
Y707390D01*
X840262Y705724D01*
X845261D01*
X841928D02*
X838596Y702392D01*
X835264Y710722D02*
X833598Y712388D01*
X830266D01*
X828599Y710722D01*
Y709056D01*
X830266Y707390D01*
X828599Y705724D01*
Y704058D01*
X830266Y702392D01*
X833598D01*
X835264Y704058D01*
Y705724D01*
X833598Y707390D01*
X835264Y709056D01*
Y710722D01*
X833598Y707390D02*
X830266D01*
X931621Y623652D02*
Y633648D01*
X926622D01*
X924956Y631982D01*
Y628650D01*
X926622Y626984D01*
X931621D01*
X928288D02*
X924956Y623652D01*
X921624Y633648D02*
X914959D01*
Y631982D01*
X921624Y625318D01*
Y623652D01*
X1017981D02*
Y633648D01*
X1012982D01*
X1011316Y631982D01*
Y628650D01*
X1012982Y626984D01*
X1017981D01*
X1014648D02*
X1011316Y623652D01*
X1001319Y633648D02*
X1004652Y631982D01*
X1007984Y628650D01*
Y625318D01*
X1006318Y623652D01*
X1002986D01*
X1001319Y625318D01*
Y626984D01*
X1002986Y628650D01*
X1007984D01*
X988771Y623652D02*
Y633648D01*
X983772D01*
X982106Y631982D01*
Y628650D01*
X983772Y626984D01*
X988771D01*
X985438D02*
X982106Y623652D01*
X972109Y633648D02*
X978774D01*
Y628650D01*
X975442Y630316D01*
X973775D01*
X972109Y628650D01*
Y625318D01*
X973775Y623652D01*
X977108D01*
X978774Y625318D01*
X960831Y623652D02*
Y633648D01*
X955832D01*
X954166Y631982D01*
Y628650D01*
X955832Y626984D01*
X960831D01*
X957498D02*
X954166Y623652D01*
X945835D02*
Y633648D01*
X950834Y628650D01*
X944169D01*
X903681Y623652D02*
Y633648D01*
X898682D01*
X897016Y631982D01*
Y628650D01*
X898682Y626984D01*
X903681D01*
X900348D02*
X897016Y623652D01*
X893684Y631982D02*
X892018Y633648D01*
X888686D01*
X887019Y631982D01*
Y630316D01*
X888686Y628650D01*
X890352D01*
X888686D01*
X887019Y626984D01*
Y625318D01*
X888686Y623652D01*
X892018D01*
X893684Y625318D01*
X1078544Y682072D02*
Y692068D01*
X1073546D01*
X1071880Y690402D01*
Y687070D01*
X1073546Y685404D01*
X1078544D01*
X1075212D02*
X1071880Y682072D01*
X1068548D02*
X1065216D01*
X1066882D01*
Y692068D01*
X1068548Y690402D01*
X946150Y735808D02*
Y742472D01*
X947816Y744138D01*
X951148D01*
X952814Y742472D01*
Y735808D01*
X951148Y734142D01*
X947816D01*
X949482Y737474D02*
X946150Y734142D01*
X947816D02*
X946150Y735808D01*
X942818Y734142D02*
X939485D01*
X941152D01*
Y744138D01*
X942818Y742472D01*
X1373581Y596982D02*
Y606978D01*
X1370248Y603646D01*
X1366916Y606978D01*
Y596982D01*
X1358586D02*
Y606978D01*
X1363584Y601980D01*
X1356919D01*
X1373581Y640162D02*
Y650158D01*
X1370248Y646826D01*
X1366916Y650158D01*
Y640162D01*
X1363584Y648492D02*
X1361918Y650158D01*
X1358586D01*
X1356919Y648492D01*
Y646826D01*
X1358586Y645160D01*
X1360252D01*
X1358586D01*
X1356919Y643494D01*
Y641828D01*
X1358586Y640162D01*
X1361918D01*
X1363584Y641828D01*
X1315161Y744302D02*
Y754298D01*
X1311828Y750966D01*
X1308496Y754298D01*
Y744302D01*
X1298499D02*
X1305164D01*
X1298499Y750966D01*
Y752632D01*
X1300166Y754298D01*
X1303498D01*
X1305164Y752632D01*
X1366835Y744302D02*
Y754298D01*
X1363502Y750966D01*
X1360170Y754298D01*
Y744302D01*
X1356838D02*
X1353506D01*
X1355172D01*
Y754298D01*
X1356838Y752632D01*
X1147124Y805972D02*
X1148791Y807638D01*
X1152123D01*
X1153789Y805972D01*
Y799308D01*
X1152123Y797642D01*
X1148791D01*
X1147124Y799308D01*
Y802640D01*
X1150457D01*
X1143792Y797642D02*
Y807638D01*
X1137128Y797642D01*
Y807638D01*
X1133795D02*
Y797642D01*
X1128797D01*
X1127131Y799308D01*
Y805972D01*
X1128797Y807638D01*
X1133795D01*
X1289446Y706912D02*
X1291112Y708578D01*
X1294444D01*
X1296111Y706912D01*
Y700248D01*
X1294444Y698582D01*
X1291112D01*
X1289446Y700248D01*
X1286114Y708578D02*
X1279449D01*
Y706912D01*
X1286114Y700248D01*
Y698582D01*
X1318656Y706912D02*
X1320322Y708578D01*
X1323654D01*
X1325321Y706912D01*
Y700248D01*
X1323654Y698582D01*
X1320322D01*
X1318656Y700248D01*
X1308659Y708578D02*
X1311992Y706912D01*
X1315324Y703580D01*
Y700248D01*
X1313658Y698582D01*
X1310325D01*
X1308659Y700248D01*
Y701914D01*
X1310325Y703580D01*
X1315324D01*
X1408624Y867613D02*
X1410290Y869279D01*
X1413622D01*
X1415288Y867613D01*
Y860948D01*
X1413622Y859282D01*
X1410290D01*
X1408624Y860948D01*
X1398627Y869279D02*
X1405291D01*
Y864280D01*
X1401959Y865947D01*
X1400293D01*
X1398627Y864280D01*
Y860948D01*
X1400293Y859282D01*
X1403625D01*
X1405291Y860948D01*
X1373826Y862112D02*
X1375492Y863778D01*
X1378824D01*
X1380490Y862112D01*
Y855448D01*
X1378824Y853782D01*
X1375492D01*
X1373826Y855448D01*
X1365495Y853782D02*
Y863778D01*
X1370493Y858780D01*
X1363829D01*
X818276Y845342D02*
X819942Y847008D01*
X823275D01*
X824941Y845342D01*
Y838678D01*
X823275Y837012D01*
X819942D01*
X818276Y838678D01*
X814944Y845342D02*
X813278Y847008D01*
X809946D01*
X808279Y845342D01*
Y843676D01*
X809946Y842010D01*
X811612D01*
X809946D01*
X808279Y840344D01*
Y838678D01*
X809946Y837012D01*
X813278D01*
X814944Y838678D01*
X862726Y770412D02*
X864392Y772078D01*
X867725D01*
X869391Y770412D01*
Y763748D01*
X867725Y762082D01*
X864392D01*
X862726Y763748D01*
X852729Y762082D02*
X859394D01*
X852729Y768746D01*
Y770412D01*
X854396Y772078D01*
X857728D01*
X859394Y770412D01*
X1153789Y703498D02*
Y693502D01*
X1148791D01*
X1147124Y695168D01*
Y696834D01*
X1148791Y698500D01*
X1153789D01*
X1148791D01*
X1147124Y700166D01*
Y701832D01*
X1148791Y703498D01*
X1153789D01*
X1143792Y693502D02*
Y700166D01*
X1140460Y703498D01*
X1137128Y700166D01*
Y693502D01*
Y698500D01*
X1143792D01*
X1133795Y703498D02*
X1127131D01*
X1130463D01*
Y693502D01*
D63*
X887210Y786080D02*
G03*
X887210Y786080I-1250J0D01*
G01*
X938120Y694110D02*
G03*
X938120Y694110I-1250J0D01*
G01*
D64*
X927320Y715360D02*
G03*
X927320Y715360I-3000J0D01*
G01*
M02*
