G04*
G04 #@! TF.GenerationSoftware,Altium Limited,Altium Designer,22.5.1 (42)*
G04*
G04 Layer_Physical_Order=1*
G04 Layer_Color=255*
%FSLAX44Y44*%
%MOMM*%
G71*
G04*
G04 #@! TF.SameCoordinates,6AFA5DE7-E917-4A20-8E33-DC7232792B34*
G04*
G04*
G04 #@! TF.FilePolarity,Positive*
G04*
G01*
G75*
%ADD14C,0.2540*%
%ADD15R,1.2000X2.5000*%
G04:AMPARAMS|DCode=16|XSize=1mm|YSize=2mm|CornerRadius=0.25mm|HoleSize=0mm|Usage=FLASHONLY|Rotation=270.000|XOffset=0mm|YOffset=0mm|HoleType=Round|Shape=RoundedRectangle|*
%AMROUNDEDRECTD16*
21,1,1.0000,1.5000,0,0,270.0*
21,1,0.5000,2.0000,0,0,270.0*
1,1,0.5000,-0.7500,-0.2500*
1,1,0.5000,-0.7500,0.2500*
1,1,0.5000,0.7500,0.2500*
1,1,0.5000,0.7500,-0.2500*
%
%ADD16ROUNDEDRECTD16*%
%ADD17R,0.9000X1.0000*%
%ADD18R,1.0000X1.4000*%
%ADD27C,1.8600*%
%ADD28C,1.5240*%
%ADD29R,1.5600X1.5600*%
%ADD30C,1.5600*%
%ADD31C,0.8000*%
%ADD32C,0.6000*%
G36*
X1350804Y929201D02*
X1352884Y928339D01*
X1354756Y927088D01*
X1356348Y925496D01*
X1357599Y923624D01*
X1358461Y921544D01*
X1358900Y919336D01*
Y918210D01*
X1358900Y878840D01*
X1358900Y878840D01*
X1358961Y877595D01*
X1359447Y875153D01*
X1360400Y872853D01*
X1361783Y870783D01*
X1363543Y869023D01*
X1365613Y867639D01*
X1367913Y866687D01*
X1370355Y866201D01*
X1371600Y866140D01*
X1410970D01*
X1410970Y866140D01*
X1410970Y866140D01*
X1412221Y866140D01*
X1414674Y865652D01*
X1416986Y864695D01*
X1419066Y863305D01*
X1420835Y861536D01*
X1422224Y859456D01*
X1423182Y857144D01*
X1423670Y854691D01*
X1423670Y853440D01*
X1423670Y588010D01*
X1423670Y588010D01*
Y586884D01*
X1423230Y584676D01*
X1422369Y582596D01*
X1421118Y580724D01*
X1419526Y579132D01*
X1417654Y577881D01*
X1415574Y577019D01*
X1413366Y576580D01*
X1412240Y576580D01*
X1093468D01*
X1092205Y576580D01*
X1089872Y577547D01*
X1088086Y579332D01*
X1087120Y581666D01*
X1087120Y582929D01*
Y624843D01*
X1087120Y625594D01*
X1087412Y627066D01*
X1087987Y628452D01*
X1088821Y629700D01*
X1089882Y630761D01*
X1091131Y631595D01*
X1092517Y632168D01*
X1093989Y632461D01*
X1094740Y632460D01*
X1181158Y632460D01*
X1182370Y632460D01*
X1182370Y632460D01*
X1183609Y632581D01*
X1185899Y633529D01*
X1187651Y635281D01*
X1188599Y637571D01*
X1188720Y638810D01*
X1188720Y655320D01*
X1188720Y655320D01*
X1188720Y655320D01*
X1188719Y655324D01*
X1188623Y656311D01*
X1188550Y656488D01*
X1187865Y658143D01*
X1186463Y659545D01*
X1184631Y660303D01*
X1183640Y660400D01*
X1066800Y660400D01*
X1066800Y660400D01*
X1066053Y660363D01*
X1064588Y660072D01*
X1063208Y659500D01*
X1061966Y658670D01*
X1060909Y657614D01*
X1060079Y656372D01*
X1059508Y654992D01*
X1059217Y653527D01*
X1059180Y652780D01*
Y652517D01*
X1059130Y652268D01*
X1059130Y652268D01*
X1059130Y652267D01*
X1059130Y652130D01*
X1059139Y652085D01*
X1059130Y652040D01*
Y652039D01*
X1059152Y651931D01*
X1059152Y651930D01*
X1059152Y651930D01*
X1059147Y651830D01*
X1059157Y651759D01*
Y651758D01*
X1059161Y651735D01*
X1059161Y651734D01*
X1059161Y651733D01*
X1059157Y651666D01*
X1059179Y651516D01*
X1059174Y651430D01*
X1059174Y651430D01*
X1059180Y651414D01*
X1059180Y579120D01*
X1059180Y579120D01*
X1059180Y578615D01*
X1058793Y577681D01*
X1058079Y576967D01*
X1057145Y576580D01*
X1056640Y576580D01*
X1031240D01*
X1030482Y576580D01*
X1029082Y577159D01*
X1028010Y578230D01*
X1027430Y579631D01*
X1027430Y580388D01*
Y629408D01*
X1028010Y630808D01*
X1029082Y631880D01*
X1030482Y632460D01*
X1032510D01*
X1033006Y632508D01*
X1033922Y632886D01*
X1034623Y633587D01*
X1035002Y634504D01*
X1035050Y635000D01*
X1035050Y652780D01*
X1035050Y652780D01*
X1035050Y652780D01*
X1035050Y652783D01*
X1035013Y653527D01*
X1034927Y653960D01*
X1034723Y654992D01*
X1034151Y656373D01*
X1033321Y657615D01*
X1032265Y658671D01*
X1031023Y659501D01*
X1029642Y660072D01*
X1028177Y660364D01*
X1027430Y660400D01*
X840740Y660400D01*
X840234Y660400D01*
X839301Y660786D01*
X838586Y661501D01*
X838465Y661795D01*
X838200Y662939D01*
Y662940D01*
X838200Y662940D01*
X838200Y662940D01*
X838200Y662942D01*
X838127Y663683D01*
X837959Y664089D01*
X837559Y665057D01*
X836507Y666109D01*
X835134Y666677D01*
X834390Y666750D01*
X735330Y666750D01*
X711200Y642620D01*
X640080D01*
X639069Y642620D01*
X637202Y643393D01*
X635773Y644822D01*
X635000Y646690D01*
X635000Y647700D01*
X635000Y679454D01*
X635092Y680686D01*
X635773Y682331D01*
X637202Y683759D01*
X639070Y684531D01*
X640080Y684530D01*
X849094Y684530D01*
X1016624Y852362D01*
X1017484Y853224D01*
X1018621Y853423D01*
X1018800Y853440D01*
X1088390Y853440D01*
X1121410Y886460D01*
X1209040D01*
X1209783Y886533D01*
X1211157Y887102D01*
X1212208Y888153D01*
X1212777Y889527D01*
X1212850Y890270D01*
Y905510D01*
X1212850Y905510D01*
X1212850Y905510D01*
X1212728Y906749D01*
X1211780Y909038D01*
X1210028Y910790D01*
X1207739Y911738D01*
X1206500Y911860D01*
X741818Y911859D01*
X741818Y911859D01*
X740919Y912000D01*
X739102Y912080D01*
X737294Y911892D01*
X735532Y911439D01*
X733857Y910732D01*
X732304Y909786D01*
X730907Y908622D01*
X729697Y907264D01*
X729170Y906523D01*
X729170Y906523D01*
X729180Y904920D01*
X729186Y901716D01*
X729177Y898511D01*
X729153Y895307D01*
X729134Y893705D01*
X729308Y892956D01*
X729848Y891517D01*
X730628Y890193D01*
X731625Y889023D01*
X732808Y888042D01*
X734142Y887279D01*
X735588Y886758D01*
X737102Y886493D01*
X737870Y886460D01*
X952241D01*
X954108Y885687D01*
X955537Y884258D01*
X956310Y882391D01*
Y876300D01*
X815340Y735330D01*
X513080D01*
X513080Y735330D01*
X512089Y735232D01*
X510258Y734474D01*
X508856Y733072D01*
X508098Y731241D01*
X508000Y730250D01*
Y725725D01*
X507895Y725471D01*
X507488Y722380D01*
X507895Y719289D01*
X508000Y719035D01*
Y712468D01*
X508097Y711477D01*
X508856Y709646D01*
X510258Y708245D01*
X512089Y707487D01*
X513080Y707390D01*
X524510Y707390D01*
X548640Y683260D01*
X580390D01*
X580390Y683260D01*
X580390Y683260D01*
X580391D01*
X581558Y683091D01*
X582549Y682681D01*
X583621Y681609D01*
X584200Y680208D01*
X584200Y679450D01*
X584200Y595629D01*
X584297Y594638D01*
X585056Y592807D01*
X586458Y591405D01*
X588289Y590647D01*
X589280Y590550D01*
X627380D01*
X628371Y590648D01*
X630202Y591406D01*
X631604Y592808D01*
X632362Y594639D01*
X632460Y595630D01*
Y624842D01*
X632460Y625600D01*
X633040Y627000D01*
X634112Y628072D01*
X635512Y628651D01*
X636270Y628650D01*
X871220Y628650D01*
X871220Y628650D01*
X871220Y628650D01*
X872483Y628650D01*
X874817Y627684D01*
X876604Y625898D01*
X877570Y623563D01*
X877570Y622300D01*
X877570Y582930D01*
X877570Y582930D01*
X877570Y581667D01*
X876603Y579333D01*
X874817Y577547D01*
X872483Y576580D01*
X871220Y576580D01*
X495300D01*
Y576580D01*
X494549D01*
X493077Y576873D01*
X491691Y577447D01*
X490443Y578281D01*
X489381Y579343D01*
X488547Y580591D01*
X487973Y581977D01*
X487680Y583450D01*
X487680Y631193D01*
X487680Y631193D01*
X487950Y632351D01*
X488066Y632631D01*
X488781Y633345D01*
X489715Y633731D01*
X490220Y633730D01*
X537268Y633730D01*
X538480Y633730D01*
X538480Y633730D01*
X539224Y633802D01*
X539647Y633978D01*
X540598Y634371D01*
X541649Y635422D01*
X542217Y636796D01*
X542290Y637540D01*
X542290Y650240D01*
X542290Y650240D01*
X542290Y650240D01*
X542290Y650242D01*
X542217Y650983D01*
X542049Y651389D01*
X541649Y652357D01*
X540597Y653409D01*
X539224Y653977D01*
X538480Y654050D01*
X492760Y654050D01*
X491749Y654050D01*
X489882Y654823D01*
X488453Y656252D01*
X487680Y658120D01*
Y659130D01*
Y862331D01*
X487680Y863595D01*
X488646Y865928D01*
X490433Y867714D01*
X492767Y868680D01*
X494030Y868680D01*
X537271Y868680D01*
X538480Y868680D01*
X538480Y868680D01*
X539719Y868802D01*
X542009Y869749D01*
X543761Y871501D01*
X544708Y873791D01*
X544830Y875030D01*
X544830Y919481D01*
X544830Y919481D01*
X544879Y920731D01*
X545220Y922445D01*
X545986Y924294D01*
X547098Y925958D01*
X548513Y927373D01*
X550177Y928485D01*
X552026Y929250D01*
X553612Y929565D01*
X1348970D01*
X1350804Y929201D01*
D02*
G37*
G36*
X624840Y678815D02*
X624840Y678815D01*
X624841D01*
X625987Y678549D01*
X626279Y678428D01*
X626993Y677714D01*
X627380Y676780D01*
X627380Y676275D01*
X627380Y596265D01*
Y595760D01*
X626993Y594826D01*
X626279Y594112D01*
X625345Y593725D01*
X612140D01*
X611635Y593725D01*
X610701Y594112D01*
X609987Y594826D01*
X609600Y595760D01*
X609600Y596265D01*
Y676275D01*
X609600Y676780D01*
X609987Y677714D01*
X610701Y678428D01*
X611635Y678815D01*
X612140Y678815D01*
X624840Y678815D01*
X624840Y678815D01*
D02*
G37*
G36*
X961236Y603404D02*
X961994Y603404D01*
X963394Y602824D01*
X964466Y601752D01*
X964876Y600762D01*
X965046Y599595D01*
Y599594D01*
X965046Y599594D01*
X965046Y599594D01*
X965046Y580544D01*
X965046Y579786D01*
X964466Y578386D01*
X963394Y577314D01*
X962431Y576915D01*
X961236Y576734D01*
X945238D01*
X943838Y577314D01*
X942766Y578386D01*
X942186Y579786D01*
Y599594D01*
X942186Y600352D01*
X942766Y601752D01*
X943838Y602824D01*
X945238Y603404D01*
X945996Y603404D01*
X945996Y603404D01*
X961236Y603404D01*
D02*
G37*
G36*
X932180Y603250D02*
X932938Y603250D01*
X934338Y602670D01*
X935410Y601598D01*
X935820Y600608D01*
X935990Y599441D01*
Y599440D01*
X935990Y599440D01*
X935990Y599440D01*
X935990Y580390D01*
X935990Y579632D01*
X935410Y578232D01*
X934338Y577160D01*
X933375Y576761D01*
X932180Y576580D01*
X916182D01*
X914782Y577160D01*
X913710Y578232D01*
X913130Y579632D01*
Y599440D01*
X913130Y600198D01*
X913710Y601598D01*
X914782Y602670D01*
X916182Y603250D01*
X916940Y603250D01*
X916940Y603250D01*
X932180Y603250D01*
D02*
G37*
G36*
X1018540Y603250D02*
X1019298Y603250D01*
X1020698Y602670D01*
X1021770Y601598D01*
X1022180Y600608D01*
X1022350Y599440D01*
Y599440D01*
X1022350Y599440D01*
X1022350Y599440D01*
X1022350Y580390D01*
X1022350Y579632D01*
X1021770Y578232D01*
X1020698Y577160D01*
X1019735Y576761D01*
X1018540Y576580D01*
X1002542D01*
X1001142Y577160D01*
X1000070Y578232D01*
X999490Y579632D01*
Y599440D01*
X999490Y600198D01*
X1000070Y601598D01*
X1001142Y602670D01*
X1002542Y603250D01*
X1003300Y603250D01*
X1003300Y603250D01*
X1018540Y603250D01*
D02*
G37*
G36*
X989330D02*
X990088Y603250D01*
X991488Y602670D01*
X992560Y601598D01*
X992970Y600608D01*
X993140Y599440D01*
Y599440D01*
X993140Y599440D01*
X993140Y599440D01*
X993140Y580390D01*
X993140Y579632D01*
X992560Y578232D01*
X991488Y577160D01*
X990525Y576761D01*
X989330Y576580D01*
X973332D01*
X971932Y577160D01*
X970860Y578232D01*
X970280Y579632D01*
Y599440D01*
X970280Y600198D01*
X970860Y601598D01*
X971932Y602670D01*
X973332Y603250D01*
X974090Y603250D01*
X974090Y603250D01*
X989330Y603250D01*
D02*
G37*
G36*
X902970D02*
X903728Y603250D01*
X905128Y602670D01*
X906200Y601598D01*
X906610Y600608D01*
X906780Y599440D01*
Y599440D01*
X906780Y599440D01*
X906780Y599440D01*
X906780Y580390D01*
X906780Y579632D01*
X906200Y578232D01*
X905128Y577160D01*
X904165Y576761D01*
X902970Y576580D01*
X886972D01*
X885572Y577160D01*
X884500Y578232D01*
X883920Y579632D01*
Y599440D01*
X883920Y600198D01*
X884500Y601598D01*
X885572Y602670D01*
X886972Y603250D01*
X887730Y603250D01*
X887730Y603250D01*
X902970Y603250D01*
D02*
G37*
G36*
X1065530Y655320D02*
X1078230Y655320D01*
X1078230Y655320D01*
X1078230Y655320D01*
X1078231D01*
X1079393Y655152D01*
X1080388Y654740D01*
X1081460Y653668D01*
X1082040Y652268D01*
X1082040Y651510D01*
X1082040Y579120D01*
X1082040D01*
Y578615D01*
X1081653Y577681D01*
X1080939Y576967D01*
X1080005Y576580D01*
X1064260D01*
X1064260Y576580D01*
X1063755Y576580D01*
X1062821Y576967D01*
X1062107Y577681D01*
X1061753Y578534D01*
X1061770Y578615D01*
X1061770Y578615D01*
X1061770Y578615D01*
X1061770Y579120D01*
X1061770Y579120D01*
X1061770Y651511D01*
X1061733Y651695D01*
X1061738Y651796D01*
X1061738Y651796D01*
X1061743Y651884D01*
X1061720Y652039D01*
Y652040D01*
X1061723Y652106D01*
X1061720Y652130D01*
X1061720Y652268D01*
X1061720Y652268D01*
X1062300Y653668D01*
X1063372Y654740D01*
X1064772Y655320D01*
X1065530Y655320D01*
D02*
G37*
%LPC*%
G36*
X689610Y891282D02*
X686519Y890875D01*
X683639Y889682D01*
X681166Y887784D01*
X679268Y885311D01*
X678075Y882431D01*
X677668Y879340D01*
X678075Y876249D01*
X679268Y873369D01*
X681166Y870896D01*
X683639Y868998D01*
X686519Y867805D01*
X689610Y867398D01*
X692701Y867805D01*
X695581Y868998D01*
X698054Y870896D01*
X699952Y873369D01*
X701145Y876249D01*
X701552Y879340D01*
X701145Y882431D01*
X699952Y885311D01*
X698054Y887784D01*
X695581Y889682D01*
X692701Y890875D01*
X689610Y891282D01*
D02*
G37*
G36*
X647700D02*
X644609Y890875D01*
X641729Y889682D01*
X639256Y887784D01*
X637358Y885311D01*
X636165Y882431D01*
X635758Y879340D01*
X636165Y876249D01*
X637358Y873369D01*
X639256Y870896D01*
X641729Y868998D01*
X644609Y867805D01*
X647700Y867398D01*
X650791Y867805D01*
X653671Y868998D01*
X656144Y870896D01*
X658042Y873369D01*
X659235Y876249D01*
X659642Y879340D01*
X659235Y882431D01*
X658042Y885311D01*
X656144Y887784D01*
X653671Y889682D01*
X650791Y890875D01*
X647700Y891282D01*
D02*
G37*
G36*
X605790D02*
X602699Y890875D01*
X599819Y889682D01*
X597346Y887784D01*
X595448Y885311D01*
X594255Y882431D01*
X593848Y879340D01*
X594255Y876249D01*
X595448Y873369D01*
X597346Y870896D01*
X599819Y868998D01*
X602699Y867805D01*
X605790Y867398D01*
X608881Y867805D01*
X611761Y868998D01*
X614234Y870896D01*
X616132Y873369D01*
X617325Y876249D01*
X617732Y879340D01*
X617325Y882431D01*
X616132Y885311D01*
X614234Y887784D01*
X611761Y889682D01*
X608881Y890875D01*
X605790Y891282D01*
D02*
G37*
G36*
X562610D02*
X559519Y890875D01*
X556639Y889682D01*
X554166Y887784D01*
X552268Y885311D01*
X551075Y882431D01*
X550668Y879340D01*
X551075Y876249D01*
X552268Y873369D01*
X554166Y870896D01*
X556639Y868998D01*
X559519Y867805D01*
X562610Y867398D01*
X565701Y867805D01*
X568581Y868998D01*
X571054Y870896D01*
X572952Y873369D01*
X574145Y876249D01*
X574552Y879340D01*
X574145Y882431D01*
X572952Y885311D01*
X571054Y887784D01*
X568581Y889682D01*
X565701Y890875D01*
X562610Y891282D01*
D02*
G37*
G36*
X699770Y842010D02*
X699770Y842010D01*
X552450Y842010D01*
X551440Y842010D01*
X549572Y841237D01*
X548143Y839808D01*
X547454Y838143D01*
X547370Y837940D01*
X547370Y836930D01*
X547370Y836930D01*
X547370Y836930D01*
X547370Y835660D01*
X547370Y820323D01*
X547270Y820152D01*
X547370Y819149D01*
X547370Y819149D01*
Y818890D01*
X547370Y818139D01*
X548143Y816272D01*
X549572Y814843D01*
X551439Y814070D01*
X552450Y814070D01*
X699510D01*
X701378Y814843D01*
X702807Y816272D01*
X703580Y818139D01*
Y819150D01*
X703580D01*
X703580Y838200D01*
X703580Y838958D01*
X703000Y840358D01*
X701928Y841430D01*
X700938Y841840D01*
X700528Y842010D01*
X699771Y842010D01*
X699770Y842010D01*
X699770Y842010D01*
D02*
G37*
G36*
X700528Y787400D02*
X699771Y787400D01*
X699770Y787400D01*
X699770Y787400D01*
X698500Y787400D01*
X513080Y787400D01*
X511968Y787400D01*
X509912Y786548D01*
X508339Y784975D01*
X507543Y783055D01*
X507488Y782920D01*
X507488Y781808D01*
X507488Y781808D01*
X507488Y781808D01*
X507488Y765052D01*
Y763940D01*
X508339Y761885D01*
X509912Y760312D01*
X511967Y759461D01*
X513079D01*
X513079Y759461D01*
X698500Y759460D01*
X699510Y759460D01*
X701377Y760233D01*
X702806Y761662D01*
X703580Y763529D01*
X703580Y764540D01*
X703580Y764540D01*
X703580Y783590D01*
X703580Y784348D01*
X703000Y785748D01*
X701928Y786820D01*
X700966Y787219D01*
X700933Y787232D01*
X700933D01*
X700528Y787400D01*
D02*
G37*
%LPD*%
D14*
X526640Y644765D02*
X527035Y644370D01*
X647700Y722210D02*
X650660D01*
X663350Y709520D02*
X820010D01*
X650660Y722210D02*
X663350Y709520D01*
X970280Y873760D02*
Y899160D01*
X699128Y718820D02*
X815340D01*
X970280Y873760D01*
X995680Y885190D02*
Y899160D01*
X820010Y709520D02*
X995680Y885190D01*
X833120Y695960D02*
X1009650Y872490D01*
X588860Y695960D02*
X833120D01*
X1009650Y872490D02*
X1071535D01*
X1013460Y861060D02*
X1084580D01*
X552200Y689610D02*
X842010D01*
X1013460Y861060D01*
X519430Y722380D02*
X552200Y689610D01*
X562610Y722210D02*
X588860Y695960D01*
X605790Y722210D02*
X625690Y702310D01*
X826770D02*
X1007110Y882650D01*
X625690Y702310D02*
X826770D01*
X736600Y659130D02*
X829310D01*
X612738Y635000D02*
X712470D01*
X736600Y659130D01*
X1084580Y861060D02*
X1122680Y899160D01*
X1071535Y872490D02*
X1097280Y898235D01*
X1055370Y882650D02*
X1071880Y899160D01*
X1007110Y882650D02*
X1055370D01*
X1097280Y898235D02*
Y899160D01*
X495695Y644765D02*
X526640D01*
X495300Y645160D02*
X495695Y644765D01*
X692683Y719557D02*
X698391D01*
X699128Y718820D01*
X689610Y722630D02*
X692683Y719557D01*
X982028Y619347D02*
X985694D01*
X989330Y622984D02*
Y629920D01*
X994455Y635046D01*
X985694Y619347D02*
X989330Y622984D01*
X994455Y643935D02*
X995680Y645160D01*
X994455Y635046D02*
Y643935D01*
X1015254Y619347D02*
X1018891Y622984D01*
X1010920Y619347D02*
X1015254D01*
X1018891Y642971D02*
X1021080Y645160D01*
X1018891Y622984D02*
Y642971D01*
X945892Y622984D02*
Y644147D01*
X949529Y619347D02*
X953135D01*
X944880Y645160D02*
X945892Y644147D01*
Y622984D02*
X949529Y619347D01*
X919480Y622984D02*
X923116Y619347D01*
X919480Y622984D02*
Y645160D01*
X923116Y619347D02*
X924242D01*
X894080Y620617D02*
Y645160D01*
Y620617D02*
X895350Y619347D01*
D15*
X593490Y610040D02*
D03*
X618490D02*
D03*
X643490D02*
D03*
Y665040D02*
D03*
X618490D02*
D03*
X593490D02*
D03*
D16*
X953150Y593467D02*
D03*
X953135Y619347D02*
D03*
X895365Y593467D02*
D03*
X895350Y619347D02*
D03*
X982028D02*
D03*
X982042Y593467D02*
D03*
X1010920Y619347D02*
D03*
X1010935Y593467D02*
D03*
X924258D02*
D03*
X924242Y619347D02*
D03*
X527050Y618490D02*
D03*
X527035Y644370D02*
D03*
D17*
X1067100Y615950D02*
D03*
X1054100D02*
D03*
D18*
X1068950Y595550D02*
D03*
X1051950D02*
D03*
D27*
X605790Y773510D02*
D03*
Y747860D02*
D03*
Y722210D02*
D03*
X562610Y773510D02*
D03*
Y747860D02*
D03*
Y722210D02*
D03*
X689610Y722630D02*
D03*
Y748280D02*
D03*
Y773930D02*
D03*
Y879340D02*
D03*
Y853690D02*
D03*
Y828040D02*
D03*
X647700Y879340D02*
D03*
Y853690D02*
D03*
Y828040D02*
D03*
X605790Y879340D02*
D03*
Y853690D02*
D03*
Y828040D02*
D03*
X562610Y879340D02*
D03*
Y853690D02*
D03*
Y828040D02*
D03*
X647700Y722210D02*
D03*
Y747860D02*
D03*
Y773510D02*
D03*
X519430Y722380D02*
D03*
Y748030D02*
D03*
Y773680D02*
D03*
D28*
X1393190Y897890D02*
D03*
X513080D02*
D03*
D29*
X1198880Y899160D02*
D03*
D30*
X1173480D02*
D03*
X741680D02*
D03*
X1148080D02*
D03*
X1122680D02*
D03*
X1097280D02*
D03*
X1071880D02*
D03*
X1046480D02*
D03*
X1021080D02*
D03*
X995680D02*
D03*
X970280D02*
D03*
X944880D02*
D03*
X919480D02*
D03*
X894080D02*
D03*
X868680D02*
D03*
X843280D02*
D03*
X817880D02*
D03*
X792480D02*
D03*
X767080D02*
D03*
X1198880Y645160D02*
D03*
X1173480D02*
D03*
X1148080D02*
D03*
X1122680D02*
D03*
X1097280D02*
D03*
X1071880D02*
D03*
X1046480D02*
D03*
X1021080D02*
D03*
X995680D02*
D03*
X970280D02*
D03*
X944880D02*
D03*
X919480D02*
D03*
X894080D02*
D03*
X868680D02*
D03*
X843280D02*
D03*
X817880D02*
D03*
X792480D02*
D03*
X767080D02*
D03*
X741680D02*
D03*
D31*
X1109218Y838200D02*
D03*
X1130935Y857250D02*
D03*
X1152652Y838200D02*
D03*
X1174369Y857250D02*
D03*
X1196086Y838200D02*
D03*
X1217803Y857250D02*
D03*
X1239520Y838200D02*
D03*
X821182Y595630D02*
D03*
X799465Y614680D02*
D03*
X777748Y595630D02*
D03*
X756031Y614680D02*
D03*
X734314Y595630D02*
D03*
X712597Y614680D02*
D03*
X690880Y595630D02*
D03*
X520700Y849630D02*
D03*
X508000Y862330D02*
D03*
X495300Y849630D02*
D03*
X829310Y659130D02*
D03*
X1037590Y617220D02*
D03*
X495300Y645160D02*
D03*
D32*
X895350Y581660D02*
D03*
X1010920D02*
D03*
X981710D02*
D03*
X952500D02*
D03*
X923290D02*
D03*
M02*
