G04*
G04 #@! TF.GenerationSoftware,Altium Limited,Altium Designer,22.5.1 (42)*
G04*
G04 Layer_Color=32768*
%FSLAX44Y44*%
%MOMM*%
G71*
G04*
G04 #@! TF.SameCoordinates,CACD2641-2831-44B8-A32A-C0E418E96BB6*
G04*
G04*
G04 #@! TF.FilePolarity,Positive*
G04*
G01*
G75*
%ADD67C,0.1000*%
%ADD68C,0.0500*%
%ADD69C,0.0010*%
D67*
X563490Y687540D02*
X673490D01*
Y587500D02*
Y687540D01*
X563490Y587500D02*
X673490D01*
X563490D02*
Y687540D01*
X831930Y604600D02*
Y614600D01*
X826930Y609600D02*
X836930D01*
X1369220Y830667D02*
X1379220D01*
X1374220Y825667D02*
Y835667D01*
X1389350Y851050D02*
X1417350D01*
X1389350Y811050D02*
X1417350D01*
X1389350D02*
Y851050D01*
X1417350Y811050D02*
Y851050D01*
X1403350Y826050D02*
Y836050D01*
X1398350Y831050D02*
X1408350D01*
X949960Y819230D02*
Y829230D01*
X944960Y824230D02*
X954960D01*
X835580Y834470D02*
Y844470D01*
X830580Y839470D02*
X840580D01*
X857330Y750650D02*
X867330D01*
X862330Y745650D02*
Y755650D01*
X1275050Y655640D02*
X1303050D01*
X1275050Y695640D02*
X1303050D01*
Y655640D02*
Y695640D01*
X1275050Y655640D02*
Y695640D01*
X1289050Y670640D02*
Y680640D01*
X1284050Y675640D02*
X1294050D01*
X1318180Y674450D02*
Y684450D01*
X1313180Y679450D02*
X1323180D01*
D68*
X840430Y693420D02*
G03*
X840430Y693420I-3500J0D01*
G01*
X867100Y685800D02*
G03*
X867100Y685800I-3500J0D01*
G01*
X816252Y609600D02*
G03*
X816252Y609600I-3500J0D01*
G01*
X829000Y669290D02*
G03*
X829000Y669290I-3500J0D01*
G01*
X1013420Y606347D02*
G03*
X1013420Y606347I-2500J0D01*
G01*
X984528D02*
G03*
X984528Y606347I-2500J0D01*
G01*
X955635D02*
G03*
X955635Y606347I-2500J0D01*
G01*
X926742D02*
G03*
X926742Y606347I-2500J0D01*
G01*
X897850D02*
G03*
X897850Y606347I-2500J0D01*
G01*
X1375100Y863450D02*
G03*
X1375100Y863450I-3500J0D01*
G01*
X1267150Y647550D02*
G03*
X1267150Y647550I-3500J0D01*
G01*
X529535Y631370D02*
G03*
X529535Y631370I-2500J0D01*
G01*
X831930Y693420D02*
X841930D01*
X836930Y688420D02*
Y698420D01*
X822430Y685920D02*
Y700920D01*
Y685920D02*
X851430D01*
Y700920D01*
X822430D02*
X851430D01*
X863600Y680800D02*
Y690800D01*
X858600Y685800D02*
X868600D01*
X856100Y671300D02*
X871100D01*
Y700300D01*
X856100D02*
X871100D01*
X856100Y671300D02*
Y700300D01*
X812751Y604600D02*
Y614600D01*
X807751Y609600D02*
X817751D01*
X805251Y595100D02*
X820251D01*
X805251D02*
Y624100D01*
X820251D01*
Y595100D02*
Y624100D01*
X820500Y669290D02*
X830500D01*
X825500Y664290D02*
Y674290D01*
X811000Y661790D02*
Y676790D01*
Y661790D02*
X840000D01*
Y676790D01*
X811000D02*
X840000D01*
X1275280Y630160D02*
Y914160D01*
X726280Y630160D02*
X1275280D01*
X726280D02*
Y914160D01*
X1275280D01*
X934560Y586000D02*
Y620500D01*
X914560D02*
X934560D01*
X914560Y586000D02*
Y620500D01*
Y586000D02*
X934560D01*
X1020920Y587270D02*
Y621770D01*
X1000920D02*
X1020920D01*
X1000920Y587270D02*
Y621770D01*
Y587270D02*
X1020920D01*
X991710D02*
Y621770D01*
X971710D02*
X991710D01*
X971710Y587270D02*
Y621770D01*
Y587270D02*
X991710D01*
X963616Y586154D02*
Y620654D01*
X943616D02*
X963616D01*
X943616Y586154D02*
Y620654D01*
Y586154D02*
X963616D01*
X905350Y587270D02*
Y621770D01*
X885350D02*
X905350D01*
X885350Y587270D02*
Y621770D01*
Y587270D02*
X905350D01*
X999420Y587097D02*
X1022420D01*
X999420D02*
Y625847D01*
X1022420D01*
Y587097D02*
Y625847D01*
X1010920Y602847D02*
Y609847D01*
X1007420Y606347D02*
X1014420D01*
X970527Y587097D02*
X993528D01*
X970527D02*
Y625847D01*
X993528D01*
Y587097D02*
Y625847D01*
X982028Y602847D02*
Y609847D01*
X978528Y606347D02*
X985527D01*
X949635D02*
X956635D01*
X953135Y602847D02*
Y609847D01*
X964635Y587097D02*
Y625847D01*
X941635D02*
X964635D01*
X941635Y587097D02*
Y625847D01*
Y587097D02*
X964635D01*
X920742Y606347D02*
X927742D01*
X924242Y602847D02*
Y609847D01*
X935742Y587097D02*
Y625847D01*
X912742D02*
X935742D01*
X912742Y587097D02*
Y625847D01*
Y587097D02*
X935742D01*
X891850Y606347D02*
X898850D01*
X895350Y602847D02*
Y609847D01*
X906850Y587097D02*
Y625847D01*
X883850D02*
X906850D01*
X883850Y587097D02*
Y625847D01*
Y587097D02*
X906850D01*
X823294Y594360D02*
X840566D01*
X827180Y624822D02*
X836680D01*
X840566Y601976D02*
Y617206D01*
X836680Y624822D02*
X840566D01*
X823294D02*
X827180D01*
X823294Y594360D02*
Y624822D01*
X840566Y594360D02*
Y601976D01*
Y617206D02*
Y624822D01*
X1303757Y807360D02*
X1360257D01*
X1303757Y889360D02*
X1360257D01*
Y807360D02*
Y889360D01*
X1303757Y807360D02*
Y889360D01*
X1382856Y815445D02*
Y823061D01*
Y838292D02*
Y845908D01*
X1365584Y815445D02*
Y845908D01*
Y815445D02*
X1369470D01*
X1378970D02*
X1382856D01*
Y823061D02*
Y838292D01*
X1369470Y815445D02*
X1378970D01*
X1365584Y845908D02*
X1382856D01*
X865960Y879980D02*
X1033960D01*
X865960Y768480D02*
X1033960D01*
Y879980D01*
X865960Y768480D02*
Y879980D01*
X1379100Y848950D02*
Y877950D01*
X1364100Y848950D02*
X1379100D01*
X1364100D02*
Y877950D01*
X1379100D01*
X1366600Y863450D02*
X1376600D01*
X1371600Y858450D02*
Y868450D01*
X488210Y796450D02*
Y816450D01*
X522710D01*
Y796450D02*
Y816450D01*
X488210Y796450D02*
X522710D01*
X826944Y824230D02*
X844216D01*
X830830Y854692D02*
X840330D01*
X826944Y831845D02*
Y847076D01*
Y854692D02*
X830830D01*
X840330D02*
X844216D01*
Y824230D02*
Y854692D01*
X826944Y824230D02*
Y831845D01*
Y847076D02*
Y854692D01*
X847090Y742014D02*
Y759286D01*
X877552Y745900D02*
Y755400D01*
X854706Y759286D02*
X869937D01*
X877552Y755400D02*
Y759286D01*
Y742014D02*
Y745900D01*
X847090Y742014D02*
X877552D01*
X847090Y759286D02*
X854706D01*
X869937D02*
X877552D01*
X1256150Y633050D02*
Y662050D01*
X1271150D01*
Y633050D02*
Y662050D01*
X1256150Y633050D02*
X1271150D01*
X1258650Y647550D02*
X1268650D01*
X1263650Y642550D02*
Y652550D01*
X1309544Y664210D02*
X1326816D01*
X1313430Y694672D02*
X1322930D01*
X1309544Y671825D02*
Y687057D01*
Y694672D02*
X1313430D01*
X1322930D02*
X1326816D01*
Y664210D02*
Y694672D01*
X1309544Y664210D02*
Y671825D01*
Y687057D02*
Y694672D01*
X1275680Y589640D02*
X1357680D01*
X1275680Y646140D02*
X1357680D01*
X1275680Y589640D02*
Y646140D01*
X1357680Y589640D02*
Y646140D01*
X515535Y612120D02*
X538535D01*
X515535D02*
Y650870D01*
X538535D01*
Y612120D02*
Y650870D01*
X527035Y627870D02*
Y634870D01*
X523535Y631370D02*
X530535D01*
D69*
X828430Y688670D02*
Y698170D01*
Y688670D02*
X845430D01*
Y698170D01*
X828430D02*
X845430D01*
X858850Y677300D02*
X868350D01*
Y694300D01*
X858850D02*
X868350D01*
X858850Y677300D02*
Y694300D01*
X808001Y601100D02*
X817502D01*
X808001D02*
Y618100D01*
X817502D01*
Y601100D02*
Y618100D01*
X817000Y664540D02*
Y674040D01*
Y664540D02*
X834000D01*
Y674040D01*
X817000D02*
X834000D01*
X1376350Y854950D02*
Y871950D01*
X1366850Y854950D02*
X1376350D01*
X1366850D02*
Y871950D01*
X1376350D01*
X1258900Y639050D02*
Y656050D01*
X1268400D01*
Y639050D02*
Y656050D01*
X1258900Y639050D02*
X1268400D01*
M02*
