G04*
G04 #@! TF.GenerationSoftware,Altium Limited,Altium Designer,22.5.1 (42)*
G04*
G04 Layer_Color=16711935*
%FSLAX44Y44*%
%MOMM*%
G71*
G04*
G04 #@! TF.SameCoordinates,CACD2641-2831-44B8-A32A-C0E418E96BB6*
G04*
G04*
G04 #@! TF.FilePolarity,Negative*
G04*
G01*
G75*
%ADD20R,1.2032X1.1032*%
%ADD22R,1.6032X1.2032*%
%ADD23C,2.0632*%
%ADD24R,1.7632X1.7632*%
%ADD25C,1.7632*%
%ADD26C,1.7272*%
%ADD48R,1.1032X1.2032*%
%ADD49R,1.6532X1.1532*%
%ADD50R,3.3032X2.6032*%
G04:AMPARAMS|DCode=51|XSize=2.3532mm|YSize=0.8032mm|CornerRadius=0.2516mm|HoleSize=0mm|Usage=FLASHONLY|Rotation=270.000|XOffset=0mm|YOffset=0mm|HoleType=Round|Shape=RoundedRectangle|*
%AMROUNDEDRECTD51*
21,1,2.3532,0.3000,0,0,270.0*
21,1,1.8500,0.8032,0,0,270.0*
1,1,0.5032,-0.1500,-0.9250*
1,1,0.5032,-0.1500,0.9250*
1,1,0.5032,0.1500,0.9250*
1,1,0.5032,0.1500,-0.9250*
%
%ADD51ROUNDEDRECTD51*%
%ADD52R,4.2032X4.2032*%
%ADD53R,2.8032X1.3032*%
%ADD54R,8.7032X10.8532*%
%ADD55R,3.7032X1.6532*%
%ADD56R,1.2032X1.3032*%
%ADD57R,1.1532X1.6532*%
%ADD58R,1.2032X1.6032*%
%ADD59O,0.8032X1.6532*%
%ADD60R,3.7032X3.7032*%
G04:AMPARAMS|DCode=61|XSize=2.3532mm|YSize=0.8032mm|CornerRadius=0.2516mm|HoleSize=0mm|Usage=FLASHONLY|Rotation=0.000|XOffset=0mm|YOffset=0mm|HoleType=Round|Shape=RoundedRectangle|*
%AMROUNDEDRECTD61*
21,1,2.3532,0.3000,0,0,0.0*
21,1,1.8500,0.8032,0,0,0.0*
1,1,0.5032,0.9250,-0.1500*
1,1,0.5032,-0.9250,-0.1500*
1,1,0.5032,-0.9250,0.1500*
1,1,0.5032,0.9250,0.1500*
%
%ADD61ROUNDEDRECTD61*%
%ADD62R,2.6032X3.3032*%
D20*
X863600Y692300D02*
D03*
Y679300D02*
D03*
D22*
X1374220Y822168D02*
D03*
Y839167D02*
D03*
X835580Y830970D02*
D03*
Y847970D02*
D03*
X1318180Y670950D02*
D03*
Y687950D02*
D03*
D23*
X604520Y775200D02*
D03*
Y749550D02*
D03*
Y723900D02*
D03*
X561340Y774950D02*
D03*
Y723650D02*
D03*
Y749300D02*
D03*
X524510Y774950D02*
D03*
Y723650D02*
D03*
Y749300D02*
D03*
X688340Y829060D02*
D03*
Y880360D02*
D03*
Y854710D02*
D03*
X689610Y773930D02*
D03*
Y748280D02*
D03*
Y722630D02*
D03*
X647700Y773510D02*
D03*
Y747860D02*
D03*
Y722210D02*
D03*
Y828040D02*
D03*
Y879340D02*
D03*
Y853690D02*
D03*
X605790Y828040D02*
D03*
Y853690D02*
D03*
Y879340D02*
D03*
X562610Y828040D02*
D03*
Y853690D02*
D03*
Y879340D02*
D03*
D24*
X1198880Y899160D02*
D03*
D25*
X1173480D02*
D03*
X741680D02*
D03*
X1148080D02*
D03*
X1122680D02*
D03*
X1097280D02*
D03*
X1071880D02*
D03*
X1046480D02*
D03*
X1021080D02*
D03*
X995680D02*
D03*
X970280D02*
D03*
X944880D02*
D03*
X919480D02*
D03*
X894080D02*
D03*
X868680D02*
D03*
X843280D02*
D03*
X817880D02*
D03*
X792480D02*
D03*
X767080D02*
D03*
X1198880Y645160D02*
D03*
X1173480D02*
D03*
X1148080D02*
D03*
X1122680D02*
D03*
X1097280D02*
D03*
X1071880D02*
D03*
X1046480D02*
D03*
X1021080D02*
D03*
X995680D02*
D03*
X970280D02*
D03*
X944880D02*
D03*
X919480D02*
D03*
X894080D02*
D03*
X868680D02*
D03*
X843280D02*
D03*
X817880D02*
D03*
X792480D02*
D03*
X767080D02*
D03*
X741680D02*
D03*
D26*
X1393190Y897890D02*
D03*
X513080D02*
D03*
D48*
X843430Y693420D02*
D03*
X830430D02*
D03*
X832000Y669290D02*
D03*
X819000D02*
D03*
D49*
X924560Y593250D02*
D03*
Y613250D02*
D03*
X1010920Y594520D02*
D03*
Y614520D02*
D03*
X981710Y594520D02*
D03*
Y614520D02*
D03*
X953616Y593404D02*
D03*
Y613404D02*
D03*
X895350Y594520D02*
D03*
Y614520D02*
D03*
D50*
X1332757Y848360D02*
D03*
D51*
X1351607Y820110D02*
D03*
X1339007D02*
D03*
X1326257D02*
D03*
X1313507D02*
D03*
X1326207Y876610D02*
D03*
X1313507D02*
D03*
X1338907D02*
D03*
X1351607D02*
D03*
D52*
X1398270Y596900D02*
D03*
X1360170Y781050D02*
D03*
X1305560D02*
D03*
X1398270Y647700D02*
D03*
D53*
X1403350Y844550D02*
D03*
Y817550D02*
D03*
X1289050Y662140D02*
D03*
Y689140D02*
D03*
D54*
X988960Y824230D02*
D03*
D55*
X885960Y849630D02*
D03*
Y798830D02*
D03*
D56*
X1371600Y869950D02*
D03*
Y856950D02*
D03*
X1263650Y641050D02*
D03*
Y654050D02*
D03*
D57*
X515460Y806450D02*
D03*
X495460D02*
D03*
D58*
X853830Y750650D02*
D03*
X870830D02*
D03*
D59*
X928370Y694110D02*
D03*
X902970D02*
D03*
X890270D02*
D03*
X928370Y748610D02*
D03*
X915670D02*
D03*
X902970D02*
D03*
X890270D02*
D03*
X915670Y694110D02*
D03*
D60*
X1104900Y700169D02*
D03*
Y802640D02*
D03*
D61*
X1288430Y637490D02*
D03*
Y624790D02*
D03*
Y599390D02*
D03*
Y612090D02*
D03*
X1344930Y599390D02*
D03*
Y612140D02*
D03*
Y624890D02*
D03*
Y637490D02*
D03*
D62*
X1316680Y618640D02*
D03*
M02*
